STARTFONT 2.1
FONT -baekmuk-gulim-bold-r-normal--18-180-75-75-m-180-ksx1001.1997-0
SIZE 18 75 75
FONTBOUNDINGBOX 18 18 0 -4
STARTPROPERTIES 18
FOUNDRY "baekmuk"
FAMILY_NAME "gulim"
WEIGHT_NAME "bold"
SLANT "r"
SETWIDTH_NAME "normal"
ADD_STYLE_NAME ""
PIXEL_SIZE 18
POINT_SIZE 180
RESOLUTION_X 75
RESOLUTION_Y 75
SPACING "m"
AVERAGE_WIDTH 180
CHARSET_REGISTRY "ksx1001.1997"
CHARSET_ENCODING "0"
DEFAULT_CHAR 8481
FONT_ASCENT 14
FONT_DESCENT 4
COPYRIGHT "(c)Hwan Design Inc. and Mizi Research Inc."
ENDPROPERTIES
CHARS 8373
STARTCHAR C020440
ENCODING 8480
SWIDTH 1800 0
DWIDTH 18 0
BBX 0 0 0 0
BITMAP
ENDCHAR
STARTCHAR C020442
ENCODING 8482
SWIDTH 1800 0
DWIDTH 18 0
BBX 4 3 12 9
BITMAP
E0
70
30
ENDCHAR
STARTCHAR C020443
ENCODING 8483
SWIDTH 1800 0
DWIDTH 18 0
BBX 5 4 11 9
BITMAP
78
D8
D8
70
ENDCHAR
STARTCHAR C020444
ENCODING 8484
SWIDTH 1800 0
DWIDTH 18 0
BBX 3 3 8 3
BITMAP
E0
E0
E0
ENDCHAR
STARTCHAR C020445
ENCODING 8485
SWIDTH 1800 0
DWIDTH 18 0
BBX 10 3 4 3
BITMAP
00C0
E1C0
60C0
ENDCHAR
STARTCHAR C020446
ENCODING 8486
SWIDTH 1800 0
DWIDTH 18 0
BBX 12 2 4 3
BITMAP
C630
C630
ENDCHAR
STARTCHAR C020447
ENCODING 8487
SWIDTH 1800 0
DWIDTH 18 0
BBX 7 1 6 9
BITMAP
C6
ENDCHAR
STARTCHAR C020450
ENCODING 8488
SWIDTH 1800 0
DWIDTH 18 0
BBX 6 7 6 1
BITMAP
3C
3C
7C
6C
78
D8
18
ENDCHAR
STARTCHAR C020451
ENCODING 8489
SWIDTH 1800 0
DWIDTH 18 0
BBX 9 1 5 4
BITMAP
FF80
ENDCHAR
STARTCHAR C020452
ENCODING 8490
SWIDTH 1800 0
DWIDTH 18 0
BBX 17 1 1 4
BITMAP
FFFF80
ENDCHAR
STARTCHAR C020453
ENCODING 8491
SWIDTH 1800 0
DWIDTH 18 0
BBX 5 13 7 -1
BITMAP
D8
D8
D8
D8
D8
D8
D8
D8
D8
D8
D8
D8
D8
ENDCHAR
STARTCHAR C020454
ENCODING 8492
SWIDTH 1800 0
DWIDTH 18 0
BBX 14 16 2 -4
BITMAP
C000
6000
7000
3800
1800
0C00
0600
0300
0180
00C0
0060
0030
0018
001C
000C
6000
ENDCHAR
STARTCHAR C020455
ENCODING 8493
SWIDTH 1800 0
DWIDTH 18 0
BBX 15 10 4 -4
BITMAP
7800
CEC0
0780
0000
0000
0000
0000
0000
0000
0016
ENDCHAR
STARTCHAR C020456
ENCODING 8494
SWIDTH 1800 0
DWIDTH 18 0
BBX 3 4 11 8
BITMAP
60
C0
E0
60
ENDCHAR
STARTCHAR C020457
ENCODING 8495
SWIDTH 1800 0
DWIDTH 18 0
BBX 3 4 4 9
BITMAP
E0
E0
60
C0
ENDCHAR
STARTCHAR C020460
ENCODING 8496
SWIDTH 1800 0
DWIDTH 18 0
BBX 6 4 10 9
BITMAP
6C
D8
DC
FC
ENDCHAR
STARTCHAR C020461
ENCODING 8497
SWIDTH 1800 0
DWIDTH 18 0
BBX 7 3 2 10
BITMAP
EE
6C
6C
ENDCHAR
STARTCHAR C020462
ENCODING 8498
SWIDTH 1800 0
DWIDTH 18 0
BBX 5 17 13 -4
BITMAP
38
E0
C0
C0
C0
C0
C0
C0
C0
C0
C0
C0
C0
C0
C0
E0
78
ENDCHAR
STARTCHAR C020463
ENCODING 8499
SWIDTH 1800 0
DWIDTH 18 0
BBX 4 17 2 -4
BITMAP
C0
70
30
30
30
30
30
30
30
30
30
30
30
30
30
30
E0
ENDCHAR
STARTCHAR C020464
ENCODING 8500
SWIDTH 1800 0
DWIDTH 18 0
BBX 7 15 10 -3
BITMAP
06
0C
18
18
30
60
60
C0
C0
60
30
30
18
0C
0C
ENDCHAR
STARTCHAR C020465
ENCODING 8501
SWIDTH 1800 0
DWIDTH 18 0
BBX 7 15 2 -3
BITMAP
C0
60
60
30
18
18
0C
06
0C
18
18
30
60
60
C0
ENDCHAR
STARTCHAR C020466
ENCODING 8502
SWIDTH 1800 0
DWIDTH 18 0
BBX 8 16 9 -4
BITMAP
0F
1E
1E
3C
3C
78
78
F0
D8
78
6C
3C
1E
1E
0F
0C
ENDCHAR
STARTCHAR C020467
ENCODING 8503
SWIDTH 1800 0
DWIDTH 18 0
BBX 7 18 2 -3
BITMAP
78
00
00
F0
F0
78
78
3C
3C
1E
1E
1E
3C
3C
78
78
F0
F0
ENDCHAR
STARTCHAR C020470
ENCODING 8504
SWIDTH 1800 0
DWIDTH 18 0
BBX 7 10 11 5
BITMAP
E0
00
FE
C0
C0
C0
C0
C0
C0
C0
ENDCHAR
STARTCHAR C020471
ENCODING 8505
SWIDTH 1800 0
DWIDTH 18 0
BBX 6 8 5 -4
BITMAP
60
60
60
60
60
60
60
94
ENDCHAR
STARTCHAR C020472
ENCODING 8506
SWIDTH 1800 0
DWIDTH 18 0
BBX 7 8 11 5
BITMAP
FE
C6
FC
F0
F0
F0
F0
F0
ENDCHAR
STARTCHAR C020473
ENCODING 8507
SWIDTH 1800 0
DWIDTH 18 0
BBX 13 19 1 -4
BITMAP
0C00
0078
0000
0000
0000
0000
0000
0000
0000
0000
0000
1C00
1C00
1C00
1C00
1C00
1C00
FC00
6000
ENDCHAR
STARTCHAR C020474
ENCODING 8508
SWIDTH 1800 0
DWIDTH 18 0
BBX 4 16 11 -3
BITMAP
F0
E0
E0
E0
C0
C0
C0
C0
C0
C0
C0
C0
E0
E0
E0
F0
ENDCHAR
STARTCHAR C020475
ENCODING 8509
SWIDTH 1800 0
DWIDTH 18 0
BBX 4 16 3 -3
BITMAP
F0
70
70
30
30
30
30
30
30
30
30
30
70
70
70
F0
ENDCHAR
STARTCHAR C020476
ENCODING 8510
SWIDTH 1800 0
DWIDTH 18 0
BBX 11 12 4 -1
BITMAP
0C00
0C00
0C00
0C00
0C00
FFE0
0C00
0C00
0C00
0C00
0C00
FFE0
ENDCHAR
STARTCHAR C020477
ENCODING 8511
SWIDTH 1800 0
DWIDTH 18 0
BBX 11 11 4 -1
BITMAP
C060
E0C0
6180
3300
1E00
0E00
1E00
1B00
3180
60C0
C0C0
ENDCHAR
STARTCHAR C020500
ENCODING 8512
SWIDTH 1800 0
DWIDTH 18 0
BBX 12 10 3 -1
BITMAP
0300
0300
0000
0000
FFF0
0000
0000
0000
0300
0300
ENDCHAR
STARTCHAR C020501
ENCODING 8513
SWIDTH 1800 0
DWIDTH 18 0
BBX 13 12 3 -2
BITMAP
0C00
0C00
0C00
0600
FFF8
0600
0600
FFF8
0300
0300
0180
0180
ENDCHAR
STARTCHAR C020502
ENCODING 8514
SWIDTH 1800 0
DWIDTH 18 0
BBX 11 11 4 -1
BITMAP
0060
01C0
0700
3C00
F000
F000
3C00
0780
01E0
0000
FFE0
ENDCHAR
STARTCHAR C020503
ENCODING 8515
SWIDTH 1800 0
DWIDTH 18 0
BBX 12 11 3 -1
BITMAP
6000
7800
1E00
0380
00E0
00E0
0780
1C00
7000
0000
FFF0
ENDCHAR
STARTCHAR C020504
ENCODING 8516
SWIDTH 1800 0
DWIDTH 18 0
BBX 14 7 2 1
BITMAP
7CF8
679C
C38C
C30C
C38C
679C
7CF8
ENDCHAR
STARTCHAR C020505
ENCODING 8517
SWIDTH 1800 0
DWIDTH 18 0
BBX 9 8 5 1
BITMAP
1800
1800
0000
0000
0000
0000
C180
C180
ENDCHAR
STARTCHAR C020506
ENCODING 8518
SWIDTH 1800 0
DWIDTH 18 0
BBX 5 4 2 9
BITMAP
F8
D8
D8
70
ENDCHAR
STARTCHAR C020507
ENCODING 8519
SWIDTH 1800 0
DWIDTH 18 0
BBX 4 4 2 9
BITMAP
70
60
60
C0
ENDCHAR
STARTCHAR C020510
ENCODING 8520
SWIDTH 1800 0
DWIDTH 18 0
BBX 10 17 2 -4
BITMAP
7E00
7C00
6C00
D800
0000
0000
0000
0000
0000
0000
0000
0000
0000
0000
0000
0000
0940
ENDCHAR
STARTCHAR C020511
ENCODING 8521
SWIDTH 1800 0
DWIDTH 18 0
BBX 15 16 3 -4
BITMAP
6000
F7E0
FE70
6C30
1830
1830
1800
1800
1800
1818
0C30
0E70
07E0
0000
0000
0002
ENDCHAR
STARTCHAR C020512
ENCODING 8522
SWIDTH 1800 0
DWIDTH 18 0
BBX 10 17 4 -4
BITMAP
0C00
1E00
1E00
0C00
0E00
0E00
1E00
1B00
3300
3180
7F80
6180
60C0
C0C0
0000
0000
6000
ENDCHAR
STARTCHAR C020513
ENCODING 8523
SWIDTH 1800 0
DWIDTH 18 0
BBX 17 16 2 -4
BITMAP
03C600
0E7C00
183800
183800
307800
30C000
30C000
318000
330000
3E1800
1C1800
1C3000
37E000
600000
C00000
001680
ENDCHAR
STARTCHAR C020514
ENCODING 8524
SWIDTH 1800 0
DWIDTH 18 0
BBX 11 12 4 -1
BITMAP
0FC0
18C0
18C0
1800
1800
7FC0
0C00
0C00
0C00
FC60
DE60
7BC0
ENDCHAR
STARTCHAR C020515
ENCODING 8525
SWIDTH 1800 0
DWIDTH 18 0
BBX 12 13 3 -1
BITMAP
30C0
30C0
1980
FFF0
1D80
0F00
0F00
FFF0
0600
0600
0600
0600
0600
ENDCHAR
STARTCHAR C020516
ENCODING 8526
SWIDTH 1800 0
DWIDTH 18 0
BBX 8 15 5 -3
BITMAP
18
38
3C
7E
DE
DB
18
18
18
3C
66
63
63
77
3E
ENDCHAR
STARTCHAR C020517
ENCODING 8527
SWIDTH 1800 0
DWIDTH 18 0
BBX 11 15 4 -3
BITMAP
1F00
3B80
3180
3180
3180
1F00
0C00
0C00
FFE0
0C00
0C00
0C00
0C00
0C00
0C00
ENDCHAR
STARTCHAR C020520
ENCODING 8528
SWIDTH 1800 0
DWIDTH 18 0
BBX 12 11 3 -1
BITMAP
0060
00C0
0180
0380
0700
0E00
0C00
1800
3000
6000
FFF0
ENDCHAR
STARTCHAR C020521
ENCODING 8529
SWIDTH 1800 0
DWIDTH 18 0
BBX 11 10 4 -1
BITMAP
0C00
0C00
0C00
0C00
0C00
0C00
0C00
0C00
0C00
FFE0
ENDCHAR
STARTCHAR C020522
ENCODING 8530
SWIDTH 1800 0
DWIDTH 18 0
BBX 11 3 4 9
BITMAP
3F80
E1C0
C060
ENDCHAR
STARTCHAR C020523
ENCODING 8531
SWIDTH 1800 0
DWIDTH 18 0
BBX 8 13 5 -1
BITMAP
1C
7E
67
03
03
03
3F
67
C7
C6
C6
EC
7C
ENDCHAR
STARTCHAR C020524
ENCODING 8532
SWIDTH 1800 0
DWIDTH 18 0
BBX 13 10 3 0
BITMAP
FFF8
E030
6070
3060
30C0
18C0
1980
0F80
0700
0700
ENDCHAR
STARTCHAR C020525
ENCODING 8533
SWIDTH 1800 0
DWIDTH 18 0
BBX 13 7 3 1
BITMAP
FFF8
0000
0000
FFF8
0000
0000
FFF8
ENDCHAR
STARTCHAR C020526
ENCODING 8534
SWIDTH 1800 0
DWIDTH 18 0
BBX 13 10 3 -1
BITMAP
1800
1800
FFF8
0000
0000
0000
FFF8
0000
0060
0060
ENDCHAR
STARTCHAR C020527
ENCODING 8535
SWIDTH 1800 0
DWIDTH 18 0
BBX 10 16 6 -4
BITMAP
7800
CC00
CC00
E000
7000
FC00
CE00
C600
6600
3C00
1C00
0600
6600
7600
3C00
0940
ENDCHAR
STARTCHAR C020530
ENCODING 8536
SWIDTH 1800 0
DWIDTH 18 0
BBX 14 15 4 -4
BITMAP
0060
C6C0
6780
3700
1B00
CF80
CF80
DB80
3180
6780
C6C0
0060
0000
0000
0004
ENDCHAR
STARTCHAR C020531
ENCODING 8537
SWIDTH 1800 0
DWIDTH 18 0
BBX 15 15 2 -4
BITMAP
0300
0300
0380
0780
0780
FEFE
601C
3830
1860
1860
1B60
37B0
3CF0
3870
6000
ENDCHAR
STARTCHAR C020532
ENCODING 8538
SWIDTH 1800 0
DWIDTH 18 0
BBX 16 14 3 -4
BITMAP
0600
0700
0F00
0F00
FFF8
7FF0
3FE0
1FC0
1FC0
3FC0
3DC0
30C0
6060
002D
ENDCHAR
STARTCHAR C020533
ENCODING 8539
SWIDTH 1800 0
DWIDTH 18 0
BBX 14 14 2 -3
BITMAP
0FC0
3870
6038
6018
C00C
C00C
C00C
C00C
C00C
C00C
6018
6038
3870
0FC0
ENDCHAR
STARTCHAR C020534
ENCODING 8540
SWIDTH 1800 0
DWIDTH 18 0
BBX 14 14 2 -3
BITMAP
0FC0
1FF0
3FF0
7FF8
7FF8
7FFC
FFFC
FFFC
7FFC
7FF8
7FF8
3FF0
1FF0
0FC0
ENDCHAR
STARTCHAR C020535
ENCODING 8541
SWIDTH 1800 0
DWIDTH 18 0
BBX 14 14 2 -3
BITMAP
0FC0
3870
67F8
6C78
D83C
D83C
D83C
D83C
D83C
CC6C
67D8
6038
3870
0FC0
ENDCHAR
STARTCHAR C020536
ENCODING 8542
SWIDTH 1800 0
DWIDTH 18 0
BBX 15 15 2 -3
BITMAP
0380
0780
0CC0
1C60
3830
7018
600C
C006
600C
3018
3030
1860
0CC0
0780
0300
ENDCHAR
STARTCHAR C020537
ENCODING 8543
SWIDTH 1800 0
DWIDTH 18 0
BBX 15 15 2 -3
BITMAP
0300
0780
0FC0
0FE0
1FF0
3FF8
7FFC
FFFE
7FFC
3FF8
1FF0
1FE0
0FC0
0780
0300
ENDCHAR
STARTCHAR C020540
ENCODING 8544
SWIDTH 1800 0
DWIDTH 18 0
BBX 13 13 3 -2
BITMAP
FFF8
C018
C018
C018
C018
C018
C018
C018
C018
C018
C018
C018
FFF8
ENDCHAR
STARTCHAR C020541
ENCODING 8545
SWIDTH 1800 0
DWIDTH 18 0
BBX 13 13 3 -2
BITMAP
FFF8
FFF8
FFF8
FFF8
FFF8
FFF8
FFF8
FFF8
FFF8
FFF8
FFF8
FFF8
FFF8
ENDCHAR
STARTCHAR C020542
ENCODING 8546
SWIDTH 1800 0
DWIDTH 18 0
BBX 13 11 3 -1
BITMAP
0600
0700
0F00
0D80
18C0
30C0
3060
6060
6030
C030
FFF8
ENDCHAR
STARTCHAR C020543
ENCODING 8547
SWIDTH 1800 0
DWIDTH 18 0
BBX 13 11 3 -1
BITMAP
0600
0700
0F00
0F80
1FC0
3FC0
3FE0
7FE0
7FF0
FFF0
FFF8
ENDCHAR
STARTCHAR C020544
ENCODING 8548
SWIDTH 1800 0
DWIDTH 18 0
BBX 13 11 3 -1
BITMAP
FFF8
C030
6030
6060
3060
30C0
1980
0D80
0F00
0700
0600
ENDCHAR
STARTCHAR C020545
ENCODING 8549
SWIDTH 1800 0
DWIDTH 18 0
BBX 13 10 3 0
BITMAP
FFF8
FFF0
7FF0
7FE0
3FE0
1FC0
1F80
0F80
0700
0600
ENDCHAR
STARTCHAR C020546
ENCODING 8550
SWIDTH 1800 0
DWIDTH 18 0
BBX 15 11 2 -4
BITMAP
0030
0018
FFFE
0018
0030
0000
0000
0000
0000
0000
0940
ENDCHAR
STARTCHAR C020547
ENCODING 8551
SWIDTH 1800 0
DWIDTH 18 0
BBX 15 11 2 -4
BITMAP
1800
3000
FFFE
3000
1800
0000
0000
0000
0000
0000
0002
ENDCHAR
STARTCHAR C020550
ENCODING 8552
SWIDTH 1800 0
DWIDTH 18 0
BBX 5 15 7 -4
BITMAP
30
78
78
30
30
30
30
30
30
30
30
30
30
30
C0
ENDCHAR
STARTCHAR C020551
ENCODING 8553
SWIDTH 1800 0
DWIDTH 18 0
BBX 11 15 7 -4
BITMAP
3000
3000
3000
3000
3000
3000
3000
3000
3000
3000
3000
FC00
7800
7800
0020
ENDCHAR
STARTCHAR C020552
ENCODING 8554
SWIDTH 1800 0
DWIDTH 18 0
BBX 14 5 2 2
BITMAP
0030
6018
FFFC
6018
3000
ENDCHAR
STARTCHAR C020553
ENCODING 8555
SWIDTH 1800 0
DWIDTH 18 0
BBX 13 5 3 2
BITMAP
FFF8
0000
0000
0000
FFF8
ENDCHAR
STARTCHAR C020554
ENCODING 8556
SWIDTH 1800 0
DWIDTH 18 0
BBX 13 13 3 -2
BITMAP
00D8
03B8
0760
0CC0
3B80
7600
CC00
6600
3B00
0DC0
0660
03B0
00D8
ENDCHAR
STARTCHAR C020555
ENCODING 8557
SWIDTH 1800 0
DWIDTH 18 0
BBX 14 12 2 -2
BITMAP
EE00
3300
1DC0
0EE0
0330
01DC
01B8
0760
0EC0
1B80
3700
EC00
ENDCHAR
STARTCHAR C020556
ENCODING 8558
SWIDTH 1800 0
DWIDTH 18 0
BBX 15 16 2 -3
BITMAP
01FE
0180
0180
0300
0300
0300
0600
0600
0600
0C00
6C00
FC00
3C00
3800
1800
1800
ENDCHAR
STARTCHAR C020557
ENCODING 8559
SWIDTH 1800 0
DWIDTH 18 0
BBX 14 7 2 1
BITMAP
7CF8
EDD8
C38C
C30C
C60C
EEDC
7CF8
ENDCHAR
STARTCHAR C020560
ENCODING 8560
SWIDTH 1800 0
DWIDTH 18 0
BBX 12 7 3 1
BITMAP
7CF0
6F80
C700
C300
C700
EF80
7CF0
ENDCHAR
STARTCHAR C020561
ENCODING 8561
SWIDTH 1800 0
DWIDTH 18 0
BBX 9 8 4 0
BITMAP
C180
C180
0000
0000
0000
0000
0C00
0C00
ENDCHAR
STARTCHAR C020562
ENCODING 8562
SWIDTH 1800 0
DWIDTH 18 0
BBX 8 13 5 -1
BITMAP
0F
0F
1B
18
18
18
18
18
18
18
18
F0
F0
ENDCHAR
STARTCHAR C020563
ENCODING 8563
SWIDTH 1800 0
DWIDTH 18 0
BBX 12 13 3 -1
BITMAP
0EF0
1BF0
18C0
1980
1980
1980
1980
1980
1980
1980
3180
FD80
F700
ENDCHAR
STARTCHAR C020564
ENCODING 8564
SWIDTH 1800 0
DWIDTH 18 0
BBX 13 10 3 -1
BITMAP
1FF8
7000
6000
C000
FFF8
C000
C000
6000
7000
1FF8
ENDCHAR
STARTCHAR C020565
ENCODING 8565
SWIDTH 1800 0
DWIDTH 18 0
BBX 12 13 3 -4
BITMAP
FFC0
00E0
0030
0030
FFF0
0030
0030
0060
00E0
FF80
0000
0000
0940
ENDCHAR
STARTCHAR C020566
ENCODING 8566
SWIDTH 1800 0
DWIDTH 18 0
BBX 15 14 4 -4
BITMAP
1FE0
7000
C000
C000
C000
C000
E000
7FE0
0000
0000
FFE0
0000
0000
0002
ENDCHAR
STARTCHAR C020567
ENCODING 8567
SWIDTH 1800 0
DWIDTH 18 0
BBX 12 14 3 -4
BITMAP
7F80
00E0
0030
0030
0030
0030
0060
7FC0
0000
0000
FFF0
0000
0000
6000
ENDCHAR
STARTCHAR C020570
ENCODING 8568
SWIDTH 1800 0
DWIDTH 18 0
BBX 15 13 3 -4
BITMAP
1FF8
7000
6000
C000
C000
C000
C000
E000
7000
3FF8
0000
0000
0016
ENDCHAR
STARTCHAR C020571
ENCODING 8569
SWIDTH 1800 0
DWIDTH 18 0
BBX 12 10 3 -1
BITMAP
FFC0
00E0
0070
0030
0030
0030
0030
0070
0060
FFC0
ENDCHAR
STARTCHAR C020572
ENCODING 8570
SWIDTH 1800 0
DWIDTH 18 0
BBX 10 12 5 -1
BITMAP
C0C0
C0C0
C0C0
C0C0
C0C0
C0C0
C0C0
C0C0
C180
C180
6380
3E00
ENDCHAR
STARTCHAR C020573
ENCODING 8571
SWIDTH 1800 0
DWIDTH 18 0
BBX 9 13 5 -1
BITMAP
3E00
6300
C180
C180
C180
C180
C180
C180
C180
C180
C180
C180
C180
ENDCHAR
STARTCHAR C020574
ENCODING 8572
SWIDTH 1800 0
DWIDTH 18 0
BBX 11 10 4 -1
BITMAP
0E00
0E00
1B00
1B00
3180
3180
60C0
60C0
C060
C060
ENDCHAR
STARTCHAR C020575
ENCODING 8573
SWIDTH 1800 0
DWIDTH 18 0
BBX 11 10 4 0
BITMAP
C060
C060
60C0
60C0
3180
3180
1B00
1B00
0E00
0E00
ENDCHAR
STARTCHAR C020576
ENCODING 8574
SWIDTH 1800 0
DWIDTH 18 0
BBX 11 7 4 1
BITMAP
FFE0
0060
0060
0060
0060
0060
0060
ENDCHAR
STARTCHAR C020577
ENCODING 8575
SWIDTH 1800 0
DWIDTH 18 0
BBX 0 0 0 0
BITMAP
ENDCHAR
STARTCHAR C021040
ENCODING 8736
SWIDTH 1800 0
DWIDTH 18 0
BBX 1 1 18 2
BITMAP
80
ENDCHAR
STARTCHAR C021041
ENCODING 8737
SWIDTH 1800 0
DWIDTH 18 0
BBX 16 9 1 0
BITMAP
0030
0018
000C
7FFE
0003
0006
FFFC
0018
0030
ENDCHAR
STARTCHAR C021042
ENCODING 8738
SWIDTH 1800 0
DWIDTH 18 0
BBX 14 9 2 0
BITMAP
0C60
1830
3FF8
6018
C00C
600C
3FF8
1830
0C60
ENDCHAR
STARTCHAR C021043
ENCODING 8739
SWIDTH 1800 0
DWIDTH 18 0
BBX 12 12 4 0
BITMAP
C030
C060
6060
60C0
7FC0
3180
3180
1980
1B00
0F00
0E00
0E00
ENDCHAR
STARTCHAR C021044
ENCODING 8740
SWIDTH 1800 0
DWIDTH 18 0
BBX 10 15 5 -4
BITMAP
FF00
0300
0300
0300
0300
FF00
0300
0300
0300
0300
0300
FF00
0000
0000
0940
ENDCHAR
STARTCHAR C021045
ENCODING 8741
SWIDTH 1800 0
DWIDTH 18 0
BBX 3 3 7 10
BITMAP
60
60
C0
ENDCHAR
STARTCHAR C021046
ENCODING 8742
SWIDTH 1800 0
DWIDTH 18 0
BBX 10 16 4 -4
BITMAP
7CC0
C7C0
0000
0000
0000
0000
0000
0000
0000
0000
0000
0000
0000
0000
0000
6000
ENDCHAR
STARTCHAR C021047
ENCODING 8743
SWIDTH 1800 0
DWIDTH 18 0
BBX 12 17 6 -4
BITMAP
C600
FC00
7800
0000
0000
0000
0000
0000
0000
0000
0000
0000
0000
0000
0000
0000
0010
ENDCHAR
STARTCHAR C021050
ENCODING 8744
SWIDTH 1800 0
DWIDTH 18 0
BBX 7 3 6 10
BITMAP
C6
CE
7C
ENDCHAR
STARTCHAR C021051
ENCODING 8745
SWIDTH 1800 0
DWIDTH 18 0
BBX 5 2 7 11
BITMAP
F8
F0
ENDCHAR
STARTCHAR C021052
ENCODING 8746
SWIDTH 1800 0
DWIDTH 18 0
BBX 4 4 7 9
BITMAP
F0
F0
F0
F0
ENDCHAR
STARTCHAR C021053
ENCODING 8747
SWIDTH 1800 0
DWIDTH 18 0
BBX 2 2 9 10
BITMAP
C0
C0
ENDCHAR
STARTCHAR C021054
ENCODING 8748
SWIDTH 1800 0
DWIDTH 18 0
BBX 4 3 7 -3
BITMAP
70
30
F0
ENDCHAR
STARTCHAR C021055
ENCODING 8749
SWIDTH 1800 0
DWIDTH 18 0
BBX 5 4 7 -3
BITMAP
60
60
D8
70
ENDCHAR
STARTCHAR C021056
ENCODING 8750
SWIDTH 1800 0
DWIDTH 18 0
BBX 2 12 8 -1
BITMAP
C0
C0
00
C0
C0
C0
C0
C0
C0
C0
C0
C0
ENDCHAR
STARTCHAR C021057
ENCODING 8751
SWIDTH 1800 0
DWIDTH 18 0
BBX 8 13 6 -1
BITMAP
0C
0C
0C
00
18
18
18
78
C0
C3
C3
E7
7E
ENDCHAR
STARTCHAR C021060
ENCODING 8752
SWIDTH 1800 0
DWIDTH 18 0
BBX 3 8 8 1
BITMAP
E0
C0
00
00
00
00
C0
E0
ENDCHAR
STARTCHAR C021061
ENCODING 8753
SWIDTH 1800 0
DWIDTH 18 0
BBX 8 13 5 -1
BITMAP
07
0F
0C
18
18
3E
3E
3C
18
18
18
78
F0
ENDCHAR
STARTCHAR C021062
ENCODING 8754
SWIDTH 1800 0
DWIDTH 18 0
BBX 13 13 2 -1
BITMAP
FFF8
6018
3018
1818
0C18
0600
0300
0600
0C18
1C18
3818
3018
7FF8
ENDCHAR
STARTCHAR C021063
ENCODING 8755
SWIDTH 1800 0
DWIDTH 18 0
BBX 13 16 3 -4
BITMAP
FFF8
3060
3060
3060
3060
3060
3060
3060
3060
3060
3060
3060
3060
0000
0000
1280
ENDCHAR
STARTCHAR C021064
ENCODING 8756
SWIDTH 1800 0
DWIDTH 18 0
BBX 15 15 3 -4
BITMAP
C000
6FB0
38E0
3060
6030
6030
6030
6030
3070
38E0
6FE0
C030
0018
0000
0002
ENDCHAR
STARTCHAR C021065
ENCODING 8757
SWIDTH 1800 0
DWIDTH 18 0
BBX 14 16 2 -4
BITMAP
F3FC
F300
F300
6300
0300
03F8
0300
0300
0300
0300
0300
0300
0300
0000
0000
6000
ENDCHAR
STARTCHAR C021066
ENCODING 8758
SWIDTH 1800 0
DWIDTH 18 0
BBX 16 17 2 -4
BITMAP
7860
FC60
CCC0
CD80
CD80
CF00
FE00
7E00
0FB8
1EEC
1EEC
36EC
66EC
66EC
C3B8
0000
002D
ENDCHAR
STARTCHAR C021067
ENCODING 8759
SWIDTH 1800 0
DWIDTH 18 0
BBX 10 14 4 -2
BITMAP
00C0
01C0
03C0
0EC0
18C0
30C0
E0C0
E0C0
70C0
18C0
0EC0
03C0
01C0
00C0
ENDCHAR
STARTCHAR C021070
ENCODING 8760
SWIDTH 1800 0
DWIDTH 18 0
BBX 10 12 4 -1
BITMAP
01C0
03C0
07C0
1FC0
3FC0
7FC0
FFC0
3FC0
1FC0
07C0
03C0
01C0
ENDCHAR
STARTCHAR C021071
ENCODING 8761
SWIDTH 1800 0
DWIDTH 18 0
BBX 10 14 4 -2
BITMAP
C000
E000
F000
DC00
CE00
C380
C1C0
C0C0
C380
C600
DC00
F000
E000
C000
ENDCHAR
STARTCHAR C021072
ENCODING 8762
SWIDTH 1800 0
DWIDTH 18 0
BBX 10 14 4 -2
BITMAP
C000
E000
F000
FC00
FE00
FF00
FFC0
FFC0
FF80
FE00
FC00
F800
E000
C000
ENDCHAR
STARTCHAR C021073
ENCODING 8763
SWIDTH 1800 0
DWIDTH 18 0
BBX 12 15 3 -3
BITMAP
0600
0F00
0F00
1980
30C0
30C0
6060
E030
C030
C030
CF30
7FE0
0F00
0F00
0F00
ENDCHAR
STARTCHAR C021074
ENCODING 8764
SWIDTH 1800 0
DWIDTH 18 0
BBX 12 15 3 -3
BITMAP
0600
0700
0F80
1F80
3FC0
3FE0
7FE0
7FF0
FFF0
FFF0
FFF0
7FF0
0700
0F00
0F80
ENDCHAR
STARTCHAR C021075
ENCODING 8765
SWIDTH 1800 0
DWIDTH 18 0
BBX 12 14 3 -2
BITMAP
79E0
6F60
CF30
C630
C030
C030
E070
6060
70E0
30C0
1980
1F80
0F00
0600
ENDCHAR
STARTCHAR C021076
ENCODING 8766
SWIDTH 1800 0
DWIDTH 18 0
BBX 13 15 3 -3
BITMAP
79E0
FFF0
FFF8
FFF8
FFF8
FFF8
FFF0
7FF0
7FE0
3FE0
3FC0
1FC0
0F80
0F00
0600
ENDCHAR
STARTCHAR C021077
ENCODING 8767
SWIDTH 1800 0
DWIDTH 18 0
BBX 15 15 2 -3
BITMAP
07C0
0EE0
0C60
0C60
0C60
06C0
3FFC
6606
C006
C006
C1CE
6FFC
3F80
06C0
07C0
ENDCHAR
STARTCHAR C021100
ENCODING 8768
SWIDTH 1800 0
DWIDTH 18 0
BBX 14 15 2 -3
BITMAP
0780
0FC0
0FE0
0FE0
0FE0
3FF0
7FFC
FFFC
FFFC
FFFC
7FFC
7FF8
0380
0780
0780
ENDCHAR
STARTCHAR C021101
ENCODING 8769
SWIDTH 1800 0
DWIDTH 18 0
BBX 14 14 2 -2
BITMAP
0FC0
3870
7038
6FF8
DFEC
DFFC
DFFC
DFFC
DFFC
DFFC
6FF8
77B8
3870
0FC0
ENDCHAR
STARTCHAR C021102
ENCODING 8770
SWIDTH 1800 0
DWIDTH 18 0
BBX 14 17 2 -4
BITMAP
0300
0780
0EC0
0F60
1FB0
3FF8
7FF8
FFFC
FFFC
7FF8
3FD8
1FB0
0FE0
0CC0
0780
0300
0940
ENDCHAR
STARTCHAR C021103
ENCODING 8771
SWIDTH 1800 0
DWIDTH 18 0
BBX 15 16 3 -4
BITMAP
FFF8
C018
C018
C018
FFD8
FFD8
FFD8
FFD8
FFD8
FFD8
FFD8
C018
C018
FFF8
0000
0002
ENDCHAR
STARTCHAR C021104
ENCODING 8772
SWIDTH 1800 0
DWIDTH 18 0
BBX 14 16 2 -4
BITMAP
0FC0
3E70
3E38
7E18
7E0C
FE0C
FE0C
FE0C
FE0C
7E0C
7E18
3E38
1E70
0FC0
0000
6000
ENDCHAR
STARTCHAR C021105
ENCODING 8773
SWIDTH 1800 0
DWIDTH 18 0
BBX 17 16 2 -4
BITMAP
0FC000
39F000
71F000
61F800
C1F800
C1FC00
C1FC00
C1FC00
C1FC00
C1F800
61F800
61F000
39F000
0FC000
000000
001680
ENDCHAR
STARTCHAR C021106
ENCODING 8774
SWIDTH 1800 0
DWIDTH 18 0
BBX 14 14 2 -2
BITMAP
FFFC
F1EC
F8FC
C00C
F1EC
F8FC
F1EC
F8FC
F1EC
C00C
F8FC
F1EC
C00C
FFFC
ENDCHAR
STARTCHAR C021107
ENCODING 8775
SWIDTH 1800 0
DWIDTH 18 0
BBX 13 14 3 -2
BITMAP
FFF8
C018
C018
FFF8
C018
C018
C018
FFF8
C018
C018
FFF8
C018
C018
FFF8
ENDCHAR
STARTCHAR C021110
ENCODING 8776
SWIDTH 1800 0
DWIDTH 18 0
BBX 13 14 3 -2
BITMAP
FFF8
F6D8
F6D8
F6D8
F6D8
F6D8
F6D8
F6D8
F6D8
F6D8
F6D8
F6D8
F6D8
FFF8
ENDCHAR
STARTCHAR C021111
ENCODING 8777
SWIDTH 1800 0
DWIDTH 18 0
BBX 13 14 3 -2
BITMAP
FFF8
C618
CC78
D8D8
F198
F318
E618
C638
CC78
D8D8
F198
E318
C618
FFF8
ENDCHAR
STARTCHAR C021112
ENCODING 8778
SWIDTH 1800 0
DWIDTH 18 0
BBX 13 14 3 -2
BITMAP
FFF8
C318
6198
3198
18D8
0C78
0638
C618
6318
3198
18D8
0C78
0C38
FFF8
ENDCHAR
STARTCHAR C021113
ENCODING 8779
SWIDTH 1800 0
DWIDTH 18 0
BBX 13 14 3 -2
BITMAP
FFF8
F6D8
F6D8
FFF8
F6D8
F6D8
F6D8
FFF8
F6D8
F6D8
FFF8
F6D8
F6D8
FFF8
ENDCHAR
STARTCHAR C021114
ENCODING 8780
SWIDTH 1800 0
DWIDTH 18 0
BBX 13 14 3 -2
BITMAP
FFF8
C738
EF78
F9D8
D8D8
FDF8
C738
C718
EF78
F9D8
D8D8
FDF8
C738
FFF8
ENDCHAR
STARTCHAR C021115
ENCODING 8781
SWIDTH 1800 0
DWIDTH 18 0
BBX 14 13 2 -2
BITMAP
0180
0FC0
0FC0
0FC0
0F60
0DE0
07E0
67F8
CDEC
CFCC
CFDC
7078
1FE0
ENDCHAR
STARTCHAR C021116
ENCODING 8782
SWIDTH 1800 0
DWIDTH 18 0
BBX 15 11 2 -1
BITMAP
1FF0
7FFC
FCF6
FFE6
FFFE
1870
3878
7878
786C
6FCC
7FFC
ENDCHAR
STARTCHAR C021117
ENCODING 8783
SWIDTH 1800 0
DWIDTH 18 0
BBX 15 11 2 -1
BITMAP
1FF0
7FF8
FCFC
FFFE
FC7C
1860
3830
7838
7878
7C78
7FF8
ENDCHAR
STARTCHAR C021120
ENCODING 8784
SWIDTH 1800 0
DWIDTH 18 0
BBX 15 8 2 1
BITMAP
03E0
FFFE
071E
FFCE
1FCE
0F8E
07F8
00C0
ENDCHAR
STARTCHAR C021121
ENCODING 8785
SWIDTH 1800 0
DWIDTH 18 0
BBX 16 13 2 -4
BITMAP
0FC0
FF7F
7186
67FC
6FF0
63E0
FBC0
0E00
0000
0000
0000
0000
0940
ENDCHAR
STARTCHAR C021122
ENCODING 8786
SWIDTH 1800 0
DWIDTH 18 0
BBX 15 16 4 -4
BITMAP
3F80
E780
C780
C780
C780
6780
3F80
0780
0780
0780
0780
0780
0780
0780
0780
0002
ENDCHAR
STARTCHAR C021123
ENCODING 8787
SWIDTH 1800 0
DWIDTH 18 0
BBX 10 17 4 -4
BITMAP
0C00
0C00
0C00
0C00
FFC0
0C00
0C00
0C00
0C00
0C00
0C00
0C00
0C00
0C00
0C00
0C00
6000
ENDCHAR
STARTCHAR C021124
ENCODING 8788
SWIDTH 1800 0
DWIDTH 18 0
BBX 15 17 4 -4
BITMAP
0C00
0C00
0C00
FFC0
0C00
7F80
7F80
0C00
0C00
0C00
0C00
0C00
0C00
0C00
0C00
0C00
0016
ENDCHAR
STARTCHAR C021125
ENCODING 8789
SWIDTH 1800 0
DWIDTH 18 0
BBX 5 13 7 -2
BITMAP
70
F8
60
60
60
60
60
60
60
60
F8
70
60
ENDCHAR
STARTCHAR C021126
ENCODING 8790
SWIDTH 1800 0
DWIDTH 18 0
BBX 11 10 3 -1
BITMAP
01E0
00E0
01E0
0360
0600
0C00
1800
3000
6000
E000
ENDCHAR
STARTCHAR C021127
ENCODING 8791
SWIDTH 1800 0
DWIDTH 18 0
BBX 11 11 4 0
BITMAP
0060
00E0
01C0
0380
0700
0600
0C00
D800
F000
E000
F800
ENDCHAR
STARTCHAR C021130
ENCODING 8792
SWIDTH 1800 0
DWIDTH 18 0
BBX 11 11 4 -1
BITMAP
F800
7000
7800
1C00
0C00
0600
0300
0180
00C0
0060
0060
ENDCHAR
STARTCHAR C021131
ENCODING 8793
SWIDTH 1800 0
DWIDTH 18 0
BBX 11 11 4 -1
BITMAP
C000
6000
3000
1800
0C00
0E00
0700
03C0
01E0
00E0
03E0
ENDCHAR
STARTCHAR C021132
ENCODING 8794
SWIDTH 1800 0
DWIDTH 18 0
BBX 7 12 6 -1
BITMAP
C0
C0
C0
C0
FC
E6
C6
C6
CE
CC
F8
E0
ENDCHAR
STARTCHAR C021133
ENCODING 8795
SWIDTH 1800 0
DWIDTH 18 0
BBX 4 14 7 -2
BITMAP
30
30
30
30
30
30
30
30
30
30
30
70
F0
E0
ENDCHAR
STARTCHAR C021134
ENCODING 8796
SWIDTH 1800 0
DWIDTH 18 0
BBX 9 13 4 -2
BITMAP
1800
1C00
1F00
1B00
1980
1980
1980
1B00
1800
1800
3800
7000
E000
ENDCHAR
STARTCHAR C021135
ENCODING 8797
SWIDTH 1800 0
DWIDTH 18 0
BBX 12 13 3 -2
BITMAP
1FF0
1830
1830
1FF0
1830
1830
1830
1830
1830
1830
78F0
F1E0
F1C0
ENDCHAR
STARTCHAR C021136
ENCODING 8798
SWIDTH 1800 0
DWIDTH 18 0
BBX 13 14 3 -2
BITMAP
0FC0
3860
7030
7998
DB18
DE00
DE00
FFF8
1B18
D998
D9B0
60F0
30E0
1FC0
ENDCHAR
STARTCHAR C021137
ENCODING 8799
SWIDTH 1800 0
DWIDTH 18 0
BBX 15 15 2 -3
BITMAP
1830
3FF8
638C
67CC
DEF6
F836
C006
FFFE
C306
C306
630C
630C
3318
3330
1800
ENDCHAR
STARTCHAR C021140
ENCODING 8800
SWIDTH 1800 0
DWIDTH 18 0
BBX 15 16 2 -4
BITMAP
C600
C600
E600
E600
F670
F6D8
F78C
DF8C
DF8C
CF8C
CF8C
C6DE
C6F6
0000
0000
0940
ENDCHAR
STARTCHAR C021141
ENCODING 8801
SWIDTH 1800 0
DWIDTH 18 0
BBX 17 16 1 -4
BITMAP
3C0000
660000
E30000
C30000
C07800
C06C00
C0C600
C0C600
C3C600
C3C600
63C600
666C00
3C3980
000000
000000
000200
ENDCHAR
STARTCHAR C021142
ENCODING 8802
SWIDTH 1800 0
DWIDTH 18 0
BBX 14 16 2 -4
BITMAP
FD8C
3D8C
318C
31DC
31DC
31DC
31FC
31FC
31FC
31FC
31FC
31FC
31FC
0000
0000
6000
ENDCHAR
STARTCHAR C021143
ENCODING 8803
SWIDTH 1800 0
DWIDTH 18 0
BBX 17 12 1 -4
BITMAP
78C000
FCFE00
CCF600
1CF600
7CF600
CCF600
CCF600
DCF600
7FF780
000000
000000
001680
ENDCHAR
STARTCHAR C021144
ENCODING 8804
SWIDTH 1800 0
DWIDTH 18 0
BBX 17 11 1 -3
BITMAP
FCFC00
ECFE00
C6F600
C6F600
C6F600
C6F600
C6F600
ECF600
FFF780
C00000
C00000
ENDCHAR
STARTCHAR C021145
ENCODING 8805
SWIDTH 1800 0
DWIDTH 18 0
BBX 14 13 2 -1
BITMAP
FF0C
180C
180C
180C
19CC
1B6C
1E3C
1E3C
1FFC
1E0C
1E3C
1B7C
1BEC
ENDCHAR
STARTCHAR C021146
ENCODING 8806
SWIDTH 1800 0
DWIDTH 18 0
BBX 0 0 0 0
BITMAP
ENDCHAR
STARTCHAR C021147
ENCODING 8807
SWIDTH 1800 0
DWIDTH 18 0
BBX 0 0 0 0
BITMAP
ENDCHAR
STARTCHAR C021150
ENCODING 8808
SWIDTH 1800 0
DWIDTH 18 0
BBX 0 0 0 0
BITMAP
ENDCHAR
STARTCHAR C021151
ENCODING 8809
SWIDTH 1800 0
DWIDTH 18 0
BBX 0 0 0 0
BITMAP
ENDCHAR
STARTCHAR C021152
ENCODING 8810
SWIDTH 1800 0
DWIDTH 18 0
BBX 0 0 0 0
BITMAP
ENDCHAR
STARTCHAR C021153
ENCODING 8811
SWIDTH 1800 0
DWIDTH 18 0
BBX 0 0 0 0
BITMAP
ENDCHAR
STARTCHAR C021154
ENCODING 8812
SWIDTH 1800 0
DWIDTH 18 0
BBX 0 0 0 0
BITMAP
ENDCHAR
STARTCHAR C021155
ENCODING 8813
SWIDTH 1800 0
DWIDTH 18 0
BBX 0 0 0 0
BITMAP
ENDCHAR
STARTCHAR C021156
ENCODING 8814
SWIDTH 1800 0
DWIDTH 18 0
BBX 1 14 18 -3
BITMAP
80
00
00
80
00
80
80
00
00
00
00
00
80
80
ENDCHAR
STARTCHAR C021157
ENCODING 8815
SWIDTH 1800 0
DWIDTH 18 0
BBX 6 1 4 -4
BITMAP
94
ENDCHAR
STARTCHAR C021160
ENCODING 8816
SWIDTH 1800 0
DWIDTH 18 0
BBX 1 1 14 -4
BITMAP
80
ENDCHAR
STARTCHAR C021161
ENCODING 8817
SWIDTH 1800 0
DWIDTH 18 0
BBX 2 1 1 -4
BITMAP
C0
ENDCHAR
STARTCHAR C021162
ENCODING 8818
SWIDTH 1800 0
DWIDTH 18 0
BBX 6 1 11 -4
BITMAP
B4
ENDCHAR
STARTCHAR C021163
ENCODING 8819
SWIDTH 1800 0
DWIDTH 18 0
BBX 1 2 18 9
BITMAP
80
80
ENDCHAR
STARTCHAR C021164
ENCODING 8820
SWIDTH 1800 0
DWIDTH 18 0
BBX 0 0 0 0
BITMAP
ENDCHAR
STARTCHAR C021165
ENCODING 8821
SWIDTH 1800 0
DWIDTH 18 0
BBX 0 0 0 0
BITMAP
ENDCHAR
STARTCHAR C021166
ENCODING 8822
SWIDTH 1800 0
DWIDTH 18 0
BBX 0 0 0 0
BITMAP
ENDCHAR
STARTCHAR C021167
ENCODING 8823
SWIDTH 1800 0
DWIDTH 18 0
BBX 0 0 0 0
BITMAP
ENDCHAR
STARTCHAR C021170
ENCODING 8824
SWIDTH 1800 0
DWIDTH 18 0
BBX 0 0 0 0
BITMAP
ENDCHAR
STARTCHAR C021171
ENCODING 8825
SWIDTH 1800 0
DWIDTH 18 0
BBX 0 0 0 0
BITMAP
ENDCHAR
STARTCHAR C021172
ENCODING 8826
SWIDTH 1800 0
DWIDTH 18 0
BBX 0 0 0 0
BITMAP
ENDCHAR
STARTCHAR C021173
ENCODING 8827
SWIDTH 1800 0
DWIDTH 18 0
BBX 0 0 0 0
BITMAP
ENDCHAR
STARTCHAR C021174
ENCODING 8828
SWIDTH 1800 0
DWIDTH 18 0
BBX 0 0 0 0
BITMAP
ENDCHAR
STARTCHAR C021175
ENCODING 8829
SWIDTH 1800 0
DWIDTH 18 0
BBX 1 14 18 -3
BITMAP
80
00
00
80
00
80
80
00
00
00
00
00
80
80
ENDCHAR
STARTCHAR C021176
ENCODING 8830
SWIDTH 1800 0
DWIDTH 18 0
BBX 6 1 4 -4
BITMAP
94
ENDCHAR
STARTCHAR C021177
ENCODING 8831
SWIDTH 1800 0
DWIDTH 18 0
BBX 1 1 14 -4
BITMAP
80
ENDCHAR
STARTCHAR C021440
ENCODING 8992
SWIDTH 1800 0
DWIDTH 18 0
BBX 18 4 1 -4
BITMAP
000040
000040
000000
C00000
ENDCHAR
STARTCHAR C021441
ENCODING 8993
SWIDTH 1800 0
DWIDTH 18 0
BBX 3 14 8 -2
BITMAP
60
60
60
60
60
60
60
60
60
60
60
00
C0
C0
ENDCHAR
STARTCHAR C021442
ENCODING 8994
SWIDTH 1800 0
DWIDTH 18 0
BBX 7 6 6 7
BITMAP
36
36
6C
78
F0
30
ENDCHAR
STARTCHAR C021443
ENCODING 8995
SWIDTH 1800 0
DWIDTH 18 0
BBX 13 14 3 -2
BITMAP
0C60
0C60
0C60
0CC0
7FF8
18C0
18C0
18C0
1980
1980
FFF0
3180
3180
3180
ENDCHAR
STARTCHAR C021444
ENCODING 8996
SWIDTH 1800 0
DWIDTH 18 0
BBX 12 15 4 -2
BITMAP
0300
1B00
7FC0
DB60
DB60
DB00
7B00
1F80
1BE0
1B30
1B30
DB30
FB60
3FC0
1B00
ENDCHAR
STARTCHAR C021445
ENCODING 8997
SWIDTH 1800 0
DWIDTH 18 0
BBX 15 14 2 -2
BITMAP
3E00
670C
C318
C330
C360
66C0
3F80
07FC
0F86
1D86
3986
7186
E0CC
0078
ENDCHAR
STARTCHAR C021446
ENCODING 8998
SWIDTH 1800 0
DWIDTH 18 0
BBX 11 13 4 -1
BITMAP
0E00
1B80
1980
3180
1B00
1E00
1C00
7600
6360
C3C0
61C0
63C0
3E60
ENDCHAR
STARTCHAR C021447
ENCODING 8999
SWIDTH 1800 0
DWIDTH 18 0
BBX 3 4 8 9
BITMAP
E0
60
60
C0
ENDCHAR
STARTCHAR C021450
ENCODING 9000
SWIDTH 1800 0
DWIDTH 18 0
BBX 6 16 6 -3
BITMAP
1C
38
30
60
60
C0
C0
C0
C0
C0
C0
60
60
30
38
1C
ENDCHAR
STARTCHAR C021451
ENCODING 9001
SWIDTH 1800 0
DWIDTH 18 0
BBX 6 16 6 -3
BITMAP
C0
60
30
18
18
0C
0C
0C
0C
0C
0C
18
18
30
70
E0
ENDCHAR
STARTCHAR C021452
ENCODING 9002
SWIDTH 1800 0
DWIDTH 18 0
BBX 11 9 4 0
BITMAP
3B80
1B00
1E00
FFE0
FFE0
0E00
1B00
3B80
1B00
ENDCHAR
STARTCHAR C021453
ENCODING 9003
SWIDTH 1800 0
DWIDTH 18 0
BBX 13 14 3 -2
BITMAP
0600
0600
0600
0600
0600
0600
0600
FFF8
0600
0600
0600
0600
0600
0600
ENDCHAR
STARTCHAR C021454
ENCODING 9004
SWIDTH 1800 0
DWIDTH 18 0
BBX 4 5 7 -3
BITMAP
70
F0
70
30
60
ENDCHAR
STARTCHAR C021455
ENCODING 9005
SWIDTH 1800 0
DWIDTH 18 0
BBX 14 9 3 -4
BITMAP
FFFC
0000
0000
0000
0000
0000
0000
0000
0940
ENDCHAR
STARTCHAR C021456
ENCODING 9006
SWIDTH 1800 0
DWIDTH 18 0
BBX 3 2 8 -2
BITMAP
E0
E0
ENDCHAR
STARTCHAR C021457
ENCODING 9007
SWIDTH 1800 0
DWIDTH 18 0
BBX 7 16 6 -4
BITMAP
06
06
06
0C
0C
18
18
18
30
30
60
60
60
C0
C0
60
ENDCHAR
STARTCHAR C021460
ENCODING 9008
SWIDTH 1800 0
DWIDTH 18 0
BBX 14 16 5 -4
BITMAP
3F00
7380
6180
C0C0
C0C0
C0C0
C0C0
C0C0
C0C0
C0C0
6180
7380
3E00
0000
0000
002C
ENDCHAR
STARTCHAR C021461
ENCODING 9009
SWIDTH 1800 0
DWIDTH 18 0
BBX 6 13 5 -1
BITMAP
0C
1C
3C
7C
EC
0C
0C
0C
0C
0C
0C
0C
0C
ENDCHAR
STARTCHAR C021462
ENCODING 9010
SWIDTH 1800 0
DWIDTH 18 0
BBX 9 13 4 -1
BITMAP
3F00
6380
C180
C180
0180
0380
0700
1C00
3800
6000
E000
C000
FF80
ENDCHAR
STARTCHAR C021463
ENCODING 9011
SWIDTH 1800 0
DWIDTH 18 0
BBX 10 13 4 -1
BITMAP
3F00
7180
61C0
00C0
0180
0300
1F80
01C0
00C0
C0C0
E0C0
71C0
3F00
ENDCHAR
STARTCHAR C021464
ENCODING 9012
SWIDTH 1800 0
DWIDTH 18 0
BBX 11 12 4 -1
BITMAP
0380
0780
0780
0D80
1980
3980
3180
6180
C180
FFE0
0180
0180
ENDCHAR
STARTCHAR C021465
ENCODING 9013
SWIDTH 1800 0
DWIDTH 18 0
BBX 9 12 5 -1
BITMAP
FF80
C000
C000
C000
FE00
E380
0180
0180
C180
C180
E380
3E00
ENDCHAR
STARTCHAR C021466
ENCODING 9014
SWIDTH 1800 0
DWIDTH 18 0
BBX 10 13 5 -1
BITMAP
1F00
3180
61C0
E000
C000
FE00
E300
C180
C180
C180
C180
6300
3E00
ENDCHAR
STARTCHAR C021467
ENCODING 9015
SWIDTH 1800 0
DWIDTH 18 0
BBX 10 12 5 -1
BITMAP
FFC0
0180
0180
0300
0300
0600
0E00
0C00
1800
1800
3000
7000
ENDCHAR
STARTCHAR C021470
ENCODING 9016
SWIDTH 1800 0
DWIDTH 18 0
BBX 10 13 5 -1
BITMAP
3E00
6380
C180
C180
C180
6300
7F00
E380
C180
C1C0
C180
E380
3E00
ENDCHAR
STARTCHAR C021471
ENCODING 9017
SWIDTH 1800 0
DWIDTH 18 0
BBX 10 13 5 -1
BITMAP
3F00
6380
C180
C1C0
C0C0
C1C0
C1C0
63C0
3EC0
C180
E180
6380
3E00
ENDCHAR
STARTCHAR C021472
ENCODING 9018
SWIDTH 1800 0
DWIDTH 18 0
BBX 2 11 8 -1
BITMAP
C0
C0
00
00
00
00
00
00
00
C0
C0
ENDCHAR
STARTCHAR C021473
ENCODING 9019
SWIDTH 1800 0
DWIDTH 18 0
BBX 3 12 8 -2
BITMAP
C0
C0
00
00
00
00
00
00
00
E0
60
60
ENDCHAR
STARTCHAR C021474
ENCODING 9020
SWIDTH 1800 0
DWIDTH 18 0
BBX 13 16 3 -4
BITMAP
0018
0070
01C0
0700
1C00
7000
C000
C000
7000
1C00
0700
03C0
00E0
0038
0000
1280
ENDCHAR
STARTCHAR C021475
ENCODING 9021
SWIDTH 1800 0
DWIDTH 18 0
BBX 15 11 3 -4
BITMAP
FFFC
0000
0000
0000
FFFC
0000
0000
0000
0000
0000
0002
ENDCHAR
STARTCHAR C021476
ENCODING 9022
SWIDTH 1800 0
DWIDTH 18 0
BBX 13 16 3 -4
BITMAP
E000
3800
0E00
0380
01E0
0078
0018
0038
00E0
0380
0F00
3C00
7000
C000
0000
6000
ENDCHAR
STARTCHAR C021477
ENCODING 9023
SWIDTH 1800 0
DWIDTH 18 0
BBX 14 16 4 -4
BITMAP
3F80
E0C0
C060
C060
C060
E0E0
71C0
0F00
0C00
0C00
0C00
0C00
0000
0C00
0000
002C
ENDCHAR
STARTCHAR C021500
ENCODING 9024
SWIDTH 1800 0
DWIDTH 18 0
BBX 15 14 2 -2
BITMAP
0FE0
1838
700C
600E
C7E6
CC66
CC66
CC66
CC66
EE66
67FC
7000
1800
0FF0
ENDCHAR
STARTCHAR C021501
ENCODING 9025
SWIDTH 1800 0
DWIDTH 18 0
BBX 13 13 3 -1
BITMAP
0700
0700
0D80
0D80
1980
18C0
18C0
3060
3060
3FE0
6030
6030
C018
ENDCHAR
STARTCHAR C021502
ENCODING 9026
SWIDTH 1800 0
DWIDTH 18 0
BBX 12 13 4 -1
BITMAP
FFC0
C0E0
C060
C060
C0E0
FFC0
C0C0
C060
C060
C070
C060
C0E0
FFC0
ENDCHAR
STARTCHAR C021503
ENCODING 9027
SWIDTH 1800 0
DWIDTH 18 0
BBX 12 13 4 -1
BITMAP
1F80
30E0
6060
6070
C030
C000
C000
C000
C030
E030
6060
38E0
1F80
ENDCHAR
STARTCHAR C021504
ENCODING 9028
SWIDTH 1800 0
DWIDTH 18 0
BBX 12 13 4 -1
BITMAP
FF80
C0C0
C060
C070
C030
C030
C030
C030
C030
C030
C060
C0C0
FF80
ENDCHAR
STARTCHAR C021505
ENCODING 9029
SWIDTH 1800 0
DWIDTH 18 0
BBX 10 13 5 -1
BITMAP
FFC0
C000
C000
C000
C000
C000
FFC0
C000
C000
C000
C000
C000
FFC0
ENDCHAR
STARTCHAR C021506
ENCODING 9030
SWIDTH 1800 0
DWIDTH 18 0
BBX 10 14 5 -2
BITMAP
FFC0
C000
C000
C000
C000
C000
FFC0
C000
C000
C000
C000
C000
C000
C000
ENDCHAR
STARTCHAR C021507
ENCODING 9031
SWIDTH 1800 0
DWIDTH 18 0
BBX 13 14 3 -2
BITMAP
1F80
38C0
6060
6070
C000
C000
C1F8
C018
C018
C018
6030
6030
38E0
0FC0
ENDCHAR
STARTCHAR C021510
ENCODING 9032
SWIDTH 1800 0
DWIDTH 18 0
BBX 11 14 4 -2
BITMAP
C060
C060
C060
C060
C060
C060
FFE0
C060
C060
C060
C060
C060
C060
C060
ENDCHAR
STARTCHAR C021511
ENCODING 9033
SWIDTH 1800 0
DWIDTH 18 0
BBX 2 14 9 -2
BITMAP
C0
C0
C0
C0
C0
C0
C0
C0
C0
C0
C0
C0
C0
C0
ENDCHAR
STARTCHAR C021512
ENCODING 9034
SWIDTH 1800 0
DWIDTH 18 0
BBX 10 13 4 -1
BITMAP
00C0
00C0
00C0
00C0
00C0
00C0
00C0
C0C0
C0C0
C0C0
61C0
7380
1F00
ENDCHAR
STARTCHAR C021513
ENCODING 9035
SWIDTH 1800 0
DWIDTH 18 0
BBX 10 16 5 -4
BITMAP
C1C0
C380
C700
CC00
D800
F000
F000
F800
DC00
CE00
C300
C180
C0C0
0000
0000
0940
ENDCHAR
STARTCHAR C021514
ENCODING 9036
SWIDTH 1800 0
DWIDTH 18 0
BBX 11 13 5 -1
BITMAP
C000
C000
C000
C000
C000
C000
C000
C000
C000
C000
C000
C000
FFE0
ENDCHAR
STARTCHAR C021515
ENCODING 9037
SWIDTH 1800 0
DWIDTH 18 0
BBX 14 16 3 -4
BITMAP
E01C
E01C
F03C
F03C
F07C
D86C
D8EC
CCCC
CCCC
CF8C
C78C
C70C
C30C
0000
0000
6000
ENDCHAR
STARTCHAR C021516
ENCODING 9038
SWIDTH 1800 0
DWIDTH 18 0
BBX 15 17 4 -4
BITMAP
C060
E060
F060
F060
D860
DC60
CC60
CE60
C660
C360
C3E0
C1E0
C0E0
C0E0
0000
0000
0016
ENDCHAR
STARTCHAR C021517
ENCODING 9039
SWIDTH 1800 0
DWIDTH 18 0
BBX 12 14 4 -2
BITMAP
1F80
31C0
6060
6060
C030
C030
C030
C030
C030
C030
6060
6060
30C0
1F80
ENDCHAR
STARTCHAR C021520
ENCODING 9040
SWIDTH 1800 0
DWIDTH 18 0
BBX 12 13 4 -1
BITMAP
FFC0
C060
C030
C030
C030
C060
FFC0
C000
C000
C000
C000
C000
C000
ENDCHAR
STARTCHAR C021521
ENCODING 9041
SWIDTH 1800 0
DWIDTH 18 0
BBX 12 16 3 -4
BITMAP
1F80
70C0
6060
C030
C030
C030
C030
C030
C030
E070
6060
31C0
1F80
7380
01C0
0070
ENDCHAR
STARTCHAR C021522
ENCODING 9042
SWIDTH 1800 0
DWIDTH 18 0
BBX 11 13 4 -1
BITMAP
FFC0
C0E0
C060
C060
C060
C0C0
FF80
C1C0
C0C0
C0C0
C0C0
C060
C060
ENDCHAR
STARTCHAR C021523
ENCODING 9043
SWIDTH 1800 0
DWIDTH 18 0
BBX 11 14 4 -2
BITMAP
3F00
6180
C0C0
C0C0
C000
7000
1E00
03C0
00E0
C060
C060
6060
70C0
1F80
ENDCHAR
STARTCHAR C021524
ENCODING 9044
SWIDTH 1800 0
DWIDTH 18 0
BBX 12 14 4 -2
BITMAP
FFF0
0600
0600
0600
0600
0600
0600
0600
0600
0600
0600
0600
0600
0600
ENDCHAR
STARTCHAR C021525
ENCODING 9045
SWIDTH 1800 0
DWIDTH 18 0
BBX 11 14 4 -1
BITMAP
0060
C060
C060
C060
C060
C060
C060
C060
C060
C060
C060
60C0
71C0
1F00
ENDCHAR
STARTCHAR C021526
ENCODING 9046
SWIDTH 1800 0
DWIDTH 18 0
BBX 12 16 4 -1
BITMAP
0070
0000
C060
C060
C0E0
60C0
60C0
60C0
3180
3180
3180
1B00
1B00
1B00
0E00
0E00
ENDCHAR
STARTCHAR C021527
ENCODING 9047
SWIDTH 1800 0
DWIDTH 18 0
BBX 15 14 2 -1
BITMAP
C186
C386
C386
C386
E3CE
66CC
66CC
66CC
366C
3C78
3C78
3C78
1C38
1830
ENDCHAR
STARTCHAR C021530
ENCODING 9048
SWIDTH 1800 0
DWIDTH 18 0
BBX 11 14 4 -2
BITMAP
C060
60C0
3180
3B80
1B00
0E00
0E00
0F00
1B00
3180
71C0
60C0
C060
C000
ENDCHAR
STARTCHAR C021531
ENCODING 9049
SWIDTH 1800 0
DWIDTH 18 0
BBX 11 14 4 -1
BITMAP
0060
C0C0
C1C0
6180
3300
3700
1E00
1C00
0C00
0C00
0C00
0C00
0C00
0C00
ENDCHAR
STARTCHAR C021532
ENCODING 9050
SWIDTH 1800 0
DWIDTH 18 0
BBX 11 16 4 -4
BITMAP
FFC0
00C0
0180
0380
0700
0600
0C00
1800
3800
3000
6000
C000
FFE0
0000
0000
0940
ENDCHAR
STARTCHAR C021533
ENCODING 9051
SWIDTH 1800 0
DWIDTH 18 0
BBX 7 16 6 -3
BITMAP
FE
C0
C0
C0
C0
C0
C0
C0
C0
C0
C0
C0
C0
C0
C0
7E
ENDCHAR
STARTCHAR C021534
ENCODING 9052
SWIDTH 1800 0
DWIDTH 18 0
BBX 17 15 1 -4
BITMAP
71C300
31C700
31C600
336600
FFFF80
336600
1B6C00
FFFF00
1E3C00
1E3C00
1E3C00
0E3800
000000
000000
600000
ENDCHAR
STARTCHAR C021535
ENCODING 9053
SWIDTH 1800 0
DWIDTH 18 0
BBX 14 17 5 -4
BITMAP
FE00
0600
0600
0600
0600
0600
0600
0600
0600
0600
0600
0600
0600
0600
0600
FE00
0014
ENDCHAR
STARTCHAR C021536
ENCODING 9054
SWIDTH 1800 0
DWIDTH 18 0
BBX 7 2 6 10
BITMAP
7C
C6
ENDCHAR
STARTCHAR C021537
ENCODING 9055
SWIDTH 1800 0
DWIDTH 18 0
BBX 17 1 1 -3
BITMAP
FFFF80
ENDCHAR
STARTCHAR C021540
ENCODING 9056
SWIDTH 1800 0
DWIDTH 18 0
BBX 3 3 8 9
BITMAP
C0
C0
60
ENDCHAR
STARTCHAR C021541
ENCODING 9057
SWIDTH 1800 0
DWIDTH 18 0
BBX 9 9 5 -1
BITMAP
3F00
7380
6180
0780
7D80
C180
C180
6380
3F80
ENDCHAR
STARTCHAR C021542
ENCODING 9058
SWIDTH 1800 0
DWIDTH 18 0
BBX 9 12 5 -1
BITMAP
C000
C000
C000
FE00
E300
C180
C180
C180
C180
C180
E300
FE00
ENDCHAR
STARTCHAR C021543
ENCODING 9059
SWIDTH 1800 0
DWIDTH 18 0
BBX 9 9 5 -1
BITMAP
3E00
6300
E180
C000
C000
C000
E180
6300
3E00
ENDCHAR
STARTCHAR C021544
ENCODING 9060
SWIDTH 1800 0
DWIDTH 18 0
BBX 9 12 5 -1
BITMAP
0180
0180
0180
3F80
6380
C180
C180
C180
C180
C180
6380
3F80
ENDCHAR
STARTCHAR C021545
ENCODING 9061
SWIDTH 1800 0
DWIDTH 18 0
BBX 9 9 5 -1
BITMAP
3E00
6300
E180
C180
FF80
C000
C180
6300
3E00
ENDCHAR
STARTCHAR C021546
ENCODING 9062
SWIDTH 1800 0
DWIDTH 18 0
BBX 7 12 6 -1
BITMAP
1E
30
30
30
FE
30
30
30
30
30
30
30
ENDCHAR
STARTCHAR C021547
ENCODING 9063
SWIDTH 1800 0
DWIDTH 18 0
BBX 9 11 5 -3
BITMAP
3F80
6380
C180
C180
C180
C180
E180
6380
3F80
E300
7E00
ENDCHAR
STARTCHAR C021550
ENCODING 9064
SWIDTH 1800 0
DWIDTH 18 0
BBX 7 12 6 -1
BITMAP
C0
C0
C0
FC
EE
C6
C6
C6
C6
C6
C6
C6
ENDCHAR
STARTCHAR C021551
ENCODING 9065
SWIDTH 1800 0
DWIDTH 18 0
BBX 10 15 8 -4
BITMAP
C000
0000
C000
C000
C000
C000
C000
C000
C000
C000
C000
C000
0000
0000
0940
ENDCHAR
STARTCHAR C021552
ENCODING 9066
SWIDTH 1800 0
DWIDTH 18 0
BBX 6 14 5 -3
BITMAP
0C
00
0C
0C
0C
0C
0C
0C
0C
0C
0C
0C
0C
F8
ENDCHAR
STARTCHAR C021553
ENCODING 9067
SWIDTH 1800 0
DWIDTH 18 0
BBX 8 15 6 -4
BITMAP
C0
C0
C6
CE
DC
F0
E0
F0
D8
CC
C6
C3
00
00
60
ENDCHAR
STARTCHAR C021554
ENCODING 9068
SWIDTH 1800 0
DWIDTH 18 0
BBX 2 12 9 -1
BITMAP
C0
C0
C0
C0
C0
C0
C0
C0
C0
C0
C0
C0
ENDCHAR
STARTCHAR C021555
ENCODING 9069
SWIDTH 1800 0
DWIDTH 18 0
BBX 11 10 4 -1
BITMAP
F9C0
EFE0
C660
C660
C660
C660
C660
C660
C660
C660
ENDCHAR
STARTCHAR C021556
ENCODING 9070
SWIDTH 1800 0
DWIDTH 18 0
BBX 7 10 6 -1
BITMAP
D8
FC
C6
C6
C6
C6
C6
C6
C6
C6
ENDCHAR
STARTCHAR C021557
ENCODING 9071
SWIDTH 1800 0
DWIDTH 18 0
BBX 9 10 5 -1
BITMAP
3E00
6300
E380
C180
C180
C180
C180
E380
6300
3E00
ENDCHAR
STARTCHAR C021560
ENCODING 9072
SWIDTH 1800 0
DWIDTH 18 0
BBX 9 13 5 -4
BITMAP
C000
FE00
E300
C380
C180
C180
C180
C180
E300
FF00
DC00
C000
C000
ENDCHAR
STARTCHAR C021561
ENCODING 9073
SWIDTH 1800 0
DWIDTH 18 0
BBX 9 12 5 -4
BITMAP
3F80
6380
C180
C180
C180
C180
C180
6380
3F80
0180
0180
0180
ENDCHAR
STARTCHAR C021562
ENCODING 9074
SWIDTH 1800 0
DWIDTH 18 0
BBX 7 10 7 -1
BITMAP
F8
FE
C6
C0
C0
C0
C0
C0
C0
C0
ENDCHAR
STARTCHAR C021563
ENCODING 9075
SWIDTH 1800 0
DWIDTH 18 0
BBX 7 10 6 -1
BITMAP
7C
EE
C6
C0
F8
0E
06
C6
C6
7C
ENDCHAR
STARTCHAR C021564
ENCODING 9076
SWIDTH 1800 0
DWIDTH 18 0
BBX 8 12 6 -1
BITMAP
30
30
30
FE
30
30
30
30
30
30
33
1E
ENDCHAR
STARTCHAR C021565
ENCODING 9077
SWIDTH 1800 0
DWIDTH 18 0
BBX 8 16 5 -1
BITMAP
C0
00
00
00
00
00
C3
C3
C3
C3
C3
C3
C3
C3
E7
7F
ENDCHAR
STARTCHAR C021566
ENCODING 9078
SWIDTH 1800 0
DWIDTH 18 0
BBX 9 16 5 -1
BITMAP
0180
0000
0000
0000
0000
0000
C180
C180
C300
6300
6300
3600
3600
3C00
1C00
1C00
ENDCHAR
STARTCHAR C021567
ENCODING 9079
SWIDTH 1800 0
DWIDTH 18 0
BBX 13 10 3 -1
BITMAP
C018
C718
C718
6F30
6DB0
6DB0
6DE0
39E0
38E0
38C0
ENDCHAR
STARTCHAR C021570
ENCODING 9080
SWIDTH 1800 0
DWIDTH 18 0
BBX 10 12 5 -4
BITMAP
E380
6300
3600
1C00
1C00
1E00
3600
6300
C180
0000
0000
0940
ENDCHAR
STARTCHAR C021571
ENCODING 9081
SWIDTH 1800 0
DWIDTH 18 0
BBX 14 13 5 -4
BITMAP
C180
C300
6300
6300
3600
3600
3C00
1C00
1C00
1800
1800
F000
0004
ENDCHAR
STARTCHAR C021572
ENCODING 9082
SWIDTH 1800 0
DWIDTH 18 0
BBX 9 13 5 -4
BITMAP
FF00
0300
0600
0C00
1C00
1800
3000
6000
E000
FF80
0000
0000
6000
ENDCHAR
STARTCHAR C021573
ENCODING 9083
SWIDTH 1800 0
DWIDTH 18 0
BBX 11 17 8 -4
BITMAP
3800
6000
6000
6000
6000
6000
6000
E000
E000
6000
6000
6000
6000
6000
6000
3800
0020
ENDCHAR
STARTCHAR C021574
ENCODING 9084
SWIDTH 1800 0
DWIDTH 18 0
BBX 2 15 8 -3
BITMAP
C0
C0
C0
C0
C0
C0
C0
C0
C0
C0
C0
C0
C0
C0
C0
ENDCHAR
STARTCHAR C021575
ENCODING 9085
SWIDTH 1800 0
DWIDTH 18 0
BBX 5 16 6 -3
BITMAP
E0
30
30
30
30
30
30
38
38
30
30
30
30
30
30
E0
ENDCHAR
STARTCHAR C021576
ENCODING 9086
SWIDTH 1800 0
DWIDTH 18 0
BBX 10 1 5 4
BITMAP
FFC0
ENDCHAR
STARTCHAR C021577
ENCODING 9087
SWIDTH 1800 0
DWIDTH 18 0
BBX 0 0 0 0
BITMAP
ENDCHAR
STARTCHAR C022040
ENCODING 9248
SWIDTH 1800 0
DWIDTH 18 0
BBX 0 0 0 0
BITMAP
ENDCHAR
STARTCHAR C022041
ENCODING 9249
SWIDTH 1800 0
DWIDTH 18 0
BBX 11 9 4 -1
BITMAP
FFE0
0060
0060
0060
0060
0060
0060
0060
0060
ENDCHAR
STARTCHAR C022042
ENCODING 9250
SWIDTH 1800 0
DWIDTH 18 0
BBX 13 9 2 -1
BITMAP
FFF8
0618
0618
0618
0618
0618
0618
0618
0618
ENDCHAR
STARTCHAR C022043
ENCODING 9251
SWIDTH 1800 0
DWIDTH 18 0
BBX 14 9 2 -1
BITMAP
FE60
0660
0660
0660
0660
06F0
06F8
0798
078C
ENDCHAR
STARTCHAR C022044
ENCODING 9252
SWIDTH 1800 0
DWIDTH 18 0
BBX 12 9 4 -1
BITMAP
C000
C000
C000
C000
C000
C000
C000
C000
FFF0
ENDCHAR
STARTCHAR C022045
ENCODING 9253
SWIDTH 1800 0
DWIDTH 18 0
BBX 14 9 3 -1
BITMAP
C3FC
C060
C060
C060
C0F0
C0F0
C1F8
CF98
FB0C
ENDCHAR
STARTCHAR C022046
ENCODING 9254
SWIDTH 1800 0
DWIDTH 18 0
BBX 14 10 3 -2
BITMAP
C1F0
C000
C7FC
C000
C1F0
C398
C318
CF18
FB98
01F0
ENDCHAR
STARTCHAR C022047
ENCODING 9255
SWIDTH 1800 0
DWIDTH 18 0
BBX 11 9 4 -1
BITMAP
FFE0
C000
C000
C000
C000
C000
C000
C000
FFE0
ENDCHAR
STARTCHAR C022050
ENCODING 9256
SWIDTH 1800 0
DWIDTH 18 0
BBX 13 9 3 -1
BITMAP
FFF0
C300
C300
C300
C300
C300
C300
CF00
FBF8
ENDCHAR
STARTCHAR C022051
ENCODING 9257
SWIDTH 1800 0
DWIDTH 18 0
BBX 11 9 4 -1
BITMAP
FFC0
00C0
00C0
00C0
FFC0
C000
C000
C000
FFE0
ENDCHAR
STARTCHAR C022052
ENCODING 9258
SWIDTH 1800 0
DWIDTH 18 0
BBX 14 9 2 -1
BITMAP
FFFC
060C
060C
060C
7E0C
600C
600C
600C
7F0C
ENDCHAR
STARTCHAR C022053
ENCODING 9259
SWIDTH 1800 0
DWIDTH 18 0
BBX 14 9 2 -1
BITMAP
FEFC
06CC
06CC
06CC
7ECC
60CC
60CC
60CC
7FFC
ENDCHAR
STARTCHAR C022054
ENCODING 9260
SWIDTH 1800 0
DWIDTH 18 0
BBX 13 9 3 -1
BITMAP
FD98
0D98
0D98
0DF8
FD98
C198
C198
C198
FFF8
ENDCHAR
STARTCHAR C022055
ENCODING 9261
SWIDTH 1800 0
DWIDTH 18 0
BBX 13 9 3 -1
BITMAP
FCC0
0CC0
0CC0
0CC0
FCC0
C1E0
C1F0
C330
FF18
ENDCHAR
STARTCHAR C022056
ENCODING 9262
SWIDTH 1800 0
DWIDTH 18 0
BBX 15 9 2 -1
BITMAP
FEFC
06C0
06C0
06C0
7EFC
60C0
60C0
60C0
7FFE
ENDCHAR
STARTCHAR C022057
ENCODING 9263
SWIDTH 1800 0
DWIDTH 18 0
BBX 14 9 3 -1
BITMAP
FFF8
0C00
0D98
0D98
FDB0
C1B0
C1B0
C1B0
FFFC
ENDCHAR
STARTCHAR C022060
ENCODING 9264
SWIDTH 1800 0
DWIDTH 18 0
BBX 15 10 2 -2
BITMAP
FCF8
0C00
0FFE
0C00
7CF8
61CC
618C
618C
7FCC
00F8
ENDCHAR
STARTCHAR C022061
ENCODING 9265
SWIDTH 1800 0
DWIDTH 18 0
BBX 11 9 4 -1
BITMAP
FFE0
C060
C060
C060
C060
C060
C060
C060
FFE0
ENDCHAR
STARTCHAR C022062
ENCODING 9266
SWIDTH 1800 0
DWIDTH 18 0
BBX 11 9 4 -1
BITMAP
C060
C060
C060
C060
FFE0
C060
C060
C060
FFE0
ENDCHAR
STARTCHAR C022063
ENCODING 9267
SWIDTH 1800 0
DWIDTH 18 0
BBX 13 9 3 -1
BITMAP
CD98
CD98
CD98
CD98
FDF8
CD98
CD98
CD98
FDF8
ENDCHAR
STARTCHAR C022064
ENCODING 9268
SWIDTH 1800 0
DWIDTH 18 0
BBX 13 9 3 -1
BITMAP
CCC0
CCC0
CCC0
FCC0
CCC0
CDE0
CDF0
CF30
FF18
ENDCHAR
STARTCHAR C022065
ENCODING 9269
SWIDTH 1800 0
DWIDTH 18 0
BBX 12 9 3 -1
BITMAP
0600
0600
0600
0600
0F00
1F80
19C0
70E0
C030
ENDCHAR
STARTCHAR C022066
ENCODING 9270
SWIDTH 1800 0
DWIDTH 18 0
BBX 13 10 3 -2
BITMAP
18C0
18C0
18C0
18C0
18C0
3DE0
3DE0
67B0
C338
0618
ENDCHAR
STARTCHAR C022067
ENCODING 9271
SWIDTH 1800 0
DWIDTH 18 0
BBX 11 9 4 -1
BITMAP
3F80
61C0
C060
C060
C060
C060
C060
61C0
3F80
ENDCHAR
STARTCHAR C022070
ENCODING 9272
SWIDTH 1800 0
DWIDTH 18 0
BBX 12 9 3 -1
BITMAP
FFF0
0600
0700
0700
0F00
0D80
19C0
30E0
E030
ENDCHAR
STARTCHAR C022071
ENCODING 9273
SWIDTH 1800 0
DWIDTH 18 0
BBX 14 9 2 -1
BITMAP
7FFC
1860
1860
1860
3CF0
3CF0
36D8
6198
C30C
ENDCHAR
STARTCHAR C022072
ENCODING 9274
SWIDTH 1800 0
DWIDTH 18 0
BBX 12 9 3 -1
BITMAP
1FC0
0000
FFF0
0600
0700
0F00
1980
30E0
E030
ENDCHAR
STARTCHAR C022073
ENCODING 9275
SWIDTH 1800 0
DWIDTH 18 0
BBX 12 9 3 -1
BITMAP
FFF0
0030
0030
0030
FFB0
0030
0030
0030
0060
ENDCHAR
STARTCHAR C022074
ENCODING 9276
SWIDTH 1800 0
DWIDTH 18 0
BBX 11 9 4 -1
BITMAP
FFE0
C000
C000
C000
FFE0
C000
C000
C000
FFE0
ENDCHAR
STARTCHAR C022075
ENCODING 9277
SWIDTH 1800 0
DWIDTH 18 0
BBX 13 9 3 -1
BITMAP
7FF0
0000
18C0
18C0
18C0
18C0
18C0
18C0
FFF8
ENDCHAR
STARTCHAR C022076
ENCODING 9278
SWIDTH 1800 0
DWIDTH 18 0
BBX 13 11 3 -2
BITMAP
3FC0
0000
0000
FFF8
0000
0F80
38E0
3060
3060
38E0
0F80
ENDCHAR
STARTCHAR C022077
ENCODING 9279
SWIDTH 1800 0
DWIDTH 18 0
BBX 6 15 7 -4
BITMAP
C0
C0
C0
C0
C0
C0
C0
FC
C0
C0
C0
C0
C0
C0
C0
ENDCHAR
STARTCHAR C022100
ENCODING 9280
SWIDTH 1800 0
DWIDTH 18 0
BBX 6 15 6 -4
BITMAP
CC
CC
CC
CC
CC
CC
CC
FC
CC
CC
CC
CC
CC
CC
CC
ENDCHAR
STARTCHAR C022101
ENCODING 9281
SWIDTH 1800 0
DWIDTH 18 0
BBX 6 15 8 -4
BITMAP
C0
C0
C0
C0
FC
C0
C0
C0
C0
FC
C0
C0
C0
C0
C0
ENDCHAR
STARTCHAR C022102
ENCODING 9282
SWIDTH 1800 0
DWIDTH 18 0
BBX 6 15 6 -4
BITMAP
CC
CC
CC
CC
FC
CC
CC
CC
FC
CC
CC
CC
CC
CC
0C
ENDCHAR
STARTCHAR C022103
ENCODING 9283
SWIDTH 1800 0
DWIDTH 18 0
BBX 7 15 5 -4
BITMAP
06
06
06
06
06
06
FE
06
06
06
06
06
06
06
06
ENDCHAR
STARTCHAR C022104
ENCODING 9284
SWIDTH 1800 0
DWIDTH 18 0
BBX 9 14 4 -3
BITMAP
0D80
0D80
0D80
0D80
0D80
0D80
FD80
0D80
0D80
0D80
0D80
0D80
0D80
0D80
ENDCHAR
STARTCHAR C022105
ENCODING 9285
SWIDTH 1800 0
DWIDTH 18 0
BBX 7 15 5 -3
BITMAP
06
06
06
06
06
FE
06
06
06
06
FE
06
06
06
06
ENDCHAR
STARTCHAR C022106
ENCODING 9286
SWIDTH 1800 0
DWIDTH 18 0
BBX 9 14 4 -3
BITMAP
0D80
0D80
0D80
0D80
FD80
0D80
0D80
0D80
0D80
FD80
0D80
0D80
0D80
0D80
ENDCHAR
STARTCHAR C022107
ENCODING 9287
SWIDTH 1800 0
DWIDTH 18 0
BBX 15 8 2 0
BITMAP
0300
0300
0300
0300
0300
0300
0300
FFFE
ENDCHAR
STARTCHAR C022110
ENCODING 9288
SWIDTH 1800 0
DWIDTH 18 0
BBX 14 15 2 -3
BITMAP
0060
0060
0060
0060
0C60
0C60
0C60
0C60
0C7C
0C60
0C60
FFE0
F860
0060
0060
ENDCHAR
STARTCHAR C022111
ENCODING 9289
SWIDTH 1800 0
DWIDTH 18 0
BBX 13 15 2 -3
BITMAP
0018
00D8
00D8
00D8
18D8
18D8
18D8
18D8
18F8
18D8
FFD8
00D8
00D8
00D8
00D8
ENDCHAR
STARTCHAR C022112
ENCODING 9290
SWIDTH 1800 0
DWIDTH 18 0
BBX 12 15 3 -4
BITMAP
0030
0030
0030
0C30
0C30
0C30
0C30
0C30
0C30
0FF0
F830
0030
0030
0030
0030
ENDCHAR
STARTCHAR C022113
ENCODING 9291
SWIDTH 1800 0
DWIDTH 18 0
BBX 15 8 2 0
BITMAP
0C60
0C60
0C60
0C60
0C60
0C60
0C60
FFFE
ENDCHAR
STARTCHAR C022114
ENCODING 9292
SWIDTH 1800 0
DWIDTH 18 0
BBX 14 12 2 -3
BITMAP
FFFC
0300
0300
0300
0300
0300
0300
0300
0300
0300
0300
0300
ENDCHAR
STARTCHAR C022115
ENCODING 9293
SWIDTH 1800 0
DWIDTH 18 0
BBX 13 16 2 -4
BITMAP
0018
0018
0018
0018
0018
FFF8
0618
0618
0618
07F8
0618
0618
0618
0618
0018
0018
ENDCHAR
STARTCHAR C022116
ENCODING 9294
SWIDTH 1800 0
DWIDTH 18 0
BBX 13 15 2 -4
BITMAP
00D8
00D8
00D8
00D8
00D8
FFD8
0CD8
0CD8
0FD8
0CD8
0CD8
0CD8
0CD8
0CD8
00D8
ENDCHAR
STARTCHAR C022117
ENCODING 9295
SWIDTH 1800 0
DWIDTH 18 0
BBX 13 15 2 -4
BITMAP
0018
0018
0018
0018
01F8
FFF8
0618
0618
0618
0618
0618
0618
0618
0018
0018
ENDCHAR
STARTCHAR C022120
ENCODING 9296
SWIDTH 1800 0
DWIDTH 18 0
BBX 15 12 2 -3
BITMAP
FFFE
0C60
0C60
0C60
0C60
0C60
0C60
0C60
0C60
0C60
0C60
0C60
ENDCHAR
STARTCHAR C022121
ENCODING 9297
SWIDTH 1800 0
DWIDTH 18 0
BBX 15 1 2 3
BITMAP
FFFE
ENDCHAR
STARTCHAR C022122
ENCODING 9298
SWIDTH 1800 0
DWIDTH 18 0
BBX 12 15 2 -4
BITMAP
0030
0030
0030
0030
0030
0030
0030
0030
07F0
FC30
0030
0030
0030
0030
0030
ENDCHAR
STARTCHAR C022123
ENCODING 9299
SWIDTH 1800 0
DWIDTH 18 0
BBX 2 16 8 -4
BITMAP
C0
C0
C0
C0
C0
C0
C0
C0
C0
C0
C0
C0
C0
C0
C0
C0
ENDCHAR
STARTCHAR C022125
ENCODING 9301
SWIDTH 1800 0
DWIDTH 18 0
BBX 13 9 3 -1
BITMAP
C300
C300
C300
C300
C300
C300
C300
CF00
FBF8
ENDCHAR
STARTCHAR C022126
ENCODING 9302
SWIDTH 1800 0
DWIDTH 18 0
BBX 13 9 3 -1
BITMAP
C3F8
C300
C300
C300
C300
C300
C300
FF00
E3F8
ENDCHAR
STARTCHAR C022127
ENCODING 9303
SWIDTH 1800 0
DWIDTH 18 0
BBX 13 9 3 -1
BITMAP
C0C0
C0C0
C0C0
C0C0
C1C0
C1E0
C1B0
C338
FE18
ENDCHAR
STARTCHAR C022130
ENCODING 9304
SWIDTH 1800 0
DWIDTH 18 0
BBX 13 9 3 -1
BITMAP
C0C0
C0C0
C0E0
C1E0
C1E0
C330
C330
FF18
E7F8
ENDCHAR
STARTCHAR C022131
ENCODING 9305
SWIDTH 1800 0
DWIDTH 18 0
BBX 15 9 2 -1
BITMAP
FF98
1998
1998
1998
7998
61BC
61BC
67B6
7DE6
ENDCHAR
STARTCHAR C022132
ENCODING 9306
SWIDTH 1800 0
DWIDTH 18 0
BBX 14 9 3 -1
BITMAP
FDF8
0D80
0D80
0D80
FD80
C180
C180
C780
FDFC
ENDCHAR
STARTCHAR C022133
ENCODING 9307
SWIDTH 1800 0
DWIDTH 18 0
BBX 15 9 2 -1
BITMAP
F8D8
1ED8
1ED8
1ED8
7FD8
66FC
66FC
66F6
7FE6
ENDCHAR
STARTCHAR C022134
ENCODING 9308
SWIDTH 1800 0
DWIDTH 18 0
BBX 13 9 3 -1
BITMAP
FC00
0CE0
0CE0
0CF0
FDB0
C1B0
C318
C318
FFF8
ENDCHAR
STARTCHAR C022135
ENCODING 9309
SWIDTH 1800 0
DWIDTH 18 0
BBX 14 9 3 -1
BITMAP
FFFC
0C00
0C00
0DF0
FF38
C318
C318
C7B8
FDF0
ENDCHAR
STARTCHAR C022136
ENCODING 9310
SWIDTH 1800 0
DWIDTH 18 0
BBX 13 9 3 -1
BITMAP
FD98
CD98
CD98
CD98
CDF8
CD98
CD98
CD98
FDF8
ENDCHAR
STARTCHAR C022137
ENCODING 9311
SWIDTH 1800 0
DWIDTH 18 0
BBX 13 9 3 -1
BITMAP
FCC0
CCC0
CCC0
CCC0
CCE0
CDE0
CDB0
CF38
FC18
ENDCHAR
STARTCHAR C022140
ENCODING 9312
SWIDTH 1800 0
DWIDTH 18 0
BBX 14 9 3 -1
BITMAP
FC00
CCE0
CCE0
CCF0
CDB0
CDB0
CD98
CF18
FFFC
ENDCHAR
STARTCHAR C022141
ENCODING 9313
SWIDTH 1800 0
DWIDTH 18 0
BBX 9 12 5 -3
BITMAP
FF80
C180
C180
C180
C180
FF80
0000
7F00
E380
C180
E380
7F00
ENDCHAR
STARTCHAR C022142
ENCODING 9314
SWIDTH 1800 0
DWIDTH 18 0
BBX 13 9 3 -1
BITMAP
CFF8
CC18
CC18
FC18
CC18
CC18
CC18
CC18
FC18
ENDCHAR
STARTCHAR C022143
ENCODING 9315
SWIDTH 1800 0
DWIDTH 18 0
BBX 14 9 3 -1
BITMAP
CDF8
CD80
CD80
FD80
CD80
CD80
CD80
CD80
FDFC
ENDCHAR
STARTCHAR C022144
ENCODING 9316
SWIDTH 1800 0
DWIDTH 18 0
BBX 13 9 3 -1
BITMAP
F3F8
F318
F318
F318
F318
F798
F798
F6D8
FCD8
ENDCHAR
STARTCHAR C022145
ENCODING 9317
SWIDTH 1800 0
DWIDTH 18 0
BBX 14 9 3 -1
BITMAP
F67C
F660
F660
F660
F660
FF60
FF60
FDE0
F9FC
ENDCHAR
STARTCHAR C022146
ENCODING 9318
SWIDTH 1800 0
DWIDTH 18 0
BBX 14 9 3 -1
BITMAP
CFFC
CC60
CC60
FC60
CCF0
CCF0
CD98
CF9C
FF0C
ENDCHAR
STARTCHAR C022147
ENCODING 9319
SWIDTH 1800 0
DWIDTH 18 0
BBX 14 9 3 -1
BITMAP
CDFC
CD80
CD80
FD80
CDF8
CD80
CD80
CD80
FDFC
ENDCHAR
STARTCHAR C022150
ENCODING 9320
SWIDTH 1800 0
DWIDTH 18 0
BBX 9 14 5 -3
BITMAP
0180
C180
C180
FF80
C180
C180
C180
FF80
0000
7F00
E380
C180
E380
7F00
ENDCHAR
STARTCHAR C022151
ENCODING 9321
SWIDTH 1800 0
DWIDTH 18 0
BBX 11 14 4 -3
BITMAP
DB60
DB60
DB60
FBE0
DB60
DB60
DB60
FBE0
0000
3F80
71C0
60C0
71C0
3F80
ENDCHAR
STARTCHAR C022152
ENCODING 9322
SWIDTH 1800 0
DWIDTH 18 0
BBX 13 9 3 -1
BITMAP
1BF8
1818
1818
1818
3C18
3C18
3618
6718
C318
ENDCHAR
STARTCHAR C022153
ENCODING 9323
SWIDTH 1800 0
DWIDTH 18 0
BBX 15 9 2 -1
BITMAP
18C0
18C0
18C0
18C0
18C0
3CC0
36C0
66C0
C3FE
ENDCHAR
STARTCHAR C022154
ENCODING 9324
SWIDTH 1800 0
DWIDTH 18 0
BBX 15 9 2 -1
BITMAP
18FE
18C0
18C0
18C0
3CC0
3CC0
36C0
63C0
C3FE
ENDCHAR
STARTCHAR C022155
ENCODING 9325
SWIDTH 1800 0
DWIDTH 18 0
BBX 14 9 2 -1
BITMAP
180C
18CC
18CC
18FC
18CC
3CCC
36CC
66CC
C3FC
ENDCHAR
STARTCHAR C022156
ENCODING 9326
SWIDTH 1800 0
DWIDTH 18 0
BBX 14 9 3 -1
BITMAP
1BFC
1860
1860
1860
3CF0
3CF0
3798
639C
C30C
ENDCHAR
STARTCHAR C022157
ENCODING 9327
SWIDTH 1800 0
DWIDTH 18 0
BBX 11 9 4 -1
BITMAP
0C00
0E00
1E00
1B00
3300
3180
6180
60C0
FFE0
ENDCHAR
STARTCHAR C022160
ENCODING 9328
SWIDTH 1800 0
DWIDTH 18 0
BBX 13 9 3 -1
BITMAP
78F0
FDF8
CD98
CD98
CD98
CD98
CD98
FDF8
78F0
ENDCHAR
STARTCHAR C022161
ENCODING 9329
SWIDTH 1800 0
DWIDTH 18 0
BBX 11 12 4 -2
BITMAP
0C00
0C00
0C00
3F80
71C0
E0E0
C060
C060
C060
60C0
71C0
1F00
ENDCHAR
STARTCHAR C022162
ENCODING 9330
SWIDTH 1800 0
DWIDTH 18 0
BBX 13 10 3 -1
BITMAP
3000
30C0
78C0
FCC0
CCC0
CCC0
CDE0
CDB0
FB38
7E18
ENDCHAR
STARTCHAR C022163
ENCODING 9331
SWIDTH 1800 0
DWIDTH 18 0
BBX 13 10 3 -1
BITMAP
3000
3000
78E0
FCE0
CDE0
CDB0
CDB0
CF18
FB18
7BF8
ENDCHAR
STARTCHAR C022164
ENCODING 9332
SWIDTH 1800 0
DWIDTH 18 0
BBX 12 13 3 -3
BITMAP
7FF0
18C0
18C0
1980
1980
FFF0
0000
0000
1F80
30C0
30C0
30C0
1F80
ENDCHAR
STARTCHAR C022165
ENCODING 9333
SWIDTH 1800 0
DWIDTH 18 0
BBX 15 11 2 -2
BITMAP
7CFC
0000
0000
FFFE
0000
7C78
CECC
C6CC
C6CC
CECC
7C78
ENDCHAR
STARTCHAR C022166
ENCODING 9334
SWIDTH 1800 0
DWIDTH 18 0
BBX 13 11 3 -2
BITMAP
FFF8
0000
0000
0000
1F80
39C0
30C0
30C0
30C0
39C0
1F80
ENDCHAR
STARTCHAR C022167
ENCODING 9335
SWIDTH 1800 0
DWIDTH 18 0
BBX 15 15 2 -4
BITMAP
0030
0030
1B30
1B30
1B30
1B3E
1B30
1B30
1B30
FFFE
F030
0030
0030
0030
0030
ENDCHAR
STARTCHAR C022170
ENCODING 9336
SWIDTH 1800 0
DWIDTH 18 0
BBX 12 16 3 -4
BITMAP
0030
01B0
01B0
01B0
3DB0
3DF0
3DB0
3DB0
3DB0
3FF0
FFB0
E1B0
01B0
01B0
01B0
0030
ENDCHAR
STARTCHAR C022171
ENCODING 9337
SWIDTH 1800 0
DWIDTH 18 0
BBX 12 15 2 -4
BITMAP
0030
0030
0030
1830
1B30
1B30
1B30
1B30
1B30
1B30
FFF0
F030
0030
0030
0030
ENDCHAR
STARTCHAR C022172
ENCODING 9338
SWIDTH 1800 0
DWIDTH 18 0
BBX 13 15 2 -4
BITMAP
0018
0018
0018
01F8
FFF8
1B18
1B18
1BF8
1B18
1BF8
1B18
1B18
1B18
1B18
0018
ENDCHAR
STARTCHAR C022173
ENCODING 9339
SWIDTH 1800 0
DWIDTH 18 0
BBX 13 16 2 -4
BITMAP
0018
0078
0078
0078
0078
07F8
FE78
3678
37F8
3678
3678
37F8
3678
3678
3678
0078
ENDCHAR
STARTCHAR C022174
ENCODING 9340
SWIDTH 1800 0
DWIDTH 18 0
BBX 12 15 3 -4
BITMAP
0030
0030
0030
0030
00F0
FFF0
1B30
1B30
1B30
1B30
1B30
1B30
1B30
0330
0030
ENDCHAR
STARTCHAR C022175
ENCODING 9341
SWIDTH 1800 0
DWIDTH 18 0
BBX 3 3 8 2
BITMAP
E0
E0
E0
ENDCHAR
STARTCHAR C022176
ENCODING 9342
SWIDTH 1800 0
DWIDTH 18 0
BBX 8 15 5 -4
BITMAP
03
03
03
03
03
03
E3
E3
E3
03
03
03
03
03
03
ENDCHAR
STARTCHAR C022177
ENCODING 9343
SWIDTH 1800 0
DWIDTH 18 0
BBX 0 0 0 0
BITMAP
ENDCHAR
STARTCHAR C022440
ENCODING 9504
SWIDTH 1800 0
DWIDTH 18 0
BBX 0 0 0 0
BITMAP
ENDCHAR
STARTCHAR C022441
ENCODING 9505
SWIDTH 1800 0
DWIDTH 18 0
BBX 2 13 8 -1
BITMAP
C0
00
00
00
C0
C0
C0
C0
C0
C0
C0
C0
C0
ENDCHAR
STARTCHAR C022442
ENCODING 9506
SWIDTH 1800 0
DWIDTH 18 0
BBX 7 13 6 -1
BITMAP
C6
00
00
00
C6
C6
C6
C6
C6
C6
C6
C6
C6
ENDCHAR
STARTCHAR C022443
ENCODING 9507
SWIDTH 1800 0
DWIDTH 18 0
BBX 9 13 5 -1
BITMAP
D980
0000
0000
0000
D980
D980
D980
D980
D980
D980
D980
D980
D980
ENDCHAR
STARTCHAR C022444
ENCODING 9508
SWIDTH 1800 0
DWIDTH 18 0
BBX 9 13 5 -1
BITMAP
C000
0000
0000
0000
C180
D980
D980
DB00
CF00
CF00
CE00
C600
C600
ENDCHAR
STARTCHAR C022445
ENCODING 9509
SWIDTH 1800 0
DWIDTH 18 0
BBX 7 9 6 -1
BITMAP
C6
CC
CC
6C
78
78
38
30
30
ENDCHAR
STARTCHAR C022446
ENCODING 9510
SWIDTH 1800 0
DWIDTH 18 0
BBX 10 13 4 -1
BITMAP
00C0
0000
0000
0000
C6C0
CCC0
CCC0
6CC0
6CC0
78C0
38C0
38C0
00C0
ENDCHAR
STARTCHAR C022447
ENCODING 9511
SWIDTH 1800 0
DWIDTH 18 0
BBX 12 13 3 -1
BITMAP
01B0
0000
0000
0000
CDB0
CDB0
6DB0
79B0
79B0
79B0
39B0
31B0
31B0
ENDCHAR
STARTCHAR C022450
ENCODING 9512
SWIDTH 1800 0
DWIDTH 18 0
BBX 14 13 2 -1
BITMAP
01EC
0000
0000
0000
CDEC
6DEC
6DEC
6DEC
79EC
39EC
39EC
31EC
01EC
ENDCHAR
STARTCHAR C022451
ENCODING 9513
SWIDTH 1800 0
DWIDTH 18 0
BBX 9 13 5 -1
BITMAP
C000
0000
0000
0000
D980
D980
CF00
CF00
C600
C700
CF00
CD80
D980
ENDCHAR
STARTCHAR C022452
ENCODING 9514
SWIDTH 1800 0
DWIDTH 18 0
BBX 7 9 6 -1
BITMAP
C6
CC
78
38
30
38
78
CC
C0
ENDCHAR
STARTCHAR C022453
ENCODING 9515
SWIDTH 1800 0
DWIDTH 18 0
BBX 0 0 0 0
BITMAP
ENDCHAR
STARTCHAR C022454
ENCODING 9516
SWIDTH 1800 0
DWIDTH 18 0
BBX 0 0 0 0
BITMAP
ENDCHAR
STARTCHAR C022460
ENCODING 9520
SWIDTH 1800 0
DWIDTH 18 0
BBX 2 13 8 -1
BITMAP
C0
C0
C0
C0
C0
C0
C0
C0
C0
C0
C0
C0
C0
ENDCHAR
STARTCHAR C022461
ENCODING 9521
SWIDTH 1800 0
DWIDTH 18 0
BBX 7 13 6 -1
BITMAP
C6
C6
C6
C6
C6
C6
C6
C6
C6
C6
C6
C6
C6
ENDCHAR
STARTCHAR C022462
ENCODING 9522
SWIDTH 1800 0
DWIDTH 18 0
BBX 10 13 4 -1
BITMAP
CCC0
CCC0
CCC0
CCC0
CCC0
CCC0
CCC0
CCC0
CCC0
CCC0
CCC0
CCC0
CCC0
ENDCHAR
STARTCHAR C022463
ENCODING 9523
SWIDTH 1800 0
DWIDTH 18 0
BBX 11 13 4 -1
BITMAP
D860
D860
D8C0
CCC0
CCC0
CD80
CD80
C780
C780
C700
C700
C300
C300
ENDCHAR
STARTCHAR C022464
ENCODING 9524
SWIDTH 1800 0
DWIDTH 18 0
BBX 8 12 5 0
BITMAP
C3
C3
63
63
66
66
36
3C
3C
1C
1C
18
ENDCHAR
STARTCHAR C022465
ENCODING 9525
SWIDTH 1800 0
DWIDTH 18 0
BBX 10 13 4 -1
BITMAP
C6C0
C6C0
C6C0
C6C0
6CC0
6CC0
6CC0
6CC0
38C0
38C0
38C0
18C0
00C0
ENDCHAR
STARTCHAR C022466
ENCODING 9526
SWIDTH 1800 0
DWIDTH 18 0
BBX 13 13 2 -1
BITMAP
C378
C378
6678
6678
6678
6678
3C78
3C78
3C78
1C78
1C78
1878
0078
ENDCHAR
STARTCHAR C022467
ENCODING 9527
SWIDTH 1800 0
DWIDTH 18 0
BBX 14 13 2 -1
BITMAP
C7BC
C7BC
CDBC
6DBC
6DBC
6DBC
6DBC
39BC
39BC
39BC
39BC
31BC
01BC
ENDCHAR
STARTCHAR C022470
ENCODING 9528
SWIDTH 1800 0
DWIDTH 18 0
BBX 10 13 4 -1
BITMAP
D8C0
CCC0
CD80
CD80
C780
C700
C300
C300
C700
C780
CD80
CCC0
D8C0
ENDCHAR
STARTCHAR C022471
ENCODING 9529
SWIDTH 1800 0
DWIDTH 18 0
BBX 7 13 6 -1
BITMAP
06
C6
CC
6C
78
38
30
38
78
78
6C
CC
C6
ENDCHAR
STARTCHAR C022472
ENCODING 9530
SWIDTH 1800 0
DWIDTH 18 0
BBX 0 0 0 0
BITMAP
ENDCHAR
STARTCHAR C022473
ENCODING 9531
SWIDTH 1800 0
DWIDTH 18 0
BBX 0 0 0 0
BITMAP
ENDCHAR
STARTCHAR C022474
ENCODING 9532
SWIDTH 1800 0
DWIDTH 18 0
BBX 0 0 0 0
BITMAP
ENDCHAR
STARTCHAR C022500
ENCODING 9536
SWIDTH 1800 0
DWIDTH 18 0
BBX 0 0 0 0
BITMAP
ENDCHAR
STARTCHAR C022501
ENCODING 9537
SWIDTH 1800 0
DWIDTH 18 0
BBX 10 12 4 -1
BITMAP
0180
0380
0F80
0D80
1980
31C0
31C0
61C0
3FC0
60C0
C0C0
00C0
ENDCHAR
STARTCHAR C022502
ENCODING 9538
SWIDTH 1800 0
DWIDTH 18 0
BBX 11 13 4 -1
BITMAP
0F00
19C0
1860
1860
30C0
31C0
3F00
3180
60C0
60C0
60C0
6180
FF00
ENDCHAR
STARTCHAR C022503
ENCODING 9539
SWIDTH 1800 0
DWIDTH 18 0
BBX 11 14 4 -2
BITMAP
01E0
1FE0
1800
1800
3000
3000
3000
3000
6000
6000
6000
C000
C000
C000
ENDCHAR
STARTCHAR C022504
ENCODING 9540
SWIDTH 1800 0
DWIDTH 18 0
BBX 11 13 3 -1
BITMAP
00C0
01C0
03C0
07C0
0DC0
0DC0
18C0
30E0
30E0
60E0
C0E0
C0E0
FFE0
ENDCHAR
STARTCHAR C022505
ENCODING 9541
SWIDTH 1800 0
DWIDTH 18 0
BBX 11 13 4 -1
BITMAP
1FE0
1FC0
1800
3000
3000
3000
3F80
6000
6000
6000
C000
C000
FF00
ENDCHAR
STARTCHAR C022506
ENCODING 9542
SWIDTH 1800 0
DWIDTH 18 0
BBX 12 13 3 -1
BITMAP
1FF0
0070
0060
00C0
0180
0300
0700
0E00
0C00
1800
3000
6000
FFC0
ENDCHAR
STARTCHAR C022507
ENCODING 9543
SWIDTH 1800 0
DWIDTH 18 0
BBX 13 13 3 -1
BITMAP
1818
1830
1830
3030
3030
3060
3FE0
6060
60C0
60C0
C0C0
C0C0
C180
ENDCHAR
STARTCHAR C022510
ENCODING 9544
SWIDTH 1800 0
DWIDTH 18 0
BBX 11 13 4 -1
BITMAP
1F80
38C0
7060
6060
C060
C060
FF60
C0C0
C0C0
C0C0
C180
6300
3E00
ENDCHAR
STARTCHAR C022511
ENCODING 9545
SWIDTH 1800 0
DWIDTH 18 0
BBX 4 12 7 -1
BITMAP
30
30
30
30
60
60
60
60
60
60
C0
C0
ENDCHAR
STARTCHAR C022512
ENCODING 9546
SWIDTH 1800 0
DWIDTH 18 0
BBX 10 13 5 -1
BITMAP
31C0
3380
6300
6600
6C00
7800
7C00
6C00
C600
C600
C300
C300
C000
ENDCHAR
STARTCHAR C022513
ENCODING 9547
SWIDTH 1800 0
DWIDTH 18 0
BBX 9 12 5 -1
BITMAP
0E00
0E00
1E00
1B00
3300
3300
3300
6300
6300
C180
C180
0180
ENDCHAR
STARTCHAR C022514
ENCODING 9548
SWIDTH 1800 0
DWIDTH 18 0
BBX 13 13 3 -1
BITMAP
3000
3838
3870
7870
78F0
78F0
79B0
6DB0
6F60
CF60
CE60
CE60
CC60
ENDCHAR
STARTCHAR C022515
ENCODING 9549
SWIDTH 1800 0
DWIDTH 18 0
BBX 11 12 4 -1
BITMAP
3860
38C0
38C0
6CC0
6CC0
6CC0
66C0
6780
C780
C380
C380
C380
ENDCHAR
STARTCHAR C022516
ENCODING 9550
SWIDTH 1800 0
DWIDTH 18 0
BBX 11 16 4 -4
BITMAP
1FE0
0000
0000
0000
0000
0000
3F80
0000
0000
0000
0000
0000
FF80
0000
0000
0940
ENDCHAR
STARTCHAR C022517
ENCODING 9551
SWIDTH 1800 0
DWIDTH 18 0
BBX 14 15 4 -4
BITMAP
3F80
70C0
60C0
C060
C060
C0C0
C0C0
C0C0
C0C0
C180
6380
3E00
0000
0000
0004
ENDCHAR
STARTCHAR C022520
ENCODING 9552
SWIDTH 1800 0
DWIDTH 18 0
BBX 11 12 4 -1
BITMAP
3FE0
30C0
60C0
60C0
60C0
60C0
60C0
C180
C180
C180
C180
C180
ENDCHAR
STARTCHAR C022521
ENCODING 9553
SWIDTH 1800 0
DWIDTH 18 0
BBX 10 12 4 -1
BITMAP
1F80
30C0
30C0
30C0
31C0
3F80
6000
6000
6000
6000
6000
C000
ENDCHAR
STARTCHAR C022522
ENCODING 9554
SWIDTH 1800 0
DWIDTH 18 0
BBX 11 13 4 -1
BITMAP
3FE0
3000
1800
0C00
0C00
0600
0600
0E00
0C00
1800
3000
6000
FFC0
ENDCHAR
STARTCHAR C022523
ENCODING 9555
SWIDTH 1800 0
DWIDTH 18 0
BBX 9 12 5 -1
BITMAP
FF80
1800
1800
1800
1800
1800
1800
3000
3000
3000
3000
3000
ENDCHAR
STARTCHAR C022524
ENCODING 9556
SWIDTH 1800 0
DWIDTH 18 0
BBX 9 12 5 -1
BITMAP
C180
6180
6300
6600
3E00
3C00
1800
1800
3000
3000
3000
3000
ENDCHAR
STARTCHAR C022525
ENCODING 9557
SWIDTH 1800 0
DWIDTH 18 0
BBX 12 13 4 -1
BITMAP
0300
0300
1FC0
36E0
6660
C670
CC70
CC70
CCE0
6DC0
3F80
0C00
0C00
ENDCHAR
STARTCHAR C022526
ENCODING 9558
SWIDTH 1800 0
DWIDTH 18 0
BBX 10 12 4 -1
BITMAP
30C0
3180
1980
1B00
0E00
0C00
0C00
1E00
3600
6300
6300
C000
ENDCHAR
STARTCHAR C022527
ENCODING 9559
SWIDTH 1800 0
DWIDTH 18 0
BBX 12 13 4 -1
BITMAP
C630
E660
C660
CC60
CC60
CCC0
CCC0
CCC0
7F80
1800
1800
1800
1800
ENDCHAR
STARTCHAR C022530
ENCODING 9560
SWIDTH 1800 0
DWIDTH 18 0
BBX 12 13 3 -1
BITMAP
0300
1FE0
1860
3030
3030
6030
6030
6030
3060
30E0
1B80
1B00
FBE0
ENDCHAR
STARTCHAR C022531
ENCODING 9561
SWIDTH 1800 0
DWIDTH 18 0
BBX 0 0 0 0
BITMAP
ENDCHAR
STARTCHAR C022540
ENCODING 9568
SWIDTH 1800 0
DWIDTH 18 0
BBX 0 0 0 0
BITMAP
ENDCHAR
STARTCHAR C022541
ENCODING 9569
SWIDTH 1800 0
DWIDTH 18 0
BBX 8 10 5 -1
BITMAP
3C
77
63
C3
C3
C3
C6
C6
6E
3B
ENDCHAR
STARTCHAR C022542
ENCODING 9570
SWIDTH 1800 0
DWIDTH 18 0
BBX 9 16 5 -4
BITMAP
0F00
1D80
3980
3180
3300
3E00
3F00
6300
6300
6180
6300
7300
7E00
C000
C000
C000
ENDCHAR
STARTCHAR C022543
ENCODING 9571
SWIDTH 1800 0
DWIDTH 18 0
BBX 9 13 5 -4
BITMAP
E180
7300
7300
7600
3600
3600
3C00
3C00
3800
3800
3800
7800
3000
ENDCHAR
STARTCHAR C022544
ENCODING 9572
SWIDTH 1800 0
DWIDTH 18 0
BBX 9 13 5 -1
BITMAP
3F80
1800
1800
0C00
3E00
6300
C300
C300
C300
C300
C600
C600
7C00
ENDCHAR
STARTCHAR C022545
ENCODING 9573
SWIDTH 1800 0
DWIDTH 18 0
BBX 8 10 5 -1
BITMAP
3E
67
63
60
3C
60
C3
C6
E6
7C
ENDCHAR
STARTCHAR C022546
ENCODING 9574
SWIDTH 1800 0
DWIDTH 18 0
BBX 9 17 5 -4
BITMAP
3F80
0300
0700
0600
0C00
1800
3800
3000
6000
C000
C000
C000
7000
1C00
0600
0600
3C00
ENDCHAR
STARTCHAR C022547
ENCODING 9575
SWIDTH 1800 0
DWIDTH 18 0
BBX 8 13 5 -4
BITMAP
EE
7B
73
63
63
63
66
C6
C6
C6
06
06
06
ENDCHAR
STARTCHAR C022550
ENCODING 9576
SWIDTH 1800 0
DWIDTH 18 0
BBX 9 14 5 -1
BITMAP
1E00
3300
3300
6180
6180
C300
FF00
C300
C300
C300
C300
C600
6E00
7800
ENDCHAR
STARTCHAR C022551
ENCODING 9577
SWIDTH 1800 0
DWIDTH 18 0
BBX 3 10 8 -1
BITMAP
60
60
C0
C0
C0
C0
C0
C0
C0
E0
ENDCHAR
STARTCHAR C022552
ENCODING 9578
SWIDTH 1800 0
DWIDTH 18 0
BBX 9 10 5 -1
BITMAP
3380
3600
6C00
7800
7C00
6C00
6C00
6600
C600
C600
ENDCHAR
STARTCHAR C022553
ENCODING 9579
SWIDTH 1800 0
DWIDTH 18 0
BBX 9 13 5 -1
BITMAP
1C00
0E00
0E00
0E00
0E00
1E00
1E00
3600
3700
6700
6700
C700
C380
ENDCHAR
STARTCHAR C022554
ENCODING 9580
SWIDTH 1800 0
DWIDTH 18 0
BBX 8 12 5 -3
BITMAP
33
33
63
63
63
63
66
66
6E
FB
C0
C0
ENDCHAR
STARTCHAR C022555
ENCODING 9581
SWIDTH 1800 0
DWIDTH 18 0
BBX 7 10 6 -1
BITMAP
C6
CC
CC
CC
D8
D8
F0
F0
E0
E0
ENDCHAR
STARTCHAR C022556
ENCODING 9582
SWIDTH 1800 0
DWIDTH 18 0
BBX 9 15 5 -3
BITMAP
7F80
1800
3000
3000
3000
1800
1E00
7000
6000
C000
C000
E000
7C00
0600
0600
ENDCHAR
STARTCHAR C022557
ENCODING 9583
SWIDTH 1800 0
DWIDTH 18 0
BBX 8 10 5 -1
BITMAP
1E
37
63
63
C3
C3
C3
C6
66
3C
ENDCHAR
STARTCHAR C022560
ENCODING 9584
SWIDTH 1800 0
DWIDTH 18 0
BBX 9 10 5 -1
BITMAP
FF80
6300
6300
6300
6600
6600
C600
C600
C600
C600
ENDCHAR
STARTCHAR C022561
ENCODING 9585
SWIDTH 1800 0
DWIDTH 18 0
BBX 9 13 5 -4
BITMAP
0E00
1B00
3180
3180
6180
6180
6300
6300
6600
FE00
C000
C000
C000
ENDCHAR
STARTCHAR C022562
ENCODING 9586
SWIDTH 1800 0
DWIDTH 18 0
BBX 10 10 5 -1
BITMAP
1FC0
3300
6300
6300
C300
C300
C300
C600
6600
3C00
ENDCHAR
STARTCHAR C022563
ENCODING 9587
SWIDTH 1800 0
DWIDTH 18 0
BBX 7 10 6 -1
BITMAP
FE
30
30
30
30
30
30
30
30
38
ENDCHAR
STARTCHAR C022564
ENCODING 9588
SWIDTH 1800 0
DWIDTH 18 0
BBX 8 10 5 -1
BITMAP
63
63
63
63
63
66
C6
C6
6E
7C
ENDCHAR
STARTCHAR C022565
ENCODING 9589
SWIDTH 1800 0
DWIDTH 18 0
BBX 10 13 4 -4
BITMAP
1B80
36C0
6CC0
6CC0
CCC0
CCC0
CCC0
CD80
6F80
3E00
1800
1800
1800
ENDCHAR
STARTCHAR C022566
ENCODING 9590
SWIDTH 1800 0
DWIDTH 18 0
BBX 8 13 5 -4
BITMAP
73
33
36
1E
1C
18
18
3C
3C
6C
6C
C6
C3
ENDCHAR
STARTCHAR C022567
ENCODING 9591
SWIDTH 1800 0
DWIDTH 18 0
BBX 11 13 4 -4
BITMAP
6660
6660
6660
6CC0
CCC0
CCC0
CCC0
CCC0
ED80
7F00
1800
1800
1800
ENDCHAR
STARTCHAR C022570
ENCODING 9592
SWIDTH 1800 0
DWIDTH 18 0
BBX 10 10 4 -1
BITMAP
1D80
31C0
60C0
66C0
6CC0
CCC0
CCC0
CCC0
7FC0
7780
ENDCHAR
STARTCHAR C023041
ENCODING 9761
SWIDTH 1800 0
DWIDTH 18 0
BBX 18 17 0 -4
BITMAP
000040
000040
000040
000040
000040
000040
000040
000040
FFFFC0
000040
000040
000040
000040
000040
000040
000040
000040
ENDCHAR
STARTCHAR C023042
ENCODING 9762
SWIDTH 1800 0
DWIDTH 18 0
BBX 2 17 9 -4
BITMAP
C0
C0
C0
C0
C0
C0
C0
C0
C0
C0
C0
C0
C0
C0
C0
C0
C0
ENDCHAR
STARTCHAR C023043
ENCODING 9763
SWIDTH 1800 0
DWIDTH 18 0
BBX 9 9 9 -4
BITMAP
FF80
C000
C000
C000
C000
C000
C000
C000
C000
ENDCHAR
STARTCHAR C023044
ENCODING 9764
SWIDTH 1800 0
DWIDTH 18 0
BBX 11 9 0 -4
BITMAP
FFE0
0060
0060
0060
0060
0060
0060
0060
0060
ENDCHAR
STARTCHAR C023045
ENCODING 9765
SWIDTH 1800 0
DWIDTH 18 0
BBX 11 9 0 4
BITMAP
0060
0060
0060
0060
0060
0060
0060
0060
FFE0
ENDCHAR
STARTCHAR C023046
ENCODING 9766
SWIDTH 1800 0
DWIDTH 18 0
BBX 9 9 9 4
BITMAP
C000
C000
C000
C000
C000
C000
C000
C000
FF80
ENDCHAR
STARTCHAR C023047
ENCODING 9767
SWIDTH 1800 0
DWIDTH 18 0
BBX 9 17 9 -4
BITMAP
C000
C000
C000
C000
C000
C000
C000
C000
FF80
C000
C000
C000
C000
C000
C000
C000
C000
ENDCHAR
STARTCHAR C023050
ENCODING 9768
SWIDTH 1800 0
DWIDTH 18 0
BBX 18 9 0 -4
BITMAP
FFFFC0
006000
006000
006000
006000
006000
006000
006000
006000
ENDCHAR
STARTCHAR C023051
ENCODING 9769
SWIDTH 1800 0
DWIDTH 18 0
BBX 11 17 0 -4
BITMAP
0060
0060
0060
0060
0060
0060
0060
0060
FFE0
0060
0060
0060
0060
0060
0060
0060
0060
ENDCHAR
STARTCHAR C023052
ENCODING 9770
SWIDTH 1800 0
DWIDTH 18 0
BBX 18 9 0 4
BITMAP
006000
006000
006000
006000
006000
006000
006000
006000
FFFFC0
ENDCHAR
STARTCHAR C023053
ENCODING 9771
SWIDTH 1800 0
DWIDTH 18 0
BBX 18 16 0 -3
BITMAP
006000
006000
006000
006000
006000
006000
006000
006000
FFFFC0
006000
006000
006000
006000
006000
006000
006000
ENDCHAR
STARTCHAR C023054
ENCODING 9772
SWIDTH 1800 0
DWIDTH 18 0
BBX 18 16 0 -3
BITMAP
000040
000040
000040
000040
000040
000040
000040
000040
FFFFC0
000040
000040
000040
000040
000040
000040
000040
ENDCHAR
STARTCHAR C023055
ENCODING 9773
SWIDTH 1800 0
DWIDTH 18 0
BBX 2 16 8 -3
BITMAP
C0
C0
C0
C0
C0
C0
C0
C0
C0
C0
C0
C0
C0
C0
C0
C0
ENDCHAR
STARTCHAR C023056
ENCODING 9774
SWIDTH 1800 0
DWIDTH 18 0
BBX 10 8 8 -3
BITMAP
FFC0
C000
C000
C000
C000
C000
C000
C000
ENDCHAR
STARTCHAR C023057
ENCODING 9775
SWIDTH 1800 0
DWIDTH 18 0
BBX 10 9 0 -4
BITMAP
FFC0
00C0
00C0
00C0
00C0
00C0
00C0
00C0
00C0
ENDCHAR
STARTCHAR C023060
ENCODING 9776
SWIDTH 1800 0
DWIDTH 18 0
BBX 10 9 0 4
BITMAP
00C0
00C0
00C0
00C0
00C0
00C0
00C0
00C0
FFC0
ENDCHAR
STARTCHAR C023061
ENCODING 9777
SWIDTH 1800 0
DWIDTH 18 0
BBX 10 9 8 4
BITMAP
C000
C000
C000
C000
C000
C000
C000
C000
FFC0
ENDCHAR
STARTCHAR C023062
ENCODING 9778
SWIDTH 1800 0
DWIDTH 18 0
BBX 10 17 8 -4
BITMAP
C000
C000
C000
C000
C000
C000
C000
C000
FFC0
C000
C000
C000
C000
C000
C000
C000
C000
ENDCHAR
STARTCHAR C023063
ENCODING 9779
SWIDTH 1800 0
DWIDTH 18 0
BBX 18 9 0 -4
BITMAP
FFFFC0
00C000
00C000
00C000
00C000
00C000
00C000
00C000
00C000
ENDCHAR
STARTCHAR C023064
ENCODING 9780
SWIDTH 1800 0
DWIDTH 18 0
BBX 10 17 0 -4
BITMAP
00C0
00C0
00C0
00C0
00C0
00C0
00C0
00C0
FFC0
00C0
00C0
00C0
00C0
00C0
00C0
00C0
00C0
ENDCHAR
STARTCHAR C023065
ENCODING 9781
SWIDTH 1800 0
DWIDTH 18 0
BBX 18 9 0 4
BITMAP
00C000
00C000
00C000
00C000
00C000
00C000
00C000
00C000
FFFFC0
ENDCHAR
STARTCHAR C023066
ENCODING 9782
SWIDTH 1800 0
DWIDTH 18 0
BBX 18 17 0 -4
BITMAP
00C000
00C000
00C000
00C000
00C000
00C000
00C000
00C000
FFFFC0
00C000
00C000
00C000
00C000
00C000
00C000
00C000
00C000
ENDCHAR
STARTCHAR C023067
ENCODING 9783
SWIDTH 1800 0
DWIDTH 18 0
BBX 10 17 8 -4
BITMAP
C000
C000
C000
C000
C000
C000
C000
C000
FFC0
C000
C000
C000
C000
C000
C000
C000
C000
ENDCHAR
STARTCHAR C023070
ENCODING 9784
SWIDTH 1800 0
DWIDTH 18 0
BBX 18 9 0 -4
BITMAP
FFFFC0
006000
006000
006000
006000
006000
006000
006000
006000
ENDCHAR
STARTCHAR C023071
ENCODING 9785
SWIDTH 1800 0
DWIDTH 18 0
BBX 10 16 0 -3
BITMAP
00C0
00C0
00C0
00C0
00C0
00C0
00C0
00C0
FFC0
00C0
00C0
00C0
00C0
00C0
00C0
00C0
ENDCHAR
STARTCHAR C023072
ENCODING 9786
SWIDTH 1800 0
DWIDTH 18 0
BBX 18 9 0 4
BITMAP
006000
006000
006000
006000
006000
006000
006000
006000
FFFFC0
ENDCHAR
STARTCHAR C023073
ENCODING 9787
SWIDTH 1800 0
DWIDTH 18 0
BBX 18 16 0 -3
BITMAP
006000
006000
006000
006000
006000
006000
006000
006000
FFFFC0
006000
006000
006000
006000
006000
006000
006000
ENDCHAR
STARTCHAR C023074
ENCODING 9788
SWIDTH 1800 0
DWIDTH 18 0
BBX 9 16 9 -3
BITMAP
C000
C000
C000
C000
C000
C000
C000
C000
FF80
C000
C000
C000
C000
C000
C000
C000
ENDCHAR
STARTCHAR C023075
ENCODING 9789
SWIDTH 1800 0
DWIDTH 18 0
BBX 18 8 0 -3
BITMAP
FFFFC0
00C000
00C000
00C000
00C000
00C000
00C000
00C000
ENDCHAR
STARTCHAR C023076
ENCODING 9790
SWIDTH 1800 0
DWIDTH 18 0
BBX 11 17 0 -4
BITMAP
0060
0060
0060
0060
0060
0060
0060
0060
FFE0
0060
0060
0060
0060
0060
0060
0060
0060
ENDCHAR
STARTCHAR C023077
ENCODING 9791
SWIDTH 1800 0
DWIDTH 18 0
BBX 18 9 0 4
BITMAP
00C000
00C000
00C000
00C000
00C000
00C000
00C000
00C000
FFFFC0
ENDCHAR
STARTCHAR C023100
ENCODING 9792
SWIDTH 1800 0
DWIDTH 18 0
BBX 18 17 0 -4
BITMAP
00C000
00C000
00C000
00C000
00C000
00C000
00C000
00C000
FFFFC0
00C000
00C000
00C000
00C000
00C000
00C000
00C000
00C000
ENDCHAR
STARTCHAR C023101
ENCODING 9793
SWIDTH 1800 0
DWIDTH 18 0
BBX 10 9 0 -4
BITMAP
FFC0
00C0
00C0
00C0
00C0
00C0
00C0
00C0
00C0
ENDCHAR
STARTCHAR C023102
ENCODING 9794
SWIDTH 1800 0
DWIDTH 18 0
BBX 11 9 0 -4
BITMAP
FFE0
0060
0060
0060
0060
0060
0060
0060
0060
ENDCHAR
STARTCHAR C023103
ENCODING 9795
SWIDTH 1800 0
DWIDTH 18 0
BBX 10 9 0 4
BITMAP
00C0
00C0
00C0
00C0
00C0
00C0
00C0
00C0
FFC0
ENDCHAR
STARTCHAR C023104
ENCODING 9796
SWIDTH 1800 0
DWIDTH 18 0
BBX 11 10 0 4
BITMAP
0060
0060
0060
0060
0060
0060
0060
0060
0060
FFE0
ENDCHAR
STARTCHAR C023105
ENCODING 9797
SWIDTH 1800 0
DWIDTH 18 0
BBX 10 9 8 4
BITMAP
C000
C000
C000
C000
C000
C000
C000
C000
FFC0
ENDCHAR
STARTCHAR C023106
ENCODING 9798
SWIDTH 1800 0
DWIDTH 18 0
BBX 9 9 9 4
BITMAP
C000
C000
C000
C000
C000
C000
C000
C000
FF80
ENDCHAR
STARTCHAR C023107
ENCODING 9799
SWIDTH 1800 0
DWIDTH 18 0
BBX 10 9 8 -4
BITMAP
FFC0
C000
C000
C000
C000
C000
C000
C000
C000
ENDCHAR
STARTCHAR C023110
ENCODING 9800
SWIDTH 1800 0
DWIDTH 18 0
BBX 9 8 9 -3
BITMAP
FF80
C000
C000
C000
C000
C000
C000
C000
ENDCHAR
STARTCHAR C023111
ENCODING 9801
SWIDTH 1800 0
DWIDTH 18 0
BBX 10 16 8 -3
BITMAP
C000
C000
C000
C000
C000
C000
C000
C000
FFC0
C000
C000
C000
C000
C000
C000
C000
ENDCHAR
STARTCHAR C023112
ENCODING 9802
SWIDTH 1800 0
DWIDTH 18 0
BBX 9 16 9 -3
BITMAP
C000
C000
C000
C000
C000
C000
C000
C000
FF80
C000
C000
C000
C000
C000
C000
C000
ENDCHAR
STARTCHAR C023113
ENCODING 9803
SWIDTH 1800 0
DWIDTH 18 0
BBX 10 16 8 -3
BITMAP
C000
C000
C000
C000
C000
C000
C000
C000
FFC0
C000
C000
C000
C000
C000
C000
C000
ENDCHAR
STARTCHAR C023114
ENCODING 9804
SWIDTH 1800 0
DWIDTH 18 0
BBX 9 16 9 -3
BITMAP
C000
C000
C000
C000
C000
C000
C000
C000
FF80
C000
C000
C000
C000
C000
C000
C000
ENDCHAR
STARTCHAR C023115
ENCODING 9805
SWIDTH 1800 0
DWIDTH 18 0
BBX 10 17 0 -4
BITMAP
00C0
00C0
00C0
00C0
00C0
00C0
00C0
00C0
FFC0
00C0
00C0
00C0
00C0
00C0
00C0
00C0
00C0
ENDCHAR
STARTCHAR C023116
ENCODING 9806
SWIDTH 1800 0
DWIDTH 18 0
BBX 10 17 0 -4
BITMAP
00C0
00C0
00C0
00C0
00C0
00C0
00C0
00C0
FFC0
00C0
00C0
00C0
00C0
00C0
00C0
00C0
00C0
ENDCHAR
STARTCHAR C023117
ENCODING 9807
SWIDTH 1800 0
DWIDTH 18 0
BBX 10 17 0 -4
BITMAP
00C0
00C0
00C0
00C0
00C0
00C0
00C0
00C0
FFC0
00C0
00C0
00C0
00C0
00C0
00C0
00C0
00C0
ENDCHAR
STARTCHAR C023120
ENCODING 9808
SWIDTH 1800 0
DWIDTH 18 0
BBX 10 17 0 -4
BITMAP
00C0
00C0
00C0
00C0
00C0
00C0
00C0
00C0
FFC0
00C0
00C0
00C0
00C0
00C0
00C0
00C0
00C0
ENDCHAR
STARTCHAR C023121
ENCODING 9809
SWIDTH 1800 0
DWIDTH 18 0
BBX 18 9 0 -4
BITMAP
FFFFC0
006000
006000
006000
006000
006000
006000
006000
006000
ENDCHAR
STARTCHAR C023122
ENCODING 9810
SWIDTH 1800 0
DWIDTH 18 0
BBX 19 9 0 -4
BITMAP
FFFFE0
006000
006000
006000
006000
006000
006000
006000
006000
ENDCHAR
STARTCHAR C023123
ENCODING 9811
SWIDTH 1800 0
DWIDTH 18 0
BBX 19 9 0 -4
BITMAP
FFFFE0
00C000
00C000
00C000
00C000
00C000
00C000
00C000
00C000
ENDCHAR
STARTCHAR C023124
ENCODING 9812
SWIDTH 1800 0
DWIDTH 18 0
BBX 19 9 0 -4
BITMAP
FFFFE0
00C000
00C000
00C000
00C000
00C000
00C000
00C000
00C000
ENDCHAR
STARTCHAR C023125
ENCODING 9813
SWIDTH 1800 0
DWIDTH 18 0
BBX 18 9 0 4
BITMAP
006000
006000
006000
006000
006000
006000
006000
006000
FFFFC0
ENDCHAR
STARTCHAR C023126
ENCODING 9814
SWIDTH 1800 0
DWIDTH 18 0
BBX 18 9 0 4
BITMAP
006000
006000
006000
006000
006000
006000
006000
006000
FFFFC0
ENDCHAR
STARTCHAR C023127
ENCODING 9815
SWIDTH 1800 0
DWIDTH 18 0
BBX 18 9 0 4
BITMAP
00C000
00C000
00C000
00C000
00C000
00C000
00C000
00C000
FFFFC0
ENDCHAR
STARTCHAR C023130
ENCODING 9816
SWIDTH 1800 0
DWIDTH 18 0
BBX 18 9 0 4
BITMAP
00C000
00C000
00C000
00C000
00C000
00C000
00C000
00C000
FFFFC0
ENDCHAR
STARTCHAR C023131
ENCODING 9817
SWIDTH 1800 0
DWIDTH 18 0
BBX 18 16 0 -3
BITMAP
006000
006000
006000
006000
006000
006000
006000
006000
FFFFC0
006000
006000
006000
006000
006000
006000
006000
ENDCHAR
STARTCHAR C023132
ENCODING 9818
SWIDTH 1800 0
DWIDTH 18 0
BBX 18 16 0 -3
BITMAP
006000
006000
006000
006000
006000
006000
006000
006000
FFFFC0
006000
006000
006000
006000
006000
006000
006000
ENDCHAR
STARTCHAR C023133
ENCODING 9819
SWIDTH 1800 0
DWIDTH 18 0
BBX 18 16 0 -3
BITMAP
00C000
00C000
00C000
00C000
00C000
00C000
00C000
00C000
FFFFC0
006000
006000
006000
006000
006000
006000
006000
ENDCHAR
STARTCHAR C023134
ENCODING 9820
SWIDTH 1800 0
DWIDTH 18 0
BBX 18 17 0 -4
BITMAP
00C000
00C000
00C000
00C000
00C000
00C000
00C000
00C000
FFFFC0
00C000
00C000
00C000
00C000
00C000
00C000
00C000
00C000
ENDCHAR
STARTCHAR C023135
ENCODING 9821
SWIDTH 1800 0
DWIDTH 18 0
BBX 18 17 0 -4
BITMAP
00C000
00C000
00C000
00C000
00C000
00C000
00C000
00C000
FFFFC0
00C000
00C000
00C000
00C000
00C000
00C000
00C000
00C000
ENDCHAR
STARTCHAR C023136
ENCODING 9822
SWIDTH 1800 0
DWIDTH 18 0
BBX 18 17 0 -4
BITMAP
00C000
00C000
00C000
00C000
00C000
00C000
00C000
00C000
FFFFC0
00C000
00C000
00C000
00C000
00C000
00C000
00C000
00C000
ENDCHAR
STARTCHAR C023137
ENCODING 9823
SWIDTH 1800 0
DWIDTH 18 0
BBX 18 17 0 -4
BITMAP
00C000
00C000
00C000
00C000
00C000
00C000
00C000
00C000
FFFFC0
00C000
00C000
00C000
00C000
00C000
00C000
00C000
00C000
ENDCHAR
STARTCHAR C023140
ENCODING 9824
SWIDTH 1800 0
DWIDTH 18 0
BBX 18 17 0 -4
BITMAP
00C000
00C000
00C000
00C000
00C000
00C000
00C000
00C000
FFFFC0
00C000
00C000
00C000
00C000
00C000
00C000
00C000
00C000
ENDCHAR
STARTCHAR C023141
ENCODING 9825
SWIDTH 1800 0
DWIDTH 18 0
BBX 18 17 0 -4
BITMAP
00C000
00C000
00C000
00C000
00C000
00C000
00C000
00C000
FFFFC0
00C000
00C000
00C000
00C000
00C000
00C000
00C000
00C000
ENDCHAR
STARTCHAR C023142
ENCODING 9826
SWIDTH 1800 0
DWIDTH 18 0
BBX 18 17 0 -4
BITMAP
00C000
00C000
00C000
00C000
00C000
00C000
00C000
00C000
FFFFC0
00C000
00C000
00C000
00C000
00C000
00C000
00C000
00C000
ENDCHAR
STARTCHAR C023143
ENCODING 9827
SWIDTH 1800 0
DWIDTH 18 0
BBX 18 17 0 -4
BITMAP
00C000
00C000
00C000
00C000
00C000
00C000
00C000
00C000
FFFFC0
00C000
00C000
00C000
00C000
00C000
00C000
00C000
00C000
ENDCHAR
STARTCHAR C023144
ENCODING 9828
SWIDTH 1800 0
DWIDTH 18 0
BBX 18 17 0 -4
BITMAP
00C000
00C000
00C000
00C000
00C000
00C000
00C000
00C000
FFFFC0
00C000
00C000
00C000
00C000
00C000
00C000
00C000
00C000
ENDCHAR
STARTCHAR C023440
ENCODING 10016
SWIDTH 1800 0
DWIDTH 18 0
BBX 1 3 18 -2
BITMAP
80
80
80
ENDCHAR
STARTCHAR C023441
ENCODING 10017
SWIDTH 1800 0
DWIDTH 18 0
BBX 15 14 2 -2
BITMAP
003C
0036
19E6
19EC
31CC
33CC
33D8
63D8
66F0
66E6
67C6
EC6C
FC7C
C000
ENDCHAR
STARTCHAR C023442
ENCODING 10018
SWIDTH 1800 0
DWIDTH 18 0
BBX 15 13 2 -1
BITMAP
003C
007C
006C
FE6C
DECC
DECC
DED8
DED8
DEF0
DEE6
DFC6
DE6C
DE78
ENDCHAR
STARTCHAR C023443
ENCODING 10019
SWIDTH 1800 0
DWIDTH 18 0
BBX 15 14 2 -1
BITMAP
0300
033C
037C
1F6C
3F6C
67CC
C7CC
C7D8
C7D8
C7F0
C7E6
67C6
676C
3F78
ENDCHAR
STARTCHAR C023444
ENCODING 10020
SWIDTH 1800 0
DWIDTH 18 0
BBX 10 16 5 -4
BITMAP
1E00
3E00
3600
3600
6600
6600
6C00
6C00
7800
7300
E600
3600
3C00
0000
0000
0940
ENDCHAR
STARTCHAR C023445
ENCODING 10021
SWIDTH 1800 0
DWIDTH 18 0
BBX 15 16 2 -4
BITMAP
C03C
C036
C066
C66C
CCCC
DCCC
D8D8
F0D8
F0F0
D8E6
CDC6
C66C
C67C
0000
0000
0002
ENDCHAR
STARTCHAR C023446
ENCODING 10022
SWIDTH 1800 0
DWIDTH 18 0
BBX 14 14 2 -4
BITMAP
3C78
6EDC
C78C
C78C
C180
C180
C180
C78C
C78C
6ECC
3C78
0000
0000
6000
ENDCHAR
STARTCHAR C023447
ENCODING 10023
SWIDTH 1800 0
DWIDTH 18 0
BBX 17 16 2 -4
BITMAP
000600
000600
000600
FFF600
FFFC00
FFF000
FFF000
FFF000
FFF000
FFF000
FFF000
FFF000
FFF000
000000
000000
001680
ENDCHAR
STARTCHAR C023450
ENCODING 10024
SWIDTH 1800 0
DWIDTH 18 0
BBX 15 13 2 -1
BITMAP
000E
0006
0006
F7FE
DFF0
1EF0
1EF0
06F0
06F0
1EF0
1EF0
DEF0
F6F0
ENDCHAR
STARTCHAR C023451
ENCODING 10025
SWIDTH 1800 0
DWIDTH 18 0
BBX 15 13 2 -1
BITMAP
000E
0006
0006
FDEE
EF30
C630
C630
C630
C630
C630
C630
C630
C630
ENDCHAR
STARTCHAR C023452
ENCODING 10026
SWIDTH 1800 0
DWIDTH 18 0
BBX 15 14 2 -2
BITMAP
C00E
C006
C006
DFFE
DEF0
F6F0
F6F0
E6F0
E6F0
F6F0
F6F0
DEF0
DEF0
C000
ENDCHAR
STARTCHAR C023453
ENCODING 10027
SWIDTH 1800 0
DWIDTH 18 0
BBX 15 14 2 -1
BITMAP
0C00
3E00
3000
3000
FFFE
31F6
31B6
31B6
31B6
31B6
31B6
31B6
31B6
31B6
ENDCHAR
STARTCHAR C023454
ENCODING 10028
SWIDTH 1800 0
DWIDTH 18 0
BBX 15 10 2 -1
BITMAP
FDFE
CDB6
CDB6
CDB6
CDB6
CDB6
CDB6
CDB6
CDB6
CDB6
ENDCHAR
STARTCHAR C023455
ENCODING 10029
SWIDTH 1800 0
DWIDTH 18 0
BBX 15 11 2 -2
BITMAP
1BFE
33DE
33DE
36DE
66DE
66DE
66DE
6CDE
ECDE
FCDE
C000
ENDCHAR
STARTCHAR C023456
ENCODING 10030
SWIDTH 1800 0
DWIDTH 18 0
BBX 15 10 2 -1
BITMAP
FEFE
DEFE
DEF6
DEF6
DEF6
DEF6
DEF6
DEF6
DEF6
DEF6
ENDCHAR
STARTCHAR C023457
ENCODING 10031
SWIDTH 1800 0
DWIDTH 18 0
BBX 15 10 2 -1
BITMAP
7DFE
6FB6
C7B6
C7B6
C1B6
C1B6
C7B6
C7B6
6FB6
3DB6
ENDCHAR
STARTCHAR C023460
ENCODING 10032
SWIDTH 1800 0
DWIDTH 18 0
BBX 15 14 2 -2
BITMAP
C000
C000
C000
CFFC
CFB6
DB36
F336
F336
F336
FB36
DB36
CF36
CF36
C000
ENDCHAR
STARTCHAR C023461
ENCODING 10033
SWIDTH 1800 0
DWIDTH 18 0
BBX 15 14 2 -1
BITMAP
000E
000E
0006
000C
FFFE
FFF0
FFF0
FFF0
FFF0
FFF0
FFF0
FFF0
FFF0
FFF0
ENDCHAR
STARTCHAR C023462
ENCODING 10034
SWIDTH 1800 0
DWIDTH 18 0
BBX 16 14 2 -1
BITMAP
000E
000E
0006
000C
77FF
FEF0
DEF0
DEF0
C6F0
C6F0
DEF0
DEF0
FEF0
76F0
ENDCHAR
STARTCHAR C023463
ENCODING 10035
SWIDTH 1800 0
DWIDTH 18 0
BBX 15 17 2 -4
BITMAP
000E
000E
0006
000C
FDEE
EF30
C630
C630
C630
C630
C630
C630
C630
C630
0000
0000
0940
ENDCHAR
STARTCHAR C023464
ENCODING 10036
SWIDTH 1800 0
DWIDTH 18 0
BBX 15 17 2 -4
BITMAP
000E
C00E
C006
C00C
DFFE
DEF0
F6F0
F6F0
E6F0
E6F0
F6F0
F6F0
DEF0
DEF0
0000
0000
0002
ENDCHAR
STARTCHAR C023465
ENCODING 10037
SWIDTH 1800 0
DWIDTH 18 0
BBX 15 16 2 -4
BITMAP
C000
C000
C000
D83C
FC66
C606
C606
C63E
C666
C6C6
C6C6
C6CE
C67E
0600
0000
6000
ENDCHAR
STARTCHAR C023466
ENCODING 10038
SWIDTH 1800 0
DWIDTH 18 0
BBX 17 14 2 -4
BITMAP
000600
33FC00
33CC00
36CC00
367C00
66C000
66F800
6CCE00
6D8600
FD8600
FCFC00
C00000
000000
001680
ENDCHAR
STARTCHAR C023467
ENCODING 10039
SWIDTH 1800 0
DWIDTH 18 0
BBX 15 11 2 -1
BITMAP
0006
FCFC
FCCC
FCCC
FCCC
FDF8
FCF0
FCDC
FD86
FD86
FCFC
ENDCHAR
STARTCHAR C023470
ENCODING 10040
SWIDTH 1800 0
DWIDTH 18 0
BBX 15 14 2 -2
BITMAP
C000
C000
C00C
C6FC
CD8C
D9CC
F0F8
F180
F0F8
D98C
DD86
CD86
C6FC
C000
ENDCHAR
STARTCHAR C023471
ENCODING 10041
SWIDTH 1800 0
DWIDTH 18 0
BBX 15 14 2 -2
BITMAP
C060
C060
C060
C660
C7FC
CC60
D860
F060
F060
D860
CC60
CE66
C63C
C000
ENDCHAR
STARTCHAR C023472
ENCODING 10042
SWIDTH 1800 0
DWIDTH 18 0
BBX 15 13 2 -1
BITMAP
0006
0006
0006
79E6
6FB6
CC36
CC36
C1F6
C336
CF36
CE36
6F76
79F6
ENDCHAR
STARTCHAR C023473
ENCODING 10043
SWIDTH 1800 0
DWIDTH 18 0
BBX 15 13 2 -1
BITMAP
C006
C006
C006
DFF6
F79E
FD9E
FDBE
EC7E
FCDE
FDDE
FDDE
DDDE
DF7E
ENDCHAR
STARTCHAR C023474
ENCODING 10044
SWIDTH 1800 0
DWIDTH 18 0
BBX 15 14 2 -1
BITMAP
07FC
078E
0786
0786
7F86
EF8C
C7FC
C78E
C786
C786
C786
C786
678C
3DFC
ENDCHAR
STARTCHAR C023475
ENCODING 10045
SWIDTH 1800 0
DWIDTH 18 0
BBX 15 15 2 -3
BITMAP
FF00
DB0C
DB18
DB30
DB60
DBC0
0180
0300
06F8
0CCC
18C0
307C
6006
C0C6
007C
ENDCHAR
STARTCHAR C023476
ENCODING 10046
SWIDTH 1800 0
DWIDTH 18 0
BBX 15 15 2 -3
BITMAP
FF06
DB0C
DB18
DB30
DB60
DBC6
018C
030E
07E0
0FB0
1980
30F0
6018
C318
01F0
ENDCHAR
STARTCHAR C023477
ENCODING 10047
SWIDTH 1800 0
DWIDTH 18 0
BBX 15 12 2 -3
BITMAP
F87C
ECCC
C6C0
C6C0
C670
C61C
C606
C786
ECCE
FC7C
C000
C000
ENDCHAR
STARTCHAR C023500
ENCODING 10048
SWIDTH 1800 0
DWIDTH 18 0
BBX 15 10 2 -1
BITMAP
FE7C
E6CC
C7C0
C6C0
C670
C61C
C606
C786
C6CE
C67C
ENDCHAR
STARTCHAR C023501
ENCODING 10049
SWIDTH 1800 0
DWIDTH 18 0
BBX 15 11 2 -2
BITMAP
337C
33C6
33C6
66E0
6638
660E
6606
CCC6
ECC6
FC7C
C000
ENDCHAR
STARTCHAR C023502
ENCODING 10050
SWIDTH 1800 0
DWIDTH 18 0
BBX 15 13 2 -4
BITMAP
FC7C
FCCC
FCC6
FCC0
FC70
FC1C
FC06
FCC6
FCCE
FC7C
0000
0000
0940
ENDCHAR
STARTCHAR C023503
ENCODING 10051
SWIDTH 1800 0
DWIDTH 18 0
BBX 15 16 2 -4
BITMAP
0186
0186
018C
D8CC
FECC
C6CC
C3CC
C378
C378
C378
C378
E678
FC30
C000
C000
0002
ENDCHAR
STARTCHAR C023504
ENCODING 10052
SWIDTH 1800 0
DWIDTH 18 0
BBX 15 16 2 -4
BITMAP
0186
0186
018C
FFCC
E3CC
C3CC
C3CC
C378
C378
C378
C378
C378
C330
0000
0000
6000
ENDCHAR
STARTCHAR C023505
ENCODING 10053
SWIDTH 1800 0
DWIDTH 18 0
BBX 17 16 2 -4
BITMAP
018600
00C600
00C600
33C600
33CC00
36CC00
666C00
666C00
666C00
6C7800
6C3800
EC3800
FC3800
C00000
000000
001680
ENDCHAR
STARTCHAR C023506
ENCODING 10054
SWIDTH 1800 0
DWIDTH 18 0
BBX 15 13 2 -1
BITMAP
0186
0186
00CC
FECC
DECC
DECC
DECC
DE78
DE78
DE78
DE78
DE38
DE30
ENDCHAR
STARTCHAR C023507
ENCODING 10055
SWIDTH 1800 0
DWIDTH 18 0
BBX 15 14 2 -1
BITMAP
C000
C186
C186
C18C
C6CC
CCCC
D8CC
F0CC
F078
F078
D878
CC78
CE78
C730
ENDCHAR
STARTCHAR C023510
ENCODING 10056
SWIDTH 1800 0
DWIDTH 18 0
BBX 15 14 2 -1
BITMAP
0180
EF86
EF86
EEC6
EECC
FECC
FECC
FECC
FE6C
FE78
FE78
FE78
FE38
F630
ENDCHAR
STARTCHAR C023511
ENCODING 10057
SWIDTH 1800 0
DWIDTH 18 0
BBX 15 15 2 -3
BITMAP
0030
0038
0078
FE78
E678
C378
C3CC
C3CC
C3CC
C3FC
E6CC
FD86
C186
C006
C000
ENDCHAR
STARTCHAR C023512
ENCODING 10058
SWIDTH 1800 0
DWIDTH 18 0
BBX 15 14 2 -2
BITMAP
0030
0038
0078
FE78
E678
C678
C6CC
C6CC
C6CC
C6FC
C6CC
C786
C786
0006
ENDCHAR
STARTCHAR C023513
ENCODING 10059
SWIDTH 1800 0
DWIDTH 18 0
BBX 15 14 2 -2
BITMAP
0038
0038
0078
31F8
31EC
336C
336C
63CC
66FC
66C6
66C6
EEC6
FE00
C000
ENDCHAR
STARTCHAR C023514
ENCODING 10060
SWIDTH 1800 0
DWIDTH 18 0
BBX 15 14 2 -2
BITMAP
0030
0038
0078
FE78
DE78
DE78
DE6C
DECC
DECC
DEFC
DECC
DEC6
DF86
0006
ENDCHAR
STARTCHAR C023515
ENCODING 10061
SWIDTH 1800 0
DWIDTH 18 0
BBX 15 14 2 -2
BITMAP
C030
C070
C078
C678
CC78
D878
F0D8
F0CC
F0CC
D8FC
DCCC
CD8C
C786
0006
ENDCHAR
STARTCHAR C023516
ENCODING 10062
SWIDTH 1800 0
DWIDTH 18 0
BBX 15 15 2 -3
BITMAP
03B6
03B6
03F6
FBFE
EFFE
C7FE
C7FE
C7FE
C7FE
C7DC
CFCC
EDCC
F9CC
C000
C000
ENDCHAR
STARTCHAR C023517
ENCODING 10063
SWIDTH 1800 0
DWIDTH 18 0
BBX 15 13 2 -1
BITMAP
03B6
03B6
03B6
FFFE
C7FE
C7FE
C7FE
C7FE
C7FE
C7DC
C7CC
C7CC
C7CC
ENDCHAR
STARTCHAR C023520
ENCODING 10064
SWIDTH 1800 0
DWIDTH 18 0
BBX 15 14 2 -2
BITMAP
03BE
03FE
03FE
67FE
67FE
67FE
67FE
CDFE
CDEE
CDC6
CDC6
EDC6
FDC6
C000
ENDCHAR
STARTCHAR C023521
ENCODING 10065
SWIDTH 1800 0
DWIDTH 18 0
BBX 15 16 2 -4
BITMAP
03B6
03B6
03F6
FFF6
FFFE
DFFE
DFFE
DFFE
DFDE
DFDC
DFDC
DFCC
DFCC
0000
0000
0940
ENDCHAR
STARTCHAR C023522
ENCODING 10066
SWIDTH 1800 0
DWIDTH 18 0
BBX 15 16 2 -4
BITMAP
C66C
C6EC
C6EC
CFEC
DFEC
DBFC
F3FC
F3FC
F3F8
D9F8
D9B8
CDB8
C798
0000
0000
0002
ENDCHAR
STARTCHAR C023523
ENCODING 10067
SWIDTH 1800 0
DWIDTH 18 0
BBX 15 16 2 -4
BITMAP
EFBE
EFBE
EFFE
EEFE
EEFE
EEFE
FEFC
FEFC
FEFC
FE7C
FE7C
FE7C
F67C
0000
0000
6000
ENDCHAR
STARTCHAR C023524
ENCODING 10068
SWIDTH 1800 0
DWIDTH 18 0
BBX 17 16 2 -4
BITMAP
C60000
C60000
C60000
C6FE00
C60C00
C61800
FE1800
C63000
C66000
C66000
C6C000
C6C000
C7FE00
000000
000000
001680
ENDCHAR
STARTCHAR C023525
ENCODING 10069
SWIDTH 1800 0
DWIDTH 18 0
BBX 15 14 2 -2
BITMAP
C6C0
C6C0
C6C0
DEFE
F6C6
F6CC
E7CC
E6CC
E6D8
F6D8
F6F0
DEF0
DEFE
06C0
ENDCHAR
STARTCHAR C023526
ENCODING 10070
SWIDTH 1800 0
DWIDTH 18 0
BBX 15 14 2 -1
BITMAP
0300
CF60
DF60
DF60
DF7E
DF66
FFEC
FF6C
FF6C
FF78
FF78
FF78
FF70
FF7E
ENDCHAR
STARTCHAR C023527
ENCODING 10071
SWIDTH 1800 0
DWIDTH 18 0
BBX 15 14 2 -2
BITMAP
7E60
6E60
CE60
CE7E
C666
C666
C7EC
DE6C
CE6C
CE78
CE78
CE78
6E7E
3E60
ENDCHAR
STARTCHAR C023530
ENCODING 10072
SWIDTH 1800 0
DWIDTH 18 0
BBX 15 15 2 -2
BITMAP
FC00
3360
3360
3360
337E
3366
3366
33EC
336C
3378
3378
3378
3370
337E
0360
ENDCHAR
STARTCHAR C023531
ENCODING 10073
SWIDTH 1800 0
DWIDTH 18 0
BBX 12 13 4 -1
BITMAP
1F00
71C0
60C0
C060
C060
C060
C060
E0C0
71C0
3B80
1B00
1B00
FBF0
ENDCHAR
STARTCHAR C023532
ENCODING 10074
SWIDTH 1800 0
DWIDTH 18 0
BBX 15 15 2 -2
BITMAP
00F8
C1DC
C18C
C306
CF06
DB06
DB06
F306
F18C
F0CC
F078
D878
CC78
CFFE
C000
ENDCHAR
STARTCHAR C023533
ENCODING 10075
SWIDTH 1800 0
DWIDTH 18 0
BBX 15 14 2 -1
BITMAP
00F8
CFDC
DF8C
DF06
DF06
DF06
FF06
FF06
FF8C
FF8C
FED8
F6D8
F6D8
F7DE
ENDCHAR
STARTCHAR C023534
ENCODING 10076
SWIDTH 1800 0
DWIDTH 18 0
BBX 15 15 2 -3
BITMAP
01FE
0180
0180
D980
FD80
C7FC
C780
C780
C780
C780
C780
ED80
FD80
C000
C000
ENDCHAR
STARTCHAR C023535
ENCODING 10077
SWIDTH 1800 0
DWIDTH 18 0
BBX 15 14 2 -1
BITMAP
00FE
00C0
00C0
00C0
FEC0
C6C0
C6FE
C6C0
C6C0
C6C0
C6C0
C6C0
C6C0
C6C0
ENDCHAR
STARTCHAR C023536
ENCODING 10078
SWIDTH 1800 0
DWIDTH 18 0
BBX 15 15 2 -2
BITMAP
00FE
00C0
00C0
00C0
33C0
33C0
33FE
66C0
66C0
66C0
66C0
6CC0
ECC0
F8C0
C0C0
ENDCHAR
STARTCHAR C023537
ENCODING 10079
SWIDTH 1800 0
DWIDTH 18 0
BBX 15 13 2 -1
BITMAP
0006
0006
0006
FEF6
DEF6
DF9E
DF9E
DF9E
DF9E
DF9E
DF9E
DEF6
DEF6
ENDCHAR
STARTCHAR C023540
ENCODING 10080
SWIDTH 1800 0
DWIDTH 18 0
BBX 15 16 2 -4
BITMAP
0006
0006
0006
3E3E
676E
C3C6
C3C6
C0C6
C0C6
C3C6
C6C6
666E
3C3E
0000
0000
0940
ENDCHAR
STARTCHAR C023541
ENCODING 10081
SWIDTH 1800 0
DWIDTH 18 0
BBX 15 16 2 -4
BITMAP
0006
0006
0006
FB9E
E6FE
C6E6
C1E6
C3E6
C6E6
CCE6
CCE6
C6E6
C7FE
001E
0000
0002
ENDCHAR
STARTCHAR C023542
ENCODING 10082
SWIDTH 1800 0
DWIDTH 18 0
BBX 15 16 2 -4
BITMAP
0030
0030
FEF0
FFB0
CFB0
FFB0
F7FE
DC3C
0070
00DC
03B6
0618
1C0E
3036
601C
6000
ENDCHAR
STARTCHAR C023543
ENCODING 10083
SWIDTH 1800 0
DWIDTH 18 0
BBX 17 16 1 -4
BITMAP
003000
003000
FEF000
FFB000
CFB000
FFB300
F7F600
DC1F00
003300
00FF80
01BC00
071C00
0C3C00
183C00
001800
001680
ENDCHAR
STARTCHAR C023544
ENCODING 10084
SWIDTH 1800 0
DWIDTH 18 0
BBX 14 10 3 -1
BITMAP
7CFC
CEE0
C6C0
C0C0
70C0
1CC0
06C0
C6C0
CEC0
7CC0
ENDCHAR
STARTCHAR C023545
ENCODING 10085
SWIDTH 1800 0
DWIDTH 18 0
BBX 15 13 2 -1
BITMAP
FC00
C600
C300
C37C
C366
C3C6
C606
FC3E
C0E6
C0C6
C0C6
C0CE
C07E
ENDCHAR
STARTCHAR C023546
ENCODING 10086
SWIDTH 1800 0
DWIDTH 18 0
BBX 15 13 2 -1
BITMAP
C7C0
C6C0
C6C0
DEFC
F6E6
F6E6
F6C6
E79E
F636
F636
DE36
DE36
DE1E
ENDCHAR
STARTCHAR C023547
ENCODING 10087
SWIDTH 1800 0
DWIDTH 18 0
BBX 15 14 2 -2
BITMAP
CFC0
DF60
DF60
DF7E
DF76
FF76
FFEE
FFDE
FF36
FF36
FF36
FF36
FF1E
0300
ENDCHAR
STARTCHAR C023550
ENCODING 10088
SWIDTH 1800 0
DWIDTH 18 0
BBX 15 14 2 -1
BITMAP
3800
6FE0
6F60
CF60
C37C
C366
C366
DF66
CFDE
CF36
CF36
CF36
7F36
7F3E
ENDCHAR
STARTCHAR C023551
ENCODING 10089
SWIDTH 1800 0
DWIDTH 18 0
BBX 15 14 2 -1
BITMAP
00C0
DFC0
FFC0
FFC0
FFFC
FFEE
FFC6
FEC6
FEC6
FEC6
EEC6
EECC
EEEC
EEF8
ENDCHAR
STARTCHAR C023552
ENCODING 10090
SWIDTH 1800 0
DWIDTH 18 0
BBX 13 14 3 -1
BITMAP
C000
C000
C000
C000
DFF0
DDD8
D998
D998
D998
D998
D998
D998
D998
D998
ENDCHAR
STARTCHAR C023553
ENCODING 10091
SWIDTH 1800 0
DWIDTH 18 0
BBX 11 14 4 -2
BITMAP
C000
C000
C000
D860
CCC0
C6C0
C780
C380
C380
C380
C6C0
CCC0
CC60
C000
ENDCHAR
STARTCHAR C023554
ENCODING 10092
SWIDTH 1800 0
DWIDTH 18 0
BBX 15 15 2 -2
BITMAP
FC00
CE00
C600
C606
C6FE
CCCE
FD86
C786
C786
C386
C3C6
C3CE
C67E
FC06
0006
ENDCHAR
STARTCHAR C023555
ENCODING 10093
SWIDTH 1800 0
DWIDTH 18 0
BBX 15 16 2 -3
BITMAP
3C00
6600
C300
C300
C0C6
C0C6
C0CC
CFCC
C36C
C378
C378
C378
6730
3F30
0030
00E0
ENDCHAR
STARTCHAR C023556
ENCODING 10094
SWIDTH 1800 0
DWIDTH 18 0
BBX 15 14 2 -1
BITMAP
3C00
6600
C300
C000
C0C6
60C6
386C
0E6C
036C
036C
C338
C338
6738
3E18
ENDCHAR
STARTCHAR C023557
ENCODING 10095
SWIDTH 1800 0
DWIDTH 18 0
BBX 15 16 2 -4
BITMAP
7000
C600
C600
CC00
CC00
CE00
7E00
1EDE
37BC
37BC
37BC
66F0
66FE
C066
C03E
0940
ENDCHAR
STARTCHAR C024040
ENCODING 10272
SWIDTH 1800 0
DWIDTH 18 0
BBX 18 5 1 -4
BITMAP
000040
000000
000000
000000
C00000
ENDCHAR
STARTCHAR C024041
ENCODING 10273
SWIDTH 1800 0
DWIDTH 18 0
BBX 17 15 2 -4
BITMAP
03FC00
070000
0F0000
0F0000
1B0000
1BFC00
330000
3F0000
630000
630000
C30000
03FE00
000000
000000
001680
ENDCHAR
STARTCHAR C024042
ENCODING 10274
SWIDTH 1800 0
DWIDTH 18 0
BBX 11 12 4 -1
BITMAP
3F00
31C0
30C0
3060
3060
FE60
3060
3060
3060
30C0
31C0
3F80
ENDCHAR
STARTCHAR C024043
ENCODING 10275
SWIDTH 1800 0
DWIDTH 18 0
BBX 9 12 5 -1
BITMAP
3C00
6700
C300
0300
3F00
6300
C300
C300
EF00
3980
0000
FF80
ENDCHAR
STARTCHAR C024044
ENCODING 10276
SWIDTH 1800 0
DWIDTH 18 0
BBX 13 12 3 -1
BITMAP
3060
3060
FFF8
3060
3060
3FE0
3060
3060
3060
3060
3060
3060
ENDCHAR
STARTCHAR C024045
ENCODING 10277
SWIDTH 1800 0
DWIDTH 18 0
BBX 1 12 18 -1
BITMAP
80
80
80
80
80
80
80
80
80
80
80
80
ENDCHAR
STARTCHAR C024046
ENCODING 10278
SWIDTH 1800 0
DWIDTH 18 0
BBX 9 12 5 -1
BITMAP
C180
C180
C180
C180
C180
C180
C180
C180
F180
F180
F380
DF00
ENDCHAR
STARTCHAR C024047
ENCODING 10279
SWIDTH 1800 0
DWIDTH 18 0
BBX 0 0 0 0
BITMAP
ENDCHAR
STARTCHAR C024050
ENCODING 10280
SWIDTH 1800 0
DWIDTH 18 0
BBX 8 12 6 -1
BITMAP
C0
C0
C0
C0
C0
D8
D8
C0
C0
C0
C0
FF
ENDCHAR
STARTCHAR C024051
ENCODING 10281
SWIDTH 1800 0
DWIDTH 18 0
BBX 10 12 4 -1
BITMAP
3000
3600
3C00
3C00
3800
3000
3000
7000
F000
3000
3000
3FC0
ENDCHAR
STARTCHAR C024052
ENCODING 10282
SWIDTH 1800 0
DWIDTH 18 0
BBX 12 13 3 -2
BITMAP
1FB0
38E0
30E0
61E0
6360
6330
6630
6C60
7860
3060
38C0
7F80
C000
ENDCHAR
STARTCHAR C024053
ENCODING 10283
SWIDTH 1800 0
DWIDTH 18 0
BBX 15 12 2 -1
BITMAP
3FFE
7300
6300
C300
C300
C3FC
C300
C300
C300
6300
6300
3FFE
ENDCHAR
STARTCHAR C024054
ENCODING 10284
SWIDTH 1800 0
DWIDTH 18 0
BBX 9 12 5 -1
BITMAP
1C00
7700
E380
C180
C180
C180
C180
E300
7700
1C00
0000
FF80
ENDCHAR
STARTCHAR C024055
ENCODING 10285
SWIDTH 1800 0
DWIDTH 18 0
BBX 10 15 5 -4
BITMAP
C000
C000
C000
FF00
C380
C180
C180
C180
FF00
C000
C000
C000
0000
0000
0940
ENDCHAR
STARTCHAR C024056
ENCODING 10286
SWIDTH 1800 0
DWIDTH 18 0
BBX 15 14 4 -4
BITMAP
FFC0
0C00
0C00
0C00
0C00
7F80
7F80
0C00
0C00
0C00
0C00
0000
0000
0002
ENDCHAR
STARTCHAR C024057
ENCODING 10287
SWIDTH 1800 0
DWIDTH 18 0
BBX 8 15 5 -4
BITMAP
FE
E3
C3
C3
C3
C3
C3
C3
C3
C3
C3
DE
00
00
60
ENDCHAR
STARTCHAR C024060
ENCODING 10288
SWIDTH 1800 0
DWIDTH 18 0
BBX 8 13 11 -4
BITMAP
01
01
00
00
00
00
00
01
01
00
00
00
B4
ENDCHAR
STARTCHAR C024061
ENCODING 10289
SWIDTH 1800 0
DWIDTH 18 0
BBX 15 15 2 -3
BITMAP
0FC0
3870
6018
C00C
FFFC
0036
0036
0036
0036
0036
C06C
C00C
6018
3870
0FC0
ENDCHAR
STARTCHAR C024062
ENCODING 10290
SWIDTH 1800 0
DWIDTH 18 0
BBX 15 15 2 -3
BITMAP
0FC0
3870
6018
C00C
D80C
1806
1806
1806
1806
1806
DFFC
C00C
6018
3870
0FC0
ENDCHAR
STARTCHAR C024063
ENCODING 10291
SWIDTH 1800 0
DWIDTH 18 0
BBX 15 15 2 -3
BITMAP
0FC0
3870
6018
C00C
DFFC
1806
1806
1806
1806
1806
DFFC
C00C
6018
3870
0FC0
ENDCHAR
STARTCHAR C024064
ENCODING 10292
SWIDTH 1800 0
DWIDTH 18 0
BBX 15 15 2 -3
BITMAP
0FC0
3870
6018
C00C
DFFC
0036
0036
1FF6
1806
1806
DFFC
C00C
6018
3870
0FC0
ENDCHAR
STARTCHAR C024065
ENCODING 10293
SWIDTH 1800 0
DWIDTH 18 0
BBX 15 15 2 -3
BITMAP
0FC0
3870
6018
C00C
DFFC
1836
1836
1836
1836
1836
DFFC
C00C
6018
3870
0FC0
ENDCHAR
STARTCHAR C024066
ENCODING 10294
SWIDTH 1800 0
DWIDTH 18 0
BBX 15 15 2 -3
BITMAP
0FC0
3870
6018
C00C
D83C
1836
1FF6
1836
1836
1836
DFFC
C00C
6018
3870
0FC0
ENDCHAR
STARTCHAR C024067
ENCODING 10295
SWIDTH 1800 0
DWIDTH 18 0
BBX 15 15 2 -3
BITMAP
0FC0
3870
6018
C30C
C30C
0306
0306
0786
0EC6
1CE6
F07C
C00C
6018
3870
0FC0
ENDCHAR
STARTCHAR C024070
ENCODING 10296
SWIDTH 1800 0
DWIDTH 18 0
BBX 15 15 2 -3
BITMAP
0FC0
3870
6018
C7CC
CC6C
1C76
1836
1836
1836
1C76
CC6C
C7CC
6018
3870
0FC0
ENDCHAR
STARTCHAR C024071
ENCODING 10297
SWIDTH 1800 0
DWIDTH 18 0
BBX 15 15 2 -3
BITMAP
0FC0
3870
6018
C00C
FFFC
0306
0386
0786
06C6
0C66
F83C
C00C
6018
3870
0FC0
ENDCHAR
STARTCHAR C024072
ENCODING 10298
SWIDTH 1800 0
DWIDTH 18 0
BBX 15 15 2 -3
BITMAP
0FC0
3870
6018
CFCC
C00C
3FFE
0306
0386
06C6
0C66
F83C
C00C
6018
3870
0FC0
ENDCHAR
STARTCHAR C024073
ENCODING 10299
SWIDTH 1800 0
DWIDTH 18 0
BBX 15 15 2 -3
BITMAP
0FC0
3870
6018
C00C
DFFC
0036
0036
00F6
1FB6
0066
C06C
C00C
6018
3870
0FC0
ENDCHAR
STARTCHAR C024074
ENCODING 10300
SWIDTH 1800 0
DWIDTH 18 0
BBX 15 16 2 -4
BITMAP
0FC0
3870
6018
C00C
DFFC
1806
1806
1FF6
1806
1806
DFFC
C00C
6018
3870
0FC0
0940
ENDCHAR
STARTCHAR C024075
ENCODING 10301
SWIDTH 1800 0
DWIDTH 18 0
BBX 15 16 2 -4
BITMAP
0FC0
3870
6018
C00C
DFFC
0006
0C66
0CC6
0CC6
0CC6
FFFC
C00C
6018
3870
0FC0
0002
ENDCHAR
STARTCHAR C024076
ENCODING 10302
SWIDTH 1800 0
DWIDTH 18 0
BBX 15 16 2 -4
BITMAP
0FC0
3870
6018
CFCC
C00C
3FF6
0006
0FC6
1CE6
1866
D86C
DCEC
6FD8
3870
0FC0
6000
ENDCHAR
STARTCHAR C024077
ENCODING 10303
SWIDTH 1800 0
DWIDTH 18 0
BBX 17 16 2 -4
BITMAP
0FC000
387000
607800
C06C00
FF6C00
036600
036600
067E00
066600
0C6600
F86C00
C06C00
607800
387000
0FC000
001680
ENDCHAR
STARTCHAR C024100
ENCODING 10304
SWIDTH 1800 0
DWIDTH 18 0
BBX 15 15 2 -3
BITMAP
0FC0
3870
6078
C06C
F06C
3066
3066
307E
3066
31E6
FF6C
C06C
6078
3870
0FC0
ENDCHAR
STARTCHAR C024101
ENCODING 10305
SWIDTH 1800 0
DWIDTH 18 0
BBX 15 15 2 -3
BITMAP
0FC0
3870
6078
C06C
FF6C
3066
3066
307E
3066
3066
FFEC
C06C
6078
3870
0FC0
ENDCHAR
STARTCHAR C024102
ENCODING 10306
SWIDTH 1800 0
DWIDTH 18 0
BBX 15 15 2 -3
BITMAP
0FC0
3870
6078
C06C
DFEC
01E6
01E6
1FFE
1866
1866
DFEC
C06C
6078
3870
0FC0
ENDCHAR
STARTCHAR C024103
ENCODING 10307
SWIDTH 1800 0
DWIDTH 18 0
BBX 15 15 2 -3
BITMAP
0FC0
3870
6078
C06C
FF6C
3366
3366
337E
3366
3366
FF6C
C06C
6078
3870
0FC0
ENDCHAR
STARTCHAR C024104
ENCODING 10308
SWIDTH 1800 0
DWIDTH 18 0
BBX 15 15 2 -3
BITMAP
0FC0
3870
6078
C06C
F36C
3366
3366
3F7E
3366
3366
FF6C
C06C
6078
3870
0FC0
ENDCHAR
STARTCHAR C024105
ENCODING 10309
SWIDTH 1800 0
DWIDTH 18 0
BBX 15 15 2 -3
BITMAP
0FC0
3870
6078
C06C
CC6C
0C66
0C66
0C7E
1E66
3366
E1EC
C06C
6078
3870
0FC0
ENDCHAR
STARTCHAR C024106
ENCODING 10310
SWIDTH 1800 0
DWIDTH 18 0
BBX 15 15 2 -3
BITMAP
0FC0
3870
6078
C06C
DE6C
3366
3366
337E
3366
3366
DE6C
C06C
6078
3870
0FC0
ENDCHAR
STARTCHAR C024107
ENCODING 10311
SWIDTH 1800 0
DWIDTH 18 0
BBX 15 15 2 -3
BITMAP
0FC0
3870
6078
C06C
FF6C
0C66
0C66
0C7E
1E66
1E66
F36C
C06C
6078
3870
0FC0
ENDCHAR
STARTCHAR C024110
ENCODING 10312
SWIDTH 1800 0
DWIDTH 18 0
BBX 15 15 2 -3
BITMAP
0FC0
3870
6078
CF6C
C06C
1FE6
0666
067E
0E66
0F66
D9EC
C06C
6078
3870
0FC0
ENDCHAR
STARTCHAR C024111
ENCODING 10313
SWIDTH 1800 0
DWIDTH 18 0
BBX 15 15 2 -3
BITMAP
0FC0
3870
6078
C06C
FF6C
0366
0366
3F7E
0366
0666
CC6C
D86C
6078
3870
0FC0
ENDCHAR
STARTCHAR C024112
ENCODING 10314
SWIDTH 1800 0
DWIDTH 18 0
BBX 15 15 2 -3
BITMAP
0FC0
3870
6078
C06C
FF6C
3066
3066
3F7E
3066
31E6
FF6C
C06C
6078
3870
0FC0
ENDCHAR
STARTCHAR C024113
ENCODING 10315
SWIDTH 1800 0
DWIDTH 18 0
BBX 15 16 2 -4
BITMAP
0FC0
3870
6078
C06C
FFEC
1B66
1B66
1B7E
1B66
3FE6
C06C
C06C
6078
3870
0FC0
0940
ENDCHAR
STARTCHAR C024114
ENCODING 10316
SWIDTH 1800 0
DWIDTH 18 0
BBX 15 16 2 -4
BITMAP
0FC0
3870
6078
DF6C
C06C
7FE6
0066
1E7E
3366
3366
FB6C
DE6C
6078
3870
0FC0
0002
ENDCHAR
STARTCHAR C024115
ENCODING 10317
SWIDTH 1800 0
DWIDTH 18 0
BBX 15 16 2 -4
BITMAP
0FC0
3870
6018
C00C
C78C
0CC6
0CC6
07C6
0CC6
0CC6
CDCC
C7EC
6018
3870
0FC0
6000
ENDCHAR
STARTCHAR C024116
ENCODING 10318
SWIDTH 1800 0
DWIDTH 18 0
BBX 17 16 2 -4
BITMAP
0FC000
387000
781800
D80C00
D80C00
1F8600
1CC600
186600
186600
186600
D86C00
DCCC00
7F9800
387000
0FC000
001680
ENDCHAR
STARTCHAR C024117
ENCODING 10319
SWIDTH 1800 0
DWIDTH 18 0
BBX 15 15 2 -3
BITMAP
0FC0
3870
6018
C00C
C7CC
06E6
0C66
0C06
0C06
0C66
C6EC
C7CC
6018
3870
0FC0
ENDCHAR
STARTCHAR C024120
ENCODING 10320
SWIDTH 1800 0
DWIDTH 18 0
BBX 15 15 2 -3
BITMAP
0FC0
3870
6078
C06C
C06C
07E6
06E6
0C66
0C66
0C66
CC6C
C6EC
67F8
3870
0FC0
ENDCHAR
STARTCHAR C024121
ENCODING 10321
SWIDTH 1800 0
DWIDTH 18 0
BBX 15 15 2 -3
BITMAP
0FC0
3870
6018
C00C
C7CC
0E66
0C66
0FE6
0C06
0C66
C66C
C7CC
6018
3870
0FC0
ENDCHAR
STARTCHAR C024122
ENCODING 10322
SWIDTH 1800 0
DWIDTH 18 0
BBX 15 15 2 -3
BITMAP
0FC0
3870
61D8
C30C
C30C
0FC6
0306
0306
0306
0306
C30C
C30C
6318
3870
0FC0
ENDCHAR
STARTCHAR C024123
ENCODING 10323
SWIDTH 1800 0
DWIDTH 18 0
BBX 15 15 2 -3
BITMAP
0FC0
3870
67F8
C6EC
CC6C
0C66
0C66
0C66
0C66
0EE6
C7EC
CCCC
6798
3870
0FC0
ENDCHAR
STARTCHAR C024124
ENCODING 10324
SWIDTH 1800 0
DWIDTH 18 0
BBX 15 15 2 -3
BITMAP
0FC0
3870
6C18
CC0C
CC0C
0FC6
0E66
0C66
0C66
0C66
CC6C
CC6C
6C78
3870
0FC0
ENDCHAR
STARTCHAR C024125
ENCODING 10325
SWIDTH 1800 0
DWIDTH 18 0
BBX 15 15 2 -3
BITMAP
0FC0
3870
6018
C30C
C00C
0306
0306
0306
0306
0306
C30C
C30C
6318
3870
0FC0
ENDCHAR
STARTCHAR C024126
ENCODING 10326
SWIDTH 1800 0
DWIDTH 18 0
BBX 15 15 2 -3
BITMAP
0FC0
3B70
6318
C00C
C30C
0306
0306
0306
0306
0306
C30C
C30C
6318
3F70
0FC0
ENDCHAR
STARTCHAR C024127
ENCODING 10327
SWIDTH 1800 0
DWIDTH 18 0
BBX 15 15 2 -3
BITMAP
0FC0
3870
6618
C60C
C60C
0666
06C6
0786
0786
06C6
C6CC
C66C
6618
3870
0FC0
ENDCHAR
STARTCHAR C024130
ENCODING 10328
SWIDTH 1800 0
DWIDTH 18 0
BBX 15 15 2 -3
BITMAP
0FC0
3870
6318
C30C
C30C
0306
0306
0306
0306
0306
C30C
C30C
6318
3870
0FC0
ENDCHAR
STARTCHAR C024131
ENCODING 10329
SWIDTH 1800 0
DWIDTH 18 0
BBX 15 15 2 -3
BITMAP
0FC0
3870
6018
C00C
FFFC
3336
3336
3336
3336
3336
F33C
F33C
6018
3870
0FC0
ENDCHAR
STARTCHAR C024132
ENCODING 10330
SWIDTH 1800 0
DWIDTH 18 0
BBX 15 16 2 -4
BITMAP
0FC0
3870
6018
C00C
CFCC
0E66
0C66
0C66
0C66
0C66
CC6C
CC6C
6018
3870
0FC0
0940
ENDCHAR
STARTCHAR C024133
ENCODING 10331
SWIDTH 1800 0
DWIDTH 18 0
BBX 15 16 2 -4
BITMAP
0FC0
3870
6018
C00C
C7CC
06C6
0C66
0C66
0C66
0C66
C6CC
C7CC
6018
3870
0FC0
0002
ENDCHAR
STARTCHAR C024134
ENCODING 10332
SWIDTH 1800 0
DWIDTH 18 0
BBX 15 16 2 -4
BITMAP
0FC0
3870
6018
DF8C
DCCC
1866
1866
1866
1866
1CC6
DF8C
D80C
7818
3870
0FC0
6000
ENDCHAR
STARTCHAR C024135
ENCODING 10333
SWIDTH 1800 0
DWIDTH 18 0
BBX 17 16 2 -4
BITMAP
0FC000
387000
67F800
C6EC00
CC6C00
0C6600
0C6600
0C6600
0EE600
07E600
C06C00
C06C00
607800
387000
0FC000
001680
ENDCHAR
STARTCHAR C024136
ENCODING 10334
SWIDTH 1800 0
DWIDTH 18 0
BBX 15 15 2 -3
BITMAP
0FC0
3870
6018
C00C
C7CC
0706
0606
0606
0606
0606
C60C
C60C
6018
3870
0FC0
ENDCHAR
STARTCHAR C024137
ENCODING 10335
SWIDTH 1800 0
DWIDTH 18 0
BBX 15 15 2 -3
BITMAP
0FC0
3870
6018
C78C
C6CC
0C06
0706
03C6
00C6
0C66
CCCC
C7CC
6018
3870
0FC0
ENDCHAR
STARTCHAR C024140
ENCODING 10336
SWIDTH 1800 0
DWIDTH 18 0
BBX 15 15 2 -3
BITMAP
0FC0
3870
6318
C30C
C30C
0FC6
0306
0306
0306
0306
C30C
C30C
61D8
3870
0FC0
ENDCHAR
STARTCHAR C024141
ENCODING 10337
SWIDTH 1800 0
DWIDTH 18 0
BBX 15 15 2 -3
BITMAP
0FC0
3870
6018
C00C
CC6C
0C66
0C66
0C66
0C66
0C66
CCEC
C7EC
6018
3870
0FC0
ENDCHAR
STARTCHAR C024142
ENCODING 10338
SWIDTH 1800 0
DWIDTH 18 0
BBX 15 15 2 -3
BITMAP
0FC0
3870
6018
C00C
CC6C
0CC6
0CC6
06C6
0786
0786
C38C
C30C
6018
3870
0FC0
ENDCHAR
STARTCHAR C024143
ENCODING 10339
SWIDTH 1800 0
DWIDTH 18 0
BBX 15 15 2 -3
BITMAP
0FC0
3870
6018
C00C
F30C
33B6
1BB6
1FB6
1FE6
0EE6
CEEC
CCCC
6018
3870
0FC0
ENDCHAR
STARTCHAR C024144
ENCODING 10340
SWIDTH 1800 0
DWIDTH 18 0
BBX 15 15 2 -3
BITMAP
0FC0
3870
6018
CC0C
CCCC
07C6
0386
0306
0386
06C6
CCCC
CC6C
6018
3870
0FC0
ENDCHAR
STARTCHAR C024145
ENCODING 10341
SWIDTH 1800 0
DWIDTH 18 0
BBX 15 15 2 -3
BITMAP
0FC0
3870
6C18
CC0C
CCCC
06C6
06C6
0786
0386
0386
C30C
C30C
6F18
3870
0FC0
ENDCHAR
STARTCHAR C024146
ENCODING 10342
SWIDTH 1800 0
DWIDTH 18 0
BBX 15 15 2 -3
BITMAP
0FC0
3870
6018
C00C
CFEC
00C6
0186
0306
0606
0C06
CFEC
C00C
6018
3870
0FC0
ENDCHAR
STARTCHAR C024147
ENCODING 10343
SWIDTH 1800 0
DWIDTH 18 0
BBX 15 15 2 -3
BITMAP
0FC0
3870
6018
C18C
C18C
0F86
0186
0186
0186
0186
C18C
C18C
6198
3870
0FC0
ENDCHAR
STARTCHAR C024150
ENCODING 10344
SWIDTH 1800 0
DWIDTH 18 0
BBX 15 15 2 -3
BITMAP
0FC0
3870
67D8
CEEC
CC6C
0C66
0066
00C6
0186
0706
C60C
CC0C
6FF8
3870
0FC0
ENDCHAR
STARTCHAR C024151
ENCODING 10345
SWIDTH 1800 0
DWIDTH 18 0
BBX 15 16 2 -4
BITMAP
0FC0
3870
6798
CCCC
CCCC
0CC6
01C6
0786
00E6
1866
D86C
CCEC
6798
3870
0FC0
0940
ENDCHAR
STARTCHAR C024152
ENCODING 10346
SWIDTH 1800 0
DWIDTH 18 0
BBX 15 16 2 -4
BITMAP
0FC0
3870
6198
C38C
C38C
0786
0D86
0D86
1986
1FE6
C18C
C18C
6198
3870
0FC0
0002
ENDCHAR
STARTCHAR C024153
ENCODING 10347
SWIDTH 1800 0
DWIDTH 18 0
BBX 15 16 2 -4
BITMAP
0FC0
3870
67F8
C60C
CC0C
0C06
0FC6
0EE6
0066
0066
CC6C
CCCC
6798
3870
0FC0
6000
ENDCHAR
STARTCHAR C024154
ENCODING 10348
SWIDTH 1800 0
DWIDTH 18 0
BBX 17 16 2 -4
BITMAP
0FC000
387000
63D800
C66C00
CC6C00
0C0600
0FC600
0EE600
0C6600
0C6600
CC6C00
C6EC00
63D800
387000
0FC000
001680
ENDCHAR
STARTCHAR C024155
ENCODING 10349
SWIDTH 1800 0
DWIDTH 18 0
BBX 15 15 2 -3
BITMAP
0FC0
3870
6FF8
C06C
C0CC
0186
0186
0306
0306
0306
C60C
C60C
6618
3870
0FC0
ENDCHAR
STARTCHAR C024156
ENCODING 10350
SWIDTH 1800 0
DWIDTH 18 0
BBX 15 15 2 -3
BITMAP
0FC0
3870
67D8
CEEC
CC6C
0C66
06C6
07C6
0EE6
0C66
CC6C
CEEC
67D8
3870
0FC0
ENDCHAR
STARTCHAR C024157
ENCODING 10351
SWIDTH 1800 0
DWIDTH 18 0
BBX 15 15 2 -3
BITMAP
0FC0
3870
6798
CECC
CC6C
0C66
0C66
0EE6
07E6
0066
CC6C
CCCC
6798
3870
0FC0
ENDCHAR
STARTCHAR C024160
ENCODING 10352
SWIDTH 1800 0
DWIDTH 18 0
BBX 15 15 2 -3
BITMAP
0FC0
3870
6018
CCFC
CDFC
3D9E
0D9E
0D9E
0D9E
0D9E
CCFC
CCFC
6018
3870
0FC0
ENDCHAR
STARTCHAR C024161
ENCODING 10353
SWIDTH 1800 0
DWIDTH 18 0
BBX 15 15 2 -3
BITMAP
0FC0
3870
6018
CC6C
CC6C
3DE6
0C66
0C66
0C66
0C66
CC6C
CC6C
6018
3870
0FC0
ENDCHAR
STARTCHAR C024162
ENCODING 10354
SWIDTH 1800 0
DWIDTH 18 0
BBX 15 15 2 -3
BITMAP
0FC0
3870
6018
CC6C
CCFC
3D9E
0D9E
0C36
0C66
0CC6
CD8C
CDFC
6018
3870
0FC0
ENDCHAR
STARTCHAR C024163
ENCODING 10355
SWIDTH 1800 0
DWIDTH 18 0
BBX 15 15 2 -3
BITMAP
0FC0
3870
6018
CC6C
CDFC
3D9E
0DB6
0CF6
0C1E
0D9E
CD9C
CCFC
6018
3870
0FC0
ENDCHAR
STARTCHAR C024164
ENCODING 10356
SWIDTH 1800 0
DWIDTH 18 0
BBX 15 15 2 -3
BITMAP
0FC0
3870
6018
CC0C
CC3C
3C76
0CF6
0CF6
0DB6
0DFE
CC3C
CC3C
6018
3870
0FC0
ENDCHAR
STARTCHAR C024165
ENCODING 10357
SWIDTH 1800 0
DWIDTH 18 0
BBX 15 15 2 -3
BITMAP
0FC0
3870
6018
CCFC
CD8C
3D86
0DF6
0C1E
0C1E
0D9E
CDFC
CCEC
6018
3870
0FC0
ENDCHAR
STARTCHAR C024166
ENCODING 10358
SWIDTH 1800 0
DWIDTH 18 0
BBX 13 12 3 -1
BITMAP
3000
F180
F300
3300
36F0
37D8
3D98
3C18
1830
18E0
30C0
31F8
ENDCHAR
STARTCHAR C024167
ENCODING 10359
SWIDTH 1800 0
DWIDTH 18 0
BBX 13 12 3 -1
BITMAP
3000
7180
F300
3300
3370
36D8
3798
3C30
0C70
1998
1998
30F0
ENDCHAR
STARTCHAR C024170
ENCODING 10360
SWIDTH 1800 0
DWIDTH 18 0
BBX 14 15 2 -4
BITMAP
7860
CC60
CCC0
1CC0
39B8
61EC
E3CC
FF18
0638
06CC
0CCC
0C78
0000
0000
0940
ENDCHAR
STARTCHAR C024171
ENCODING 10361
SWIDTH 1800 0
DWIDTH 18 0
BBX 15 15 3 -4
BITMAP
3000
F180
3300
3330
3670
3670
3CF0
3DB0
19B0
1BF8
3030
3030
0000
0000
0002
ENDCHAR
STARTCHAR C024172
ENCODING 10362
SWIDTH 1800 0
DWIDTH 18 0
BBX 13 15 3 -4
BITMAP
F8C0
CCC0
1980
39B0
1B70
CF70
FEF0
77B0
0DB0
0FF8
1830
1830
0000
0000
6000
ENDCHAR
STARTCHAR C024173
ENCODING 10363
SWIDTH 1800 0
DWIDTH 18 0
BBX 15 15 3 -4
BITMAP
30C0
7180
F180
3300
3370
36F8
3798
3CF0
0CF0
1998
1998
30F0
0000
0000
0016
ENDCHAR
STARTCHAR C024174
ENCODING 10364
SWIDTH 1800 0
DWIDTH 18 0
BBX 13 12 3 -1
BITMAP
F8C0
D980
1980
7300
1B70
1ED8
DF98
7CF0
0CF0
1998
1998
30F0
ENDCHAR
STARTCHAR C024175
ENCODING 10365
SWIDTH 1800 0
DWIDTH 18 0
BBX 14 12 2 -1
BITMAP
7C60
C0C0
F0C0
FD80
0DB8
CF6C
DFCC
7E78
0678
0CCC
0CCC
1878
ENDCHAR
STARTCHAR C024176
ENCODING 10366
SWIDTH 1800 0
DWIDTH 18 0
BBX 13 12 3 -1
BITMAP
FCC0
1D80
1980
3300
3370
36D8
6798
6CF0
0CF0
1998
1998
30F0
ENDCHAR
STARTCHAR C024177
ENCODING 10367
SWIDTH 1800 0
DWIDTH 18 0
BBX 0 0 0 0
BITMAP
ENDCHAR
STARTCHAR C024441
ENCODING 10529
SWIDTH 1800 0
DWIDTH 18 0
BBX 13 9 3 -1
BITMAP
7DE0
C730
C618
0E18
7FF8
C600
C618
CF38
F9F0
ENDCHAR
STARTCHAR C024442
ENCODING 10530
SWIDTH 1800 0
DWIDTH 18 0
BBX 10 12 5 -1
BITMAP
0300
1FC0
0300
3F00
6700
C300
C300
C300
C300
C300
6700
7F00
ENDCHAR
STARTCHAR C024443
ENCODING 10531
SWIDTH 1800 0
DWIDTH 18 0
BBX 8 12 5 -1
BITMAP
7E
18
7C
06
06
7F
E7
C3
C3
C3
66
7C
ENDCHAR
STARTCHAR C024444
ENCODING 10532
SWIDTH 1800 0
DWIDTH 18 0
BBX 10 12 4 -1
BITMAP
3000
3800
FE00
3000
3F80
38C0
30C0
30C0
30C0
30C0
30C0
30C0
ENDCHAR
STARTCHAR C024445
ENCODING 10533
SWIDTH 1800 0
DWIDTH 18 0
BBX 2 8 8 -1
BITMAP
C0
C0
C0
C0
C0
C0
C0
C0
ENDCHAR
STARTCHAR C024446
ENCODING 10534
SWIDTH 1800 0
DWIDTH 18 0
BBX 6 14 6 -3
BITMAP
CC
00
00
0C
CC
CC
CC
CC
CC
CC
CC
CC
0C
3C
ENDCHAR
STARTCHAR C024447
ENCODING 10535
SWIDTH 1800 0
DWIDTH 18 0
BBX 10 11 6 -4
BITMAP
CC00
D800
F000
F800
CC00
CC00
C600
C600
0000
0000
0940
ENDCHAR
STARTCHAR C024450
ENCODING 10536
SWIDTH 1800 0
DWIDTH 18 0
BBX 4 12 7 -1
BITMAP
C0
C0
C0
C0
C0
F0
F0
C0
C0
C0
C0
C0
ENDCHAR
STARTCHAR C024451
ENCODING 10537
SWIDTH 1800 0
DWIDTH 18 0
BBX 8 15 5 -4
BITMAP
18
18
1B
1E
1C
18
18
38
78
D8
18
18
00
00
60
ENDCHAR
STARTCHAR C024452
ENCODING 10538
SWIDTH 1800 0
DWIDTH 18 0
BBX 15 12 4 -4
BITMAP
1FE0
31C0
6360
6660
6C60
7860
7060
70C0
DF80
0000
0000
0016
ENDCHAR
STARTCHAR C024453
ENCODING 10539
SWIDTH 1800 0
DWIDTH 18 0
BBX 14 9 2 -1
BITMAP
3CF0
67D8
C38C
C30C
C3FC
C300
C30C
678C
7CF8
ENDCHAR
STARTCHAR C024454
ENCODING 10540
SWIDTH 1800 0
DWIDTH 18 0
BBX 8 12 6 -1
BITMAP
7E
E6
C3
C6
CC
DE
C3
C3
C3
C3
C3
DE
ENDCHAR
STARTCHAR C024455
ENCODING 10541
SWIDTH 1800 0
DWIDTH 18 0
BBX 9 14 5 -3
BITMAP
C000
C000
C000
DE00
F300
C180
C180
C180
C180
C180
E300
FE00
C000
C000
ENDCHAR
STARTCHAR C024456
ENCODING 10542
SWIDTH 1800 0
DWIDTH 18 0
BBX 5 11 7 -1
BITMAP
60
60
70
F8
60
F8
60
60
60
60
78
ENDCHAR
STARTCHAR C024457
ENCODING 10543
SWIDTH 1800 0
DWIDTH 18 0
BBX 7 11 6 -3
BITMAP
3C
EE
06
06
06
06
06
06
06
06
1E
ENDCHAR
STARTCHAR C024460
ENCODING 10544
SWIDTH 1800 0
DWIDTH 18 0
BBX 10 10 4 -1
BITMAP
6000
FF80
DDC0
18C0
18C0
18C0
18C0
18C0
18C0
18C0
ENDCHAR
STARTCHAR C024461
ENCODING 10545
SWIDTH 1800 0
DWIDTH 18 0
BBX 15 14 2 -3
BITMAP
3018
600C
600C
DFF6
C036
C036
C036
C036
C036
C066
600C
600C
3018
0030
ENDCHAR
STARTCHAR C024462
ENCODING 10546
SWIDTH 1800 0
DWIDTH 18 0
BBX 15 14 2 -3
BITMAP
3018
600C
600C
D806
D806
D806
D806
D806
D806
DFF6
600C
600C
3018
0030
ENDCHAR
STARTCHAR C024463
ENCODING 10547
SWIDTH 1800 0
DWIDTH 18 0
BBX 15 14 2 -3
BITMAP
3018
600C
600C
DFF6
D806
D806
D806
D806
D806
DFF6
600C
600C
3018
0030
ENDCHAR
STARTCHAR C024464
ENCODING 10548
SWIDTH 1800 0
DWIDTH 18 0
BBX 15 14 2 -3
BITMAP
3018
600C
600C
DFF6
C036
C036
DFF6
D806
D806
DFF6
600C
600C
3018
0030
ENDCHAR
STARTCHAR C024465
ENCODING 10549
SWIDTH 1800 0
DWIDTH 18 0
BBX 15 14 2 -3
BITMAP
3018
600C
600C
DFF6
D836
D836
D836
D836
D836
DFF6
600C
600C
3018
0030
ENDCHAR
STARTCHAR C024466
ENCODING 10550
SWIDTH 1800 0
DWIDTH 18 0
BBX 15 15 2 -4
BITMAP
3018
600C
600C
D836
D836
D836
DFF6
D836
D836
DFF6
600C
600C
3018
0030
0940
ENDCHAR
STARTCHAR C024467
ENCODING 10551
SWIDTH 1800 0
DWIDTH 18 0
BBX 15 15 2 -4
BITMAP
3018
600C
630C
C306
C306
C306
C786
C786
CCC6
F876
600C
600C
3018
0030
0002
ENDCHAR
STARTCHAR C024470
ENCODING 10552
SWIDTH 1800 0
DWIDTH 18 0
BBX 15 15 2 -4
BITMAP
3018
600C
67CC
CC66
DC76
D836
D836
D836
DC76
CC66
67CC
600C
3018
0030
6000
ENDCHAR
STARTCHAR C024471
ENCODING 10553
SWIDTH 1800 0
DWIDTH 18 0
BBX 17 15 2 -4
BITMAP
301800
600C00
600C00
FFF600
C30600
C30600
C78600
C7C600
DCE600
F83600
600C00
600C00
301800
003000
001680
ENDCHAR
STARTCHAR C024472
ENCODING 10554
SWIDTH 1800 0
DWIDTH 18 0
BBX 15 14 2 -3
BITMAP
3018
600C
6FCC
C006
FFFE
C306
C386
C786
CEC6
F876
600C
600C
3018
0030
ENDCHAR
STARTCHAR C024473
ENCODING 10555
SWIDTH 1800 0
DWIDTH 18 0
BBX 15 14 2 -3
BITMAP
3018
600C
600C
DFF6
C036
C036
C7F6
DC36
C036
C066
600C
600C
3018
0030
ENDCHAR
STARTCHAR C024474
ENCODING 10556
SWIDTH 1800 0
DWIDTH 18 0
BBX 15 14 2 -3
BITMAP
3018
600C
600C
DFF6
D806
D806
DFF6
D806
D806
DFF6
600C
600C
3018
0030
ENDCHAR
STARTCHAR C024475
ENCODING 10557
SWIDTH 1800 0
DWIDTH 18 0
BBX 15 14 2 -3
BITMAP
3018
600C
600C
DFF6
C006
CCC6
CCC6
CCC6
CCC6
FFF6
600C
600C
3018
0030
ENDCHAR
STARTCHAR C024476
ENCODING 10558
SWIDTH 1800 0
DWIDTH 18 0
BBX 15 14 2 -3
BITMAP
3018
600C
6FCC
C006
FFF6
C006
C7C6
CC66
CC66
CC66
67CC
600C
3018
0030
ENDCHAR
STARTCHAR C024477
ENCODING 10559
SWIDTH 1800 0
DWIDTH 18 0
BBX 15 13 2 -2
BITMAP
3018
606C
606C
FF66
C366
C366
C67E
C666
CC66
F86C
606C
6078
3018
ENDCHAR
STARTCHAR C024500
ENCODING 10560
SWIDTH 1800 0
DWIDTH 18 0
BBX 15 13 2 -2
BITMAP
3018
606C
606C
F066
F066
F066
F07E
F066
F1E6
FF6C
606C
6078
3018
ENDCHAR
STARTCHAR C024501
ENCODING 10561
SWIDTH 1800 0
DWIDTH 18 0
BBX 15 13 2 -2
BITMAP
3018
606C
606C
FF66
F066
F066
F07E
F066
F1E6
FF6C
606C
6078
3018
ENDCHAR
STARTCHAR C024502
ENCODING 10562
SWIDTH 1800 0
DWIDTH 18 0
BBX 15 14 2 -3
BITMAP
3018
606C
606C
DFE6
C1E6
C1E6
DFFE
D866
D866
DFE6
606C
606C
3018
1830
ENDCHAR
STARTCHAR C024503
ENCODING 10563
SWIDTH 1800 0
DWIDTH 18 0
BBX 15 13 2 -2
BITMAP
3018
606C
606C
FF66
F366
F366
F37E
F366
F366
FF6C
606C
6078
3018
ENDCHAR
STARTCHAR C024504
ENCODING 10564
SWIDTH 1800 0
DWIDTH 18 0
BBX 15 13 2 -2
BITMAP
3018
606C
606C
F366
F366
F366
FF7E
F366
F366
FF6C
606C
6078
3018
ENDCHAR
STARTCHAR C024505
ENCODING 10565
SWIDTH 1800 0
DWIDTH 18 0
BBX 15 15 2 -4
BITMAP
3018
606C
606C
CC66
CC66
CC66
CC7E
DE66
DE66
F36C
606C
6078
3018
0000
0940
ENDCHAR
STARTCHAR C024506
ENCODING 10566
SWIDTH 1800 0
DWIDTH 18 0
BBX 15 15 2 -4
BITMAP
3018
606C
606C
DE66
F366
F366
F37E
F366
F366
DE6C
606C
6078
3018
0000
0002
ENDCHAR
STARTCHAR C024507
ENCODING 10567
SWIDTH 1800 0
DWIDTH 18 0
BBX 15 15 2 -4
BITMAP
3018
606C
606C
FF66
CC66
CC66
CC7E
DE66
DE66
F36C
606C
6078
3018
0000
6000
ENDCHAR
STARTCHAR C024510
ENCODING 10568
SWIDTH 1800 0
DWIDTH 18 0
BBX 17 15 2 -4
BITMAP
301800
606C00
6F6C00
C06600
FFE600
C66600
CE7E00
CE6600
DB6600
F1EC00
606C00
607800
301800
000000
001680
ENDCHAR
STARTCHAR C024511
ENCODING 10569
SWIDTH 1800 0
DWIDTH 18 0
BBX 15 13 2 -2
BITMAP
3018
606C
606C
FF66
C366
C366
FF7E
C366
C666
CC6C
786C
6078
3018
ENDCHAR
STARTCHAR C024512
ENCODING 10570
SWIDTH 1800 0
DWIDTH 18 0
BBX 15 13 2 -2
BITMAP
3018
606C
606C
FF66
F066
F066
FF7E
F066
F1E6
FF6C
606C
6078
3018
ENDCHAR
STARTCHAR C024513
ENCODING 10571
SWIDTH 1800 0
DWIDTH 18 0
BBX 15 13 2 -2
BITMAP
3018
606C
606C
FFE6
DB66
DB66
DB7E
DB66
FFE6
C06C
606C
6078
3018
ENDCHAR
STARTCHAR C024514
ENCODING 10572
SWIDTH 1800 0
DWIDTH 18 0
BBX 15 13 2 -2
BITMAP
3018
606C
7F6C
C066
FFE6
C066
DE7E
F366
F366
FB6C
7E6C
6078
3018
ENDCHAR
STARTCHAR C024515
ENCODING 10573
SWIDTH 1800 0
DWIDTH 18 0
BBX 15 14 2 -3
BITMAP
3018
600C
600C
C786
CCC6
CCC6
C7C6
CCC6
CCC6
CDC6
67EC
600C
3018
0030
ENDCHAR
STARTCHAR C024516
ENCODING 10574
SWIDTH 1800 0
DWIDTH 18 0
BBX 15 14 2 -3
BITMAP
3018
6C0C
6C0C
CC06
CFC6
CEC6
CC66
CC66
CC66
CC66
6ECC
6FCC
3018
0030
ENDCHAR
STARTCHAR C024517
ENCODING 10575
SWIDTH 1800 0
DWIDTH 18 0
BBX 15 14 2 -3
BITMAP
3018
600C
600C
C7C6
C6E6
CC66
CC06
CC06
CC66
C6E6
67CC
600C
3018
0030
ENDCHAR
STARTCHAR C024520
ENCODING 10576
SWIDTH 1800 0
DWIDTH 18 0
BBX 15 14 2 -3
BITMAP
3018
606C
606C
C066
C7E6
CCE6
D866
D866
D866
D866
6CEC
67EC
3018
0030
ENDCHAR
STARTCHAR C024521
ENCODING 10577
SWIDTH 1800 0
DWIDTH 18 0
BBX 15 14 2 -3
BITMAP
3018
600C
600C
C7C6
C6E6
CC66
CFE6
CC06
CC66
CE66
67CC
600C
3018
0030
ENDCHAR
STARTCHAR C024522
ENCODING 10578
SWIDTH 1800 0
DWIDTH 18 0
BBX 15 14 2 -3
BITMAP
3018
61CC
630C
C306
CFC6
C306
C306
C306
C306
C306
630C
630C
3018
0030
ENDCHAR
STARTCHAR C024523
ENCODING 10579
SWIDTH 1800 0
DWIDTH 18 0
BBX 15 14 2 -3
BITMAP
3018
67EC
66EC
CC66
CC66
CC66
CC66
CC66
CEE6
C7E6
6CCC
67CC
3018
0030
ENDCHAR
STARTCHAR C024524
ENCODING 10580
SWIDTH 1800 0
DWIDTH 18 0
BBX 15 15 2 -4
BITMAP
3018
6C0C
6C0C
CC06
CFC6
CE66
CC66
CC66
CC66
CC66
6C6C
6C6C
3018
0030
0940
ENDCHAR
STARTCHAR C024525
ENCODING 10581
SWIDTH 1800 0
DWIDTH 18 0
BBX 15 15 2 -4
BITMAP
3018
630C
630C
C006
C306
C306
C306
C306
C306
C306
630C
630C
3018
0030
0002
ENDCHAR
STARTCHAR C024526
ENCODING 10582
SWIDTH 1800 0
DWIDTH 18 0
BBX 15 15 2 -4
BITMAP
3318
630C
600C
C306
C306
C306
C306
C306
C306
C306
630C
630C
3F18
0030
6000
ENDCHAR
STARTCHAR C024527
ENCODING 10583
SWIDTH 1800 0
DWIDTH 18 0
BBX 17 15 2 -4
BITMAP
301800
6C0C00
6C0C00
CC0600
CCC600
CD8600
CF0600
CF0600
CD8600
CD8600
6CCC00
6C0C00
301800
003000
001680
ENDCHAR
STARTCHAR C024530
ENCODING 10584
SWIDTH 1800 0
DWIDTH 18 0
BBX 15 14 2 -3
BITMAP
3018
630C
630C
C306
C306
C306
C306
C306
C306
C306
630C
630C
3018
0030
ENDCHAR
STARTCHAR C024531
ENCODING 10585
SWIDTH 1800 0
DWIDTH 18 0
BBX 15 14 2 -3
BITMAP
3018
600C
600C
FFFE
F39E
F31E
F31E
F31E
F31E
F31E
731C
600C
3018
0030
ENDCHAR
STARTCHAR C024532
ENCODING 10586
SWIDTH 1800 0
DWIDTH 18 0
BBX 15 14 2 -3
BITMAP
3018
600C
600C
CFC6
CE66
CC66
CC66
CC66
CC66
CC66
6C6C
600C
3018
0030
ENDCHAR
STARTCHAR C024533
ENCODING 10587
SWIDTH 1800 0
DWIDTH 18 0
BBX 15 14 2 -3
BITMAP
3018
600C
600C
C7C6
C6C6
CC66
CC66
CC66
CC66
C6C6
67CC
600C
3018
0030
ENDCHAR
STARTCHAR C024534
ENCODING 10588
SWIDTH 1800 0
DWIDTH 18 0
BBX 15 14 2 -3
BITMAP
3018
600C
6FCC
CE66
CC36
CC36
CC36
CC36
CE66
CFC6
6C0C
6C0C
3C18
0030
ENDCHAR
STARTCHAR C024535
ENCODING 10589
SWIDTH 1800 0
DWIDTH 18 0
BBX 15 14 2 -3
BITMAP
3018
67EC
6CEC
D866
D866
D866
D866
CCE6
C7E6
C066
606C
606C
3018
0030
ENDCHAR
STARTCHAR C024536
ENCODING 10590
SWIDTH 1800 0
DWIDTH 18 0
BBX 15 14 2 -3
BITMAP
3018
600C
600C
C7C6
C706
C606
C606
C606
C606
C606
660C
600C
3018
0030
ENDCHAR
STARTCHAR C024537
ENCODING 10591
SWIDTH 1800 0
DWIDTH 18 0
BBX 15 14 2 -3
BITMAP
3018
600C
678C
C6C6
CC06
C706
C3C6
C0C6
CC66
CCC6
67CC
600C
3018
0030
ENDCHAR
STARTCHAR C024540
ENCODING 10592
SWIDTH 1800 0
DWIDTH 18 0
BBX 15 14 2 -3
BITMAP
3018
630C
630C
C306
CFC6
C306
C306
C306
C306
C306
630C
61CC
3018
0030
ENDCHAR
STARTCHAR C024541
ENCODING 10593
SWIDTH 1800 0
DWIDTH 18 0
BBX 15 14 2 -3
BITMAP
3018
600C
600C
CC66
CC66
CC66
CC66
CC66
CC66
CCE6
67EC
600C
3018
0030
ENDCHAR
STARTCHAR C024542
ENCODING 10594
SWIDTH 1800 0
DWIDTH 18 0
BBX 15 14 2 -3
BITMAP
3018
600C
600C
CC66
CCC6
CCC6
C6C6
C786
C786
C386
630C
600C
3018
0030
ENDCHAR
STARTCHAR C024543
ENCODING 10595
SWIDTH 1800 0
DWIDTH 18 0
BBX 15 15 2 -4
BITMAP
3018
600C
600C
F306
F3B6
DBB6
DFB6
DFE6
CEE6
CEE6
6CEC
6C0C
3018
0030
0940
ENDCHAR
STARTCHAR C024544
ENCODING 10596
SWIDTH 1800 0
DWIDTH 18 0
BBX 15 15 2 -4
BITMAP
3018
600C
600C
CCC6
C786
C786
C306
C386
C786
CCC6
6C6C
600C
3018
0030
0002
ENDCHAR
STARTCHAR C024545
ENCODING 10597
SWIDTH 1800 0
DWIDTH 18 0
BBX 15 15 2 -4
BITMAP
3018
600C
6C6C
CCC6
C6C6
C6C6
C786
C786
C386
C306
630C
6F0C
3618
0030
6000
ENDCHAR
STARTCHAR C024546
ENCODING 10598
SWIDTH 1800 0
DWIDTH 18 0
BBX 17 15 2 -4
BITMAP
301800
600C00
600C00
CFE600
C0C600
C18600
C30600
C60600
CC0600
CFE600
600C00
600C00
301800
003000
001680
ENDCHAR
STARTCHAR C024547
ENCODING 10599
SWIDTH 1800 0
DWIDTH 18 0
BBX 15 14 2 -3
BITMAP
3018
600C
618C
C186
CF86
C186
C186
C186
C186
C186
618C
618C
3018
0030
ENDCHAR
STARTCHAR C024550
ENCODING 10600
SWIDTH 1800 0
DWIDTH 18 0
BBX 15 14 2 -3
BITMAP
3018
67CC
6EEC
CC66
CC66
C066
C0C6
C186
C706
C606
6C0C
6FEC
3018
0030
ENDCHAR
STARTCHAR C024551
ENCODING 10601
SWIDTH 1800 0
DWIDTH 18 0
BBX 15 14 2 -3
BITMAP
3018
67CC
6EEC
CC66
CC66
C0E6
C3C6
C066
CC66
CC66
6EEC
67CC
3018
0030
ENDCHAR
STARTCHAR C024552
ENCODING 10602
SWIDTH 1800 0
DWIDTH 18 0
BBX 15 14 2 -3
BITMAP
3018
618C
638C
C386
C786
CD86
CD86
D986
DFE6
C186
618C
618C
3018
0030
ENDCHAR
STARTCHAR C024553
ENCODING 10603
SWIDTH 1800 0
DWIDTH 18 0
BBX 15 14 2 -3
BITMAP
3018
67EC
660C
CC06
CC06
CFC6
CEE6
C066
C066
CC66
6CCC
678C
3018
0030
ENDCHAR
STARTCHAR C024554
ENCODING 10604
SWIDTH 1800 0
DWIDTH 18 0
BBX 15 14 2 -3
BITMAP
3018
63CC
666C
CC66
CC06
CFC6
CEE6
CC66
CC66
CC66
66EC
63CC
3018
0030
ENDCHAR
STARTCHAR C024555
ENCODING 10605
SWIDTH 1800 0
DWIDTH 18 0
BBX 15 14 2 -3
BITMAP
3018
600C
6FEC
C066
C0C6
C186
C186
C306
C306
C306
660C
660C
3018
0030
ENDCHAR
STARTCHAR C024556
ENCODING 10606
SWIDTH 1800 0
DWIDTH 18 0
BBX 15 14 2 -3
BITMAP
3018
67CC
6EEC
CC66
CC66
C6C6
C7C6
CEE6
CC66
CC66
6EEC
67CC
3018
0030
ENDCHAR
STARTCHAR C024557
ENCODING 10607
SWIDTH 1800 0
DWIDTH 18 0
BBX 15 14 2 -3
BITMAP
3018
678C
6ECC
CC66
CC66
CC66
CEE6
C7E6
C066
CC66
6CCC
678C
3018
0030
ENDCHAR
STARTCHAR C024560
ENCODING 10608
SWIDTH 1800 0
DWIDTH 18 0
BBX 15 14 2 -3
BITMAP
3018
6CFC
6DFC
FD9E
CD9E
CD9E
CD9E
CD9E
CD9E
CD9E
6D9C
6CFC
3C78
0030
ENDCHAR
STARTCHAR C024561
ENCODING 10609
SWIDTH 1800 0
DWIDTH 18 0
BBX 15 14 2 -3
BITMAP
3018
6C6C
6C6C
FDE6
CC66
CC66
CC66
CC66
CC66
CC66
6C6C
6C6C
3C78
0030
ENDCHAR
STARTCHAR C024562
ENCODING 10610
SWIDTH 1800 0
DWIDTH 18 0
BBX 15 15 2 -4
BITMAP
3018
6CEC
6DBC
FDB6
CDB6
CC76
CCE6
CCC6
CD86
CF06
6F0C
6F0C
3FF8
0030
0940
ENDCHAR
STARTCHAR C024563
ENCODING 10611
SWIDTH 1800 0
DWIDTH 18 0
BBX 15 15 2 -4
BITMAP
3018
6CEC
6DBC
FDB6
CC36
CC66
CCE6
CC36
CC36
CDB6
6DBC
6DFC
3CD8
0030
0002
ENDCHAR
STARTCHAR C024564
ENCODING 10612
SWIDTH 1800 0
DWIDTH 18 0
BBX 15 15 2 -4
BITMAP
3018
6CEC
6CEC
FCE6
CDE6
CDE6
CF66
CF66
CF66
CFF6
6C6C
6C6C
3C78
0030
6000
ENDCHAR
STARTCHAR C024565
ENCODING 10613
SWIDTH 1800 0
DWIDTH 18 0
BBX 17 15 2 -4
BITMAP
301800
6DFC00
6D8C00
FD8600
CD8600
CDE600
CDB600
CDB600
CC3600
CC3600
6DBC00
6DBC00
3CF800
003000
001680
ENDCHAR
STARTCHAR C024566
ENCODING 10614
SWIDTH 1800 0
DWIDTH 18 0
BBX 4 7 7 5
BITMAP
30
F0
30
30
30
30
30
ENDCHAR
STARTCHAR C024567
ENCODING 10615
SWIDTH 1800 0
DWIDTH 18 0
BBX 5 7 7 5
BITMAP
70
D8
D8
30
60
C0
F8
ENDCHAR
STARTCHAR C024570
ENCODING 10616
SWIDTH 1800 0
DWIDTH 18 0
BBX 6 7 6 5
BITMAP
78
CC
0C
38
CC
CC
78
ENDCHAR
STARTCHAR C024571
ENCODING 10617
SWIDTH 1800 0
DWIDTH 18 0
BBX 6 8 6 5
BITMAP
18
38
78
78
D8
FC
18
18
ENDCHAR
STARTCHAR C024572
ENCODING 10618
SWIDTH 1800 0
DWIDTH 18 0
BBX 5 6 7 6
BITMAP
F0
F8
D8
D8
D8
D8
ENDCHAR
STARTCHAR C024573
ENCODING 10619
SWIDTH 1800 0
DWIDTH 18 0
BBX 4 7 7 -3
BITMAP
30
F0
30
30
30
30
30
ENDCHAR
STARTCHAR C024574
ENCODING 10620
SWIDTH 1800 0
DWIDTH 18 0
BBX 6 7 6 -3
BITMAP
7C
6C
0C
18
70
E0
FC
ENDCHAR
STARTCHAR C024575
ENCODING 10621
SWIDTH 1800 0
DWIDTH 18 0
BBX 6 8 6 -3
BITMAP
78
CC
0C
38
18
CC
CC
78
ENDCHAR
STARTCHAR C024576
ENCODING 10622
SWIDTH 1800 0
DWIDTH 18 0
BBX 6 8 6 -3
BITMAP
18
38
78
78
D8
FC
18
18
ENDCHAR
STARTCHAR C024577
ENCODING 10623
SWIDTH 1800 0
DWIDTH 18 0
BBX 0 0 0 0
BITMAP
ENDCHAR
STARTCHAR C025041
ENCODING 10785
SWIDTH 1800 0
DWIDTH 18 0
BBX 10 10 4 -4
BITMAP
1B00
7E00
1B00
1F00
7FC0
DCC0
CCC0
F8C0
6380
0940
ENDCHAR
STARTCHAR C025042
ENCODING 10786
SWIDTH 1800 0
DWIDTH 18 0
BBX 14 16 3 -4
BITMAP
0C00
0C00
0DC0
7F00
0C00
1980
0FC0
19F0
7B18
DB18
CE18
CC18
DC30
F660
01C0
0004
ENDCHAR
STARTCHAR C025043
ENCODING 10787
SWIDTH 1800 0
DWIDTH 18 0
BBX 9 9 5 -4
BITMAP
C000
C300
C300
C180
C180
6000
7800
3000
6000
ENDCHAR
STARTCHAR C025044
ENCODING 10788
SWIDTH 1800 0
DWIDTH 18 0
BBX 15 14 3 -4
BITMAP
C000
C0C0
C060
C030
C030
C018
C018
6600
6600
3C00
1800
0000
0000
0016
ENDCHAR
STARTCHAR C025045
ENCODING 10789
SWIDTH 1800 0
DWIDTH 18 0
BBX 6 10 6 -3
BITMAP
38
0C
3C
EC
0C
0C
0C
0C
18
30
ENDCHAR
STARTCHAR C025046
ENCODING 10790
SWIDTH 1800 0
DWIDTH 18 0
BBX 9 15 4 -3
BITMAP
3000
1C00
0700
0000
0E00
3B00
E180
0180
0180
0180
0180
0300
0300
0600
0C00
ENDCHAR
STARTCHAR C025047
ENCODING 10791
SWIDTH 1800 0
DWIDTH 18 0
BBX 8 10 5 -3
BITMAP
18
0E
00
7C
18
18
3C
6C
6C
C7
ENDCHAR
STARTCHAR C025050
ENCODING 10792
SWIDTH 1800 0
DWIDTH 18 0
BBX 13 13 3 -2
BITMAP
0E00
0380
0000
0380
3F80
0300
0600
0600
0F00
1B00
3300
7180
E1F8
ENDCHAR
STARTCHAR C025051
ENCODING 10793
SWIDTH 1800 0
DWIDTH 18 0
BBX 9 10 5 -3
BITMAP
3000
3300
FD80
3000
3F00
3B00
F180
3180
F300
6600
ENDCHAR
STARTCHAR C025052
ENCODING 10794
SWIDTH 1800 0
DWIDTH 18 0
BBX 13 13 3 -2
BITMAP
1800
1860
1F30
FC18
1800
1800
1FE0
1830
7830
F030
F030
F0E0
73C0
ENDCHAR
STARTCHAR C025053
ENCODING 10795
SWIDTH 1800 0
DWIDTH 18 0
BBX 14 13 3 -2
BITMAP
1800
1800
1860
1F30
F9B0
1998
319C
3180
6180
6180
E300
C300
1E00
ENDCHAR
STARTCHAR C025054
ENCODING 10796
SWIDTH 1800 0
DWIDTH 18 0
BBX 14 14 3 -2
BITMAP
0018
183C
1818
1860
1F30
F9B0
1998
318C
3180
6180
6180
E300
C300
1E00
ENDCHAR
STARTCHAR C025055
ENCODING 10797
SWIDTH 1800 0
DWIDTH 18 0
BBX 10 14 4 -2
BITMAP
1800
0D80
0F00
7C00
07C0
0F00
FB00
0300
0180
7FC0
C000
C000
6000
3F00
ENDCHAR
STARTCHAR C025056
ENCODING 10798
SWIDTH 1800 0
DWIDTH 18 0
BBX 13 14 4 -2
BITMAP
1830
0D98
0F60
7C30
07C0
0F00
FB00
0300
0180
7FC0
C000
C000
6000
3F00
ENDCHAR
STARTCHAR C025057
ENCODING 10799
SWIDTH 1800 0
DWIDTH 18 0
BBX 6 15 6 -3
BITMAP
0C
0C
18
30
30
60
C0
C0
C0
60
30
30
18
0C
0C
ENDCHAR
STARTCHAR C025060
ENCODING 10800
SWIDTH 1800 0
DWIDTH 18 0
BBX 10 16 6 -4
BITMAP
0C00
1C00
1800
3180
63C0
6000
C000
C000
C000
6000
3000
3000
1800
1C00
0C00
0940
ENDCHAR
STARTCHAR C025061
ENCODING 10801
SWIDTH 1800 0
DWIDTH 18 0
BBX 15 15 3 -4
BITMAP
6060
6060
C07C
C7F0
C060
C060
C060
C060
F060
E060
E0C0
60C0
6180
0000
0002
ENDCHAR
STARTCHAR C025062
ENCODING 10802
SWIDTH 1800 0
DWIDTH 18 0
BBX 14 17 3 -4
BITMAP
0018
003C
6078
6060
C07C
C7F0
C060
C060
C060
C060
F060
E060
E0C0
60C0
6180
0000
6000
ENDCHAR
STARTCHAR C025063
ENCODING 10803
SWIDTH 1800 0
DWIDTH 18 0
BBX 15 15 3 -4
BITMAP
3000
3FC0
0000
0000
0000
0000
0000
0000
0000
E000
7000
1FC0
0000
0000
0016
ENDCHAR
STARTCHAR C025064
ENCODING 10804
SWIDTH 1800 0
DWIDTH 18 0
BBX 14 12 3 -1
BITMAP
3000
3FD8
000C
0030
0018
0000
0000
0000
0000
E000
7000
1FE0
ENDCHAR
STARTCHAR C025065
ENCODING 10805
SWIDTH 1800 0
DWIDTH 18 0
BBX 10 13 4 -2
BITMAP
0C00
0C00
07C0
FE00
0300
0300
0180
7FC0
61C0
C000
C000
6000
3F00
ENDCHAR
STARTCHAR C025066
ENCODING 10806
SWIDTH 1800 0
DWIDTH 18 0
BBX 13 14 4 -2
BITMAP
0030
0C78
0CF0
0F80
FE00
0300
0180
1D80
77C0
C0E0
C000
C000
7000
1F00
ENDCHAR
STARTCHAR C025067
ENCODING 10807
SWIDTH 1800 0
DWIDTH 18 0
BBX 10 13 5 -2
BITMAP
C000
C000
C000
C000
C000
C000
C000
C000
C000
C0C0
C1C0
6380
7E00
ENDCHAR
STARTCHAR C025070
ENCODING 10808
SWIDTH 1800 0
DWIDTH 18 0
BBX 10 13 5 -2
BITMAP
C300
C180
C600
C300
C000
C000
C000
C000
C000
C0C0
C1C0
6380
7E00
ENDCHAR
STARTCHAR C025071
ENCODING 10809
SWIDTH 1800 0
DWIDTH 18 0
BBX 14 14 2 -3
BITMAP
0180
0180
FFFC
0180
0180
0F80
1980
1980
0D80
0F80
0180
0300
0700
0E00
ENDCHAR
STARTCHAR C025072
ENCODING 10810
SWIDTH 1800 0
DWIDTH 18 0
BBX 14 16 2 -3
BITMAP
0018
003C
0198
0180
FFFC
0180
0180
0F80
1980
1980
0D80
0F80
0180
0300
0700
0E00
ENDCHAR
STARTCHAR C025073
ENCODING 10811
SWIDTH 1800 0
DWIDTH 18 0
BBX 14 13 3 -2
BITMAP
30C0
30C0
30C0
30C0
7FFC
D8C0
30C0
30C0
3380
3000
3000
3800
1FE0
ENDCHAR
STARTCHAR C025074
ENCODING 10812
SWIDTH 1800 0
DWIDTH 18 0
BBX 14 13 3 -2
BITMAP
30CC
30D8
30C0
30C0
7FFC
D8C0
30C0
30C0
3380
3000
3000
3800
1FE0
ENDCHAR
STARTCHAR C025075
ENCODING 10813
SWIDTH 1800 0
DWIDTH 18 0
BBX 11 14 3 -2
BITMAP
00C0
3180
1980
0F00
0700
0FE0
FB80
0600
0C00
0C00
0C00
0C00
0700
01C0
ENDCHAR
STARTCHAR C025076
ENCODING 10814
SWIDTH 1800 0
DWIDTH 18 0
BBX 14 14 3 -2
BITMAP
00C0
3198
19BC
0F18
0700
0FE0
FB80
0600
0C00
0C00
0C00
0C00
0700
01C0
ENDCHAR
STARTCHAR C025077
ENCODING 10815
SWIDTH 1800 0
DWIDTH 18 0
BBX 13 15 3 -4
BITMAP
1800
1800
1800
FE00
1800
1BF8
3000
3000
3000
3000
6000
6780
C0F8
0000
0940
ENDCHAR
STARTCHAR C025100
ENCODING 10816
SWIDTH 1800 0
DWIDTH 18 0
BBX 15 15 3 -4
BITMAP
1818
180C
1830
FE18
1800
1BF8
3000
3000
3000
3000
6000
6780
C0F8
0000
0002
ENDCHAR
STARTCHAR C025101
ENCODING 10817
SWIDTH 1800 0
DWIDTH 18 0
BBX 12 15 3 -4
BITMAP
1800
1800
DF80
7C00
1800
1800
1BE0
3E70
3830
3030
0030
0060
0FC0
0000
6000
ENDCHAR
STARTCHAR C025102
ENCODING 10818
SWIDTH 1800 0
DWIDTH 18 0
BBX 15 15 3 -4
BITMAP
1800
1878
DFBC
7C00
1800
1800
1BE0
3E70
3830
3030
0030
0060
0FC0
0000
0016
ENDCHAR
STARTCHAR C025103
ENCODING 10819
SWIDTH 1800 0
DWIDTH 18 0
BBX 9 7 5 -2
BITMAP
1E00
F300
0180
0180
0180
0300
0E00
ENDCHAR
STARTCHAR C025104
ENCODING 10820
SWIDTH 1800 0
DWIDTH 18 0
BBX 13 10 3 -1
BITMAP
0FC0
F870
0030
0018
0018
0018
0030
0070
00C0
0F80
ENDCHAR
STARTCHAR C025105
ENCODING 10821
SWIDTH 1800 0
DWIDTH 18 0
BBX 14 13 3 -1
BITMAP
0018
000C
0018
1FE0
F070
0030
0018
0018
0030
0030
0060
01C0
0F00
ENDCHAR
STARTCHAR C025106
ENCODING 10822
SWIDTH 1800 0
DWIDTH 18 0
BBX 13 12 3 -2
BITMAP
03F8
7F80
C300
0600
0600
0C00
0C00
0C00
0C00
0600
0300
01E0
ENDCHAR
STARTCHAR C025107
ENCODING 10823
SWIDTH 1800 0
DWIDTH 18 0
BBX 14 12 3 -2
BITMAP
03F8
7F80
C318
063C
0618
0C00
0C00
0C00
0C00
0600
0300
01E0
ENDCHAR
STARTCHAR C025110
ENCODING 10824
SWIDTH 1800 0
DWIDTH 18 0
BBX 10 13 4 -2
BITMAP
3000
3000
1800
1B80
1E00
1C00
3000
6000
6000
C000
6000
70C0
3F80
ENDCHAR
STARTCHAR C025111
ENCODING 10825
SWIDTH 1800 0
DWIDTH 18 0
BBX 13 13 4 -2
BITMAP
3030
3078
1800
1B80
1E00
1C00
3000
6000
6000
C000
6000
60C0
3F80
ENDCHAR
STARTCHAR C025112
ENCODING 10826
SWIDTH 1800 0
DWIDTH 18 0
BBX 13 15 3 -3
BITMAP
1800
1800
1800
FE60
1830
3198
3180
6180
6180
C180
0180
1FC0
19F0
1D80
0700
ENDCHAR
STARTCHAR C025113
ENCODING 10827
SWIDTH 1800 0
DWIDTH 18 0
BBX 13 12 3 -2
BITMAP
6000
67F0
6000
C000
C000
C000
C000
F000
E600
E7B8
E0E0
6000
ENDCHAR
STARTCHAR C025114
ENCODING 10828
SWIDTH 1800 0
DWIDTH 18 0
BBX 15 13 2 -2
BITMAP
0300
0300
0300
3FF0
3B18
3318
7B0C
7E0C
CE18
CEF8
D998
71BE
00E0
ENDCHAR
STARTCHAR C025115
ENCODING 10829
SWIDTH 1800 0
DWIDTH 18 0
BBX 14 14 2 -3
BITMAP
1800
1800
1800
1CF0
FBB0
1E18
1C18
3818
3818
78F8
DBB8
1BBC
19E0
1800
ENDCHAR
STARTCHAR C025116
ENCODING 10830
SWIDTH 1800 0
DWIDTH 18 0
BBX 14 14 2 -4
BITMAP
07C0
1F70
3318
730C
630C
C60C
C60C
C60C
6C18
6C30
3870
00C0
0000
0940
ENDCHAR
STARTCHAR C025117
ENCODING 10831
SWIDTH 1800 0
DWIDTH 18 0
BBX 15 15 3 -4
BITMAP
60C0
60C0
60D8
CFF0
C0C0
C0C0
C0C0
C0C0
C0C0
F7E0
ECF8
ECC0
6780
0000
0002
ENDCHAR
STARTCHAR C025120
ENCODING 10832
SWIDTH 1800 0
DWIDTH 18 0
BBX 14 16 3 -4
BITMAP
0018
60FC
60D8
60D8
CFF0
C0C0
C0C0
C0C0
C0C0
C0C0
F7E0
ECF8
ECC0
6780
0000
6000
ENDCHAR
STARTCHAR C025121
ENCODING 10833
SWIDTH 1800 0
DWIDTH 18 0
BBX 15 17 3 -4
BITMAP
003C
003C
60FC
60FC
60D8
CFF0
C0C0
C0C0
C0C0
C0C0
C0C0
F7E0
ECF8
ECC0
6780
0000
0016
ENDCHAR
STARTCHAR C025122
ENCODING 10834
SWIDTH 1800 0
DWIDTH 18 0
BBX 13 13 3 -2
BITMAP
00C0
78C0
F0E0
30E0
60F0
60D8
C0C0
C0C0
C0C0
C180
C180
7300
1E00
ENDCHAR
STARTCHAR C025123
ENCODING 10835
SWIDTH 1800 0
DWIDTH 18 0
BBX 14 14 3 -2
BITMAP
0018
00CC
78F0
F0F8
30E0
60F0
60D8
C0C0
C0C0
C0C0
C180
C180
7300
1E00
ENDCHAR
STARTCHAR C025124
ENCODING 10836
SWIDTH 1800 0
DWIDTH 18 0
BBX 14 14 3 -2
BITMAP
003C
00FC
78FC
F0FC
30E0
60F0
60D8
C0C0
C0C0
C0C0
C180
C180
7300
1E00
ENDCHAR
STARTCHAR C025125
ENCODING 10837
SWIDTH 1800 0
DWIDTH 18 0
BBX 14 13 2 -2
BITMAP
0600
0380
0000
0000
0600
0600
0600
0330
0198
C18C
D8C0
7780
0300
ENDCHAR
STARTCHAR C025126
ENCODING 10838
SWIDTH 1800 0
DWIDTH 18 0
BBX 14 13 2 -2
BITMAP
0600
0380
0000
003C
0618
0600
0600
0330
0198
C18C
D8C0
7780
0300
ENDCHAR
STARTCHAR C025127
ENCODING 10839
SWIDTH 1800 0
DWIDTH 18 0
BBX 14 13 2 -2
BITMAP
0600
0380
003C
003C
063C
0600
0600
0330
0198
C18C
D8C0
7780
0300
ENDCHAR
STARTCHAR C025130
ENCODING 10840
SWIDTH 1800 0
DWIDTH 18 0
BBX 15 7 2 1
BITMAP
0E00
1F00
3180
60C0
C060
0038
000E
ENDCHAR
STARTCHAR C025131
ENCODING 10841
SWIDTH 1800 0
DWIDTH 18 0
BBX 15 7 2 1
BITMAP
0E78
1F30
3180
60C0
C060
0038
000E
ENDCHAR
STARTCHAR C025132
ENCODING 10842
SWIDTH 1800 0
DWIDTH 18 0
BBX 15 8 2 1
BITMAP
0078
0E78
1F78
31B0
60C0
C060
0038
000E
ENDCHAR
STARTCHAR C025133
ENCODING 10843
SWIDTH 1800 0
DWIDTH 18 0
BBX 13 14 3 -3
BITMAP
6018
6FF0
60C0
C0C0
CFF8
C0C0
C0C0
C0C0
F0C0
E7C0
ECF0
ECD8
6780
6000
ENDCHAR
STARTCHAR C025134
ENCODING 10844
SWIDTH 1800 0
DWIDTH 18 0
BBX 15 13 2 -2
BITMAP
6018
6FF6
60C0
C0CC
CFF0
C0C0
C0C0
C0C0
F0C0
E7E0
ECF8
ECD8
6780
ENDCHAR
STARTCHAR C025135
ENCODING 10845
SWIDTH 1800 0
DWIDTH 18 0
BBX 15 15 2 -4
BITMAP
6018
6FF0
60DE
C0DE
CFFC
C0C0
C0C0
C0C0
F0C0
E7E0
ECF8
ECD8
6780
0000
0940
ENDCHAR
STARTCHAR C025136
ENCODING 10846
SWIDTH 1800 0
DWIDTH 18 0
BBX 15 16 4 -4
BITMAP
0C00
0C00
0D80
7F00
0C00
0C00
FF80
0C00
0C00
0C00
FE00
CF80
CC00
7800
0000
0002
ENDCHAR
STARTCHAR C025137
ENCODING 10847
SWIDTH 1800 0
DWIDTH 18 0
BBX 14 14 2 -4
BITMAP
1F80
0180
0300
0330
0630
1F30
3DF0
6C78
D86C
D8C0
7180
0380
0000
6000
ENDCHAR
STARTCHAR C025140
ENCODING 10848
SWIDTH 1800 0
DWIDTH 18 0
BBX 15 16 3 -4
BITMAP
3000
3000
3000
FE70
3038
3018
F000
F000
F000
F060
F060
7060
30E0
1FC0
0000
0016
ENDCHAR
STARTCHAR C025141
ENCODING 10849
SWIDTH 1800 0
DWIDTH 18 0
BBX 13 13 3 -2
BITMAP
0180
0180
6300
67C0
3F70
3330
7618
DE18
DC18
DC18
FE30
F060
01C0
ENDCHAR
STARTCHAR C025142
ENCODING 10850
SWIDTH 1800 0
DWIDTH 18 0
BBX 10 14 4 -2
BITMAP
1800
1800
1800
D800
7F00
3000
3180
F0C0
3CC0
30C0
30C0
30C0
18C0
0F80
ENDCHAR
STARTCHAR C025143
ENCODING 10851
SWIDTH 1800 0
DWIDTH 18 0
BBX 10 10 4 -3
BITMAP
0C00
0600
6180
3FC0
38C0
F0C0
1F80
1800
0C00
0C00
ENDCHAR
STARTCHAR C025144
ENCODING 10852
SWIDTH 1800 0
DWIDTH 18 0
BBX 14 14 2 -3
BITMAP
0300
0180
3030
31FC
1F0C
1C0C
7C0C
CC38
06E0
0600
0600
0300
0300
0300
ENDCHAR
STARTCHAR C025145
ENCODING 10853
SWIDTH 1800 0
DWIDTH 18 0
BBX 10 10 4 -3
BITMAP
0600
6600
CF80
DEC0
F6C0
66C0
6EC0
6780
6C00
0C00
ENDCHAR
STARTCHAR C025146
ENCODING 10854
SWIDTH 1800 0
DWIDTH 18 0
BBX 13 14 3 -2
BITMAP
0300
6180
C180
C3E0
CFB0
D998
F198
E198
E198
CFB0
C730
C3E0
6600
0600
ENDCHAR
STARTCHAR C025147
ENCODING 10855
SWIDTH 1800 0
DWIDTH 18 0
BBX 8 10 5 -3
BITMAP
18
18
18
1E
18
18
18
FC
DF
F0
ENDCHAR
STARTCHAR C025150
ENCODING 10856
SWIDTH 1800 0
DWIDTH 18 0
BBX 10 14 4 -2
BITMAP
0C00
0C00
0C00
0CC0
0F80
0C00
0C00
0C00
0C00
0C00
FE00
0F80
1CC0
F800
ENDCHAR
STARTCHAR C025151
ENCODING 10857
SWIDTH 1800 0
DWIDTH 18 0
BBX 10 13 5 -2
BITMAP
7000
1800
C000
C000
C000
C000
CF80
F9C0
E0C0
C0C0
00C0
0380
1E00
ENDCHAR
STARTCHAR C025152
ENCODING 10858
SWIDTH 1800 0
DWIDTH 18 0
BBX 8 15 5 -3
BITMAP
60
63
C3
C3
C3
C3
F3
E3
E3
E3
63
06
06
0E
0C
ENDCHAR
STARTCHAR C025153
ENCODING 10859
SWIDTH 1800 0
DWIDTH 18 0
BBX 12 13 3 -2
BITMAP
0700
3F00
0700
0600
0C00
1FC0
3860
7030
C030
1E30
1B60
19E0
0FC0
ENDCHAR
STARTCHAR C025154
ENCODING 10860
SWIDTH 1800 0
DWIDTH 18 0
BBX 14 16 2 -4
BITMAP
1800
1800
1800
1DC0
3F60
FE60
1C60
1860
3860
3860
786C
D86C
1878
1800
1800
0940
ENDCHAR
STARTCHAR C025155
ENCODING 10861
SWIDTH 1800 0
DWIDTH 18 0
BBX 14 15 4 -4
BITMAP
1F00
7700
0600
0C00
1800
3F80
38C0
6060
C060
0060
00E0
01C0
0F00
0000
0004
ENDCHAR
STARTCHAR C025156
ENCODING 10862
SWIDTH 1800 0
DWIDTH 18 0
BBX 10 11 4 -4
BITMAP
3000
3000
3800
FF80
38C0
70C0
F0C0
F0C0
3380
3000
6000
ENDCHAR
STARTCHAR C025157
ENCODING 10863
SWIDTH 1800 0
DWIDTH 18 0
BBX 17 15 2 -4
BITMAP
0C0000
0C0000
0C0000
1E0000
7DF800
0F1C00
1C0C00
380C00
380C00
780C00
D81C00
D83800
18F000
180000
001680
ENDCHAR
STARTCHAR C025160
ENCODING 10864
SWIDTH 1800 0
DWIDTH 18 0
BBX 12 13 3 -2
BITMAP
0700
3F00
0600
0600
0780
1CE0
7C30
6C30
D830
DF30
DFB0
F6E0
67C0
ENDCHAR
STARTCHAR C025161
ENCODING 10865
SWIDTH 1800 0
DWIDTH 18 0
BBX 13 14 3 -3
BITMAP
07C0
1D80
0300
0600
0FF0
1830
3F30
0F70
07E0
1C00
31F0
7F18
C618
C600
ENDCHAR
STARTCHAR C025162
ENCODING 10866
SWIDTH 1800 0
DWIDTH 18 0
BBX 12 14 3 -2
BITMAP
0C00
0C00
1B80
7E00
1800
3000
3E30
63E0
C380
CF00
1B00
3300
1800
1FC0
ENDCHAR
STARTCHAR C025163
ENCODING 10867
SWIDTH 1800 0
DWIDTH 18 0
BBX 13 13 3 -2
BITMAP
0600
0C00
0C00
1C00
1800
3800
3600
3F00
7300
6318
E330
C1B0
C1E0
ENDCHAR
STARTCHAR C025164
ENCODING 10868
SWIDTH 1800 0
DWIDTH 18 0
BBX 0 0 0 0
BITMAP
ENDCHAR
STARTCHAR C025165
ENCODING 10869
SWIDTH 1800 0
DWIDTH 18 0
BBX 0 0 0 0
BITMAP
ENDCHAR
STARTCHAR C025166
ENCODING 10870
SWIDTH 1800 0
DWIDTH 18 0
BBX 0 0 0 0
BITMAP
ENDCHAR
STARTCHAR C025167
ENCODING 10871
SWIDTH 1800 0
DWIDTH 18 0
BBX 0 0 0 0
BITMAP
ENDCHAR
STARTCHAR C025170
ENCODING 10872
SWIDTH 1800 0
DWIDTH 18 0
BBX 0 0 0 0
BITMAP
ENDCHAR
STARTCHAR C025171
ENCODING 10873
SWIDTH 1800 0
DWIDTH 18 0
BBX 0 0 0 0
BITMAP
ENDCHAR
STARTCHAR C025172
ENCODING 10874
SWIDTH 1800 0
DWIDTH 18 0
BBX 1 14 18 -3
BITMAP
80
00
00
80
00
80
80
00
00
00
00
00
80
80
ENDCHAR
STARTCHAR C025173
ENCODING 10875
SWIDTH 1800 0
DWIDTH 18 0
BBX 6 1 4 -4
BITMAP
94
ENDCHAR
STARTCHAR C025174
ENCODING 10876
SWIDTH 1800 0
DWIDTH 18 0
BBX 1 1 14 -4
BITMAP
80
ENDCHAR
STARTCHAR C025175
ENCODING 10877
SWIDTH 1800 0
DWIDTH 18 0
BBX 2 1 1 -4
BITMAP
C0
ENDCHAR
STARTCHAR C025176
ENCODING 10878
SWIDTH 1800 0
DWIDTH 18 0
BBX 6 1 11 -4
BITMAP
B4
ENDCHAR
STARTCHAR C025177
ENCODING 10879
SWIDTH 1800 0
DWIDTH 18 0
BBX 1 2 18 9
BITMAP
80
80
ENDCHAR
STARTCHAR C025441
ENCODING 11041
SWIDTH 1800 0
DWIDTH 18 0
BBX 9 8 5 -2
BITMAP
FF80
0180
1B00
1E00
1800
3000
3000
6000
ENDCHAR
STARTCHAR C025442
ENCODING 11042
SWIDTH 1800 0
DWIDTH 18 0
BBX 12 12 3 -2
BITMAP
FFF0
0030
0C60
0CC0
0D80
0C00
0C00
0C00
1800
1800
7000
C000
ENDCHAR
STARTCHAR C025443
ENCODING 11043
SWIDTH 1800 0
DWIDTH 18 0
BBX 8 9 4 -3
BITMAP
03
06
0C
3C
EC
0C
0C
0C
0C
ENDCHAR
STARTCHAR C025444
ENCODING 11044
SWIDTH 1800 0
DWIDTH 18 0
BBX 11 13 3 -2
BITMAP
0060
00C0
0180
0300
0E00
1E00
F600
0600
0600
0600
0600
0600
0600
ENDCHAR
STARTCHAR C025445
ENCODING 11045
SWIDTH 1800 0
DWIDTH 18 0
BBX 8 10 5 -3
BITMAP
18
18
FF
C3
C3
C3
06
06
0C
18
ENDCHAR
STARTCHAR C025446
ENCODING 11046
SWIDTH 1800 0
DWIDTH 18 0
BBX 11 13 4 -2
BITMAP
0C00
0C00
FFE0
C060
C060
C060
C060
00C0
00C0
0180
0300
0600
1C00
ENDCHAR
STARTCHAR C025447
ENCODING 11047
SWIDTH 1800 0
DWIDTH 18 0
BBX 10 7 4 -3
BITMAP
7F80
0C00
0C00
0C00
0C00
0C00
FFC0
ENDCHAR
STARTCHAR C025450
ENCODING 11048
SWIDTH 1800 0
DWIDTH 18 0
BBX 13 9 3 0
BITMAP
FFF0
0600
0600
0600
0600
0600
0600
0600
FFF8
ENDCHAR
STARTCHAR C025451
ENCODING 11049
SWIDTH 1800 0
DWIDTH 18 0
BBX 9 9 5 -3
BITMAP
0C00
0C00
FF80
1C00
3C00
3C00
EC00
0C00
3C00
ENDCHAR
STARTCHAR C025452
ENCODING 11050
SWIDTH 1800 0
DWIDTH 18 0
BBX 13 15 3 -4
BITMAP
0180
0180
0180
FFF8
0380
0780
0780
0D80
1980
3180
E180
0180
0F00
0000
0940
ENDCHAR
STARTCHAR C025453
ENCODING 11051
SWIDTH 1800 0
DWIDTH 18 0
BBX 15 16 3 -4
BITMAP
0600
0600
0600
0600
7FF0
0630
0630
0630
0C30
0C30
1860
3060
E3C0
0000
0000
0002
ENDCHAR
STARTCHAR C025454
ENCODING 11052
SWIDTH 1800 0
DWIDTH 18 0
BBX 14 16 3 -4
BITMAP
0618
060C
0630
0618
7FF0
0630
0630
0630
0C30
0C30
1860
3060
E3C0
0000
0000
6000
ENDCHAR
STARTCHAR C025455
ENCODING 11053
SWIDTH 1800 0
DWIDTH 18 0
BBX 14 15 4 -4
BITMAP
1800
0C00
0DC0
FF00
0C00
0C00
0DF0
FF00
0C00
0600
0600
0600
0600
0600
002C
ENDCHAR
STARTCHAR C025456
ENCODING 11054
SWIDTH 1800 0
DWIDTH 18 0
BBX 13 15 4 -3
BITMAP
0030
1878
0C30
0DC0
FF00
0C00
0C00
0DF0
FF00
0C00
0600
0600
0600
0600
0600
ENDCHAR
STARTCHAR C025457
ENCODING 11055
SWIDTH 1800 0
DWIDTH 18 0
BBX 10 14 3 -3
BITMAP
0600
0600
0C00
0FC0
18C0
30C0
6180
C180
0300
0700
0E00
1C00
3000
E000
ENDCHAR
STARTCHAR C025460
ENCODING 11056
SWIDTH 1800 0
DWIDTH 18 0
BBX 13 14 4 -2
BITMAP
0630
0C78
0C30
1FC0
38C0
70C0
E180
0180
0300
0600
0C00
1800
3000
E000
ENDCHAR
STARTCHAR C025461
ENCODING 11057
SWIDTH 1800 0
DWIDTH 18 0
BBX 14 14 2 -3
BITMAP
0600
0600
0C00
0C00
1FFC
18C0
30C0
6180
C180
0180
0300
0300
0600
0C00
ENDCHAR
STARTCHAR C025462
ENCODING 11058
SWIDTH 1800 0
DWIDTH 18 0
BBX 15 15 2 -3
BITMAP
000C
061E
060C
0C00
0C00
1FFC
18C0
30C0
6180
C180
0180
0300
0300
0600
0C00
ENDCHAR
STARTCHAR C025463
ENCODING 11059
SWIDTH 1800 0
DWIDTH 18 0
BBX 10 10 4 -1
BITMAP
FFC0
00C0
00C0
00C0
00C0
00C0
00C0
00C0
FFC0
00C0
ENDCHAR
STARTCHAR C025464
ENCODING 11060
SWIDTH 1800 0
DWIDTH 18 0
BBX 13 13 4 -1
BITMAP
0018
0000
0030
FFC0
00C0
00C0
00C0
00C0
00C0
00C0
00C0
FFC0
00C0
ENDCHAR
STARTCHAR C025465
ENCODING 11061
SWIDTH 1800 0
DWIDTH 18 0
BBX 15 14 2 -3
BITMAP
0C60
0C60
0C60
0C60
FFFE
0C60
0C60
0C60
0CC0
00C0
00C0
0180
0300
0600
ENDCHAR
STARTCHAR C025466
ENCODING 11062
SWIDTH 1800 0
DWIDTH 18 0
BBX 15 15 2 -3
BITMAP
000C
0C7E
0C6C
0C60
0C60
FFFE
0C60
0C60
0C60
0CC0
00C0
00C0
0180
0300
0600
ENDCHAR
STARTCHAR C025467
ENCODING 11063
SWIDTH 1800 0
DWIDTH 18 0
BBX 13 11 3 -1
BITMAP
3800
0C00
0000
E018
3018
1830
0060
01C0
0300
0E00
7800
ENDCHAR
STARTCHAR C025470
ENCODING 11064
SWIDTH 1800 0
DWIDTH 18 0
BBX 13 11 3 -1
BITMAP
18F0
0C60
0000
E018
3018
1830
0060
01C0
0300
0E00
7800
ENDCHAR
STARTCHAR C025471
ENCODING 11065
SWIDTH 1800 0
DWIDTH 18 0
BBX 12 13 3 -4
BITMAP
7FC0
00C0
00C0
0180
0180
0380
06C0
0C60
1870
7030
C000
0000
0940
ENDCHAR
STARTCHAR C025472
ENCODING 11066
SWIDTH 1800 0
DWIDTH 18 0
BBX 15 15 3 -4
BITMAP
003C
0018
7FC0
00C0
00C0
0180
0180
0380
06C0
0C60
1860
7030
C000
0000
0002
ENDCHAR
STARTCHAR C025473
ENCODING 11067
SWIDTH 1800 0
DWIDTH 18 0
BBX 13 15 2 -4
BITMAP
0C00
0C00
0C00
0DF8
3F30
EC30
0C60
0CC0
0C00
0C00
0C00
07F8
0000
0000
6000
ENDCHAR
STARTCHAR C025474
ENCODING 11068
SWIDTH 1800 0
DWIDTH 18 0
BBX 16 16 3 -4
BITMAP
0018
180C
1830
1818
1FF0
FC60
1860
18C0
1980
1800
1800
1800
0FF0
0000
0000
002D
ENDCHAR
STARTCHAR C025475
ENCODING 11069
SWIDTH 1800 0
DWIDTH 18 0
BBX 11 12 4 -2
BITMAP
C060
C0C0
60C0
60C0
0180
0180
0300
0300
0600
0C00
1800
3000
ENDCHAR
STARTCHAR C025476
ENCODING 11070
SWIDTH 1800 0
DWIDTH 18 0
BBX 15 14 3 -2
BITMAP
003C
001E
E030
6060
3060
3060
00C0
00C0
0180
0180
0300
0600
0C00
1800
ENDCHAR
STARTCHAR C025477
ENCODING 11071
SWIDTH 1800 0
DWIDTH 18 0
BBX 10 14 4 -3
BITMAP
0C00
0C00
1FC0
38C0
70C0
F980
0D80
0700
0700
0600
0C00
3800
6000
C000
ENDCHAR
STARTCHAR C025500
ENCODING 11072
SWIDTH 1800 0
DWIDTH 18 0
BBX 13 14 4 -3
BITMAP
0C78
0C30
1FC0
38C0
70C0
F980
0D80
0700
0700
0600
0C00
3800
6000
C000
ENDCHAR
STARTCHAR C025501
ENCODING 11073
SWIDTH 1800 0
DWIDTH 18 0
BBX 14 12 3 -2
BITMAP
03C0
7F00
0300
0300
FFFC
0300
0300
0600
0600
0C00
0C00
3800
ENDCHAR
STARTCHAR C025502
ENCODING 11074
SWIDTH 1800 0
DWIDTH 18 0
BBX 14 12 3 -2
BITMAP
03FC
7F18
0300
0300
FFFC
0300
0300
0600
0600
0C00
0C00
3800
ENDCHAR
STARTCHAR C025503
ENCODING 11075
SWIDTH 1800 0
DWIDTH 18 0
BBX 9 9 5 -3
BITMAP
1980
D980
C300
6300
0300
0600
0C00
1800
3000
ENDCHAR
STARTCHAR C025504
ENCODING 11076
SWIDTH 1800 0
DWIDTH 18 0
BBX 12 13 3 -2
BITMAP
0C00
CC30
C630
6630
6060
3060
0060
00C0
00C0
0180
0300
0600
1C00
ENDCHAR
STARTCHAR C025505
ENCODING 11077
SWIDTH 1800 0
DWIDTH 18 0
BBX 14 15 3 -2
BITMAP
0018
003C
0C18
CC00
C630
6630
6060
3060
0060
00C0
00C0
0180
0300
0600
1C00
ENDCHAR
STARTCHAR C025506
ENCODING 11078
SWIDTH 1800 0
DWIDTH 18 0
BBX 14 12 3 -2
BITMAP
3FE0
0000
0000
FFFC
0300
0300
0300
0600
0600
0E00
1C00
3000
ENDCHAR
STARTCHAR C025507
ENCODING 11079
SWIDTH 1800 0
DWIDTH 18 0
BBX 15 12 2 -2
BITMAP
1FF6
000C
0000
FFFC
0300
0300
0300
0300
0600
0600
1C00
3000
ENDCHAR
STARTCHAR C025510
ENCODING 11080
SWIDTH 1800 0
DWIDTH 18 0
BBX 10 15 7 -4
BITMAP
C000
C000
C000
C000
E000
F000
D800
CC00
C000
C000
C000
C000
C000
0000
0940
ENDCHAR
STARTCHAR C025511
ENCODING 11081
SWIDTH 1800 0
DWIDTH 18 0
BBX 8 13 7 -2
BITMAP
C0
CF
C6
C0
E0
F0
D8
CC
C0
C0
C0
C0
C0
ENDCHAR
STARTCHAR C025512
ENCODING 11082
SWIDTH 1800 0
DWIDTH 18 0
BBX 14 15 3 -4
BITMAP
0300
0300
0300
0300
FFFC
0300
0300
0300
0600
0600
0600
0C00
1800
3000
C000
ENDCHAR
STARTCHAR C025513
ENCODING 11083
SWIDTH 1800 0
DWIDTH 18 0
BBX 15 13 3 -4
BITMAP
3FE0
0000
0000
0000
0000
0000
0000
0000
FFF8
0000
0000
0000
0016
ENDCHAR
STARTCHAR C025514
ENCODING 11084
SWIDTH 1800 0
DWIDTH 18 0
BBX 11 12 3 -2
BITMAP
7FE0
00C0
00C0
18C0
0F80
0780
0380
03E0
0660
0C00
3800
E000
ENDCHAR
STARTCHAR C025515
ENCODING 11085
SWIDTH 1800 0
DWIDTH 18 0
BBX 12 14 3 -3
BITMAP
0300
0300
7FE0
0060
00C0
0180
0300
0F60
1B30
F300
0300
0300
0300
0300
ENDCHAR
STARTCHAR C025516
ENCODING 11086
SWIDTH 1800 0
DWIDTH 18 0
BBX 11 13 3 -2
BITMAP
0060
0060
00C0
00C0
0180
0180
0300
0300
0600
0C00
1800
3000
E000
ENDCHAR
STARTCHAR C025517
ENCODING 11087
SWIDTH 1800 0
DWIDTH 18 0
BBX 14 9 2 0
BITMAP
0C60
0C60
0C30
1830
1818
1818
300C
600C
C00C
ENDCHAR
STARTCHAR C025520
ENCODING 11088
SWIDTH 1800 0
DWIDTH 18 0
BBX 15 11 2 0
BITMAP
000C
001E
0C6C
0C60
0C30
1830
1818
1818
300C
600C
C00C
ENDCHAR
STARTCHAR C025521
ENCODING 11089
SWIDTH 1800 0
DWIDTH 18 0
BBX 15 11 2 0
BITMAP
001C
001E
0C7C
0C60
0C30
1830
1818
1818
300C
600C
C00C
ENDCHAR
STARTCHAR C025522
ENCODING 11090
SWIDTH 1800 0
DWIDTH 18 0
BBX 10 12 5 -1
BITMAP
C000
C000
C000
C300
DE00
F000
C000
C000
C000
C000
C000
7FC0
ENDCHAR
STARTCHAR C025523
ENCODING 11091
SWIDTH 1800 0
DWIDTH 18 0
BBX 12 13 5 -1
BITMAP
0030
C000
C060
C000
C380
DE00
F000
C000
C000
C000
C000
C000
7FC0
ENDCHAR
STARTCHAR C025524
ENCODING 11092
SWIDTH 1800 0
DWIDTH 18 0
BBX 12 13 5 -1
BITMAP
00F0
C0F0
C070
C000
C380
DE00
F000
C000
C000
C000
C000
C000
7FC0
ENDCHAR
STARTCHAR C025525
ENCODING 11093
SWIDTH 1800 0
DWIDTH 18 0
BBX 12 12 3 -3
BITMAP
FFF0
0070
0060
0060
0060
00C0
00C0
0180
0300
0600
1C00
3800
ENDCHAR
STARTCHAR C025526
ENCODING 11094
SWIDTH 1800 0
DWIDTH 18 0
BBX 14 15 3 -3
BITMAP
003C
0018
0000
FFF0
0070
0060
0060
0060
00C0
00C0
0180
0300
0600
1C00
3800
ENDCHAR
STARTCHAR C025527
ENCODING 11095
SWIDTH 1800 0
DWIDTH 18 0
BBX 14 17 3 -4
BITMAP
001C
003C
003C
0018
FFF0
0030
0060
0060
0060
00C0
00C0
0180
0300
0600
1C00
3800
0940
ENDCHAR
STARTCHAR C025530
ENCODING 11096
SWIDTH 1800 0
DWIDTH 18 0
BBX 15 11 2 -4
BITMAP
0F00
3980
60C0
C060
0030
001C
0000
0000
0000
0000
0002
ENDCHAR
STARTCHAR C025531
ENCODING 11097
SWIDTH 1800 0
DWIDTH 18 0
BBX 14 14 2 -4
BITMAP
0030
0060
0000
0F00
3980
60C0
C060
0030
001C
0000
0000
0000
0000
6000
ENDCHAR
STARTCHAR C025532
ENCODING 11098
SWIDTH 1800 0
DWIDTH 18 0
BBX 17 14 2 -4
BITMAP
00F000
00F000
007000
1F0000
318000
60C000
C06000
003800
000E00
000000
000000
000000
000000
001680
ENDCHAR
STARTCHAR C025533
ENCODING 11099
SWIDTH 1800 0
DWIDTH 18 0
BBX 14 13 2 -2
BITMAP
0300
0300
0300
FFFC
0300
0300
1B30
1B18
3318
330C
630C
0300
1F00
ENDCHAR
STARTCHAR C025534
ENCODING 11100
SWIDTH 1800 0
DWIDTH 18 0
BBX 14 14 2 -2
BITMAP
0018
033C
0318
0300
FFFC
0300
0300
1B30
1B18
3318
330C
630C
0300
1F00
ENDCHAR
STARTCHAR C025535
ENCODING 11101
SWIDTH 1800 0
DWIDTH 18 0
BBX 14 14 2 -2
BITMAP
0038
033C
0338
0300
FFFC
0300
0300
1B30
1B18
3318
330C
630C
0300
1F00
ENDCHAR
STARTCHAR C025536
ENCODING 11102
SWIDTH 1800 0
DWIDTH 18 0
BBX 12 9 3 0
BITMAP
FFF0
0030
0060
00C0
19C0
0F80
0600
0300
0180
ENDCHAR
STARTCHAR C025537
ENCODING 11103
SWIDTH 1800 0
DWIDTH 18 0
BBX 8 11 6 -1
BITMAP
78
0E
00
C0
78
1C
00
00
F0
1C
07
ENDCHAR
STARTCHAR C025540
ENCODING 11104
SWIDTH 1800 0
DWIDTH 18 0
BBX 13 12 3 -1
BITMAP
0600
0600
0600
0600
0C00
0C00
0CC0
18C0
1860
3030
FFF0
0018
ENDCHAR
STARTCHAR C025541
ENCODING 11105
SWIDTH 1800 0
DWIDTH 18 0
BBX 10 12 3 -2
BITMAP
00C0
00C0
00C0
1D80
0F80
0300
0780
0EC0
1C00
3000
6000
C000
ENDCHAR
STARTCHAR C025542
ENCODING 11106
SWIDTH 1800 0
DWIDTH 18 0
BBX 13 11 3 -2
BITMAP
7FF0
0600
0600
0600
FFF8
0600
0600
0600
0600
0600
03F8
ENDCHAR
STARTCHAR C025543
ENCODING 11107
SWIDTH 1800 0
DWIDTH 18 0
BBX 9 8 4 -2
BITMAP
1800
1800
1F80
F980
1800
0C00
0C00
0C00
ENDCHAR
STARTCHAR C025544
ENCODING 11108
SWIDTH 1800 0
DWIDTH 18 0
BBX 12 13 3 -2
BITMAP
1800
1800
1800
0FF0
7E30
CC60
0C60
0CC0
0C00
0600
0600
0600
0600
ENDCHAR
STARTCHAR C025545
ENCODING 11109
SWIDTH 1800 0
DWIDTH 18 0
BBX 10 7 4 -3
BITMAP
3F00
0300
0300
0300
0300
0300
FFC0
ENDCHAR
STARTCHAR C025546
ENCODING 11110
SWIDTH 1800 0
DWIDTH 18 0
BBX 14 13 2 -4
BITMAP
3FC0
00C0
00C0
00C0
00C0
00C0
00C0
00C0
FFFC
0000
0000
0000
0940
ENDCHAR
STARTCHAR C025547
ENCODING 11111
SWIDTH 1800 0
DWIDTH 18 0
BBX 8 8 5 -3
BITMAP
FF
03
03
7F
03
03
FF
03
ENDCHAR
STARTCHAR C025550
ENCODING 11112
SWIDTH 1800 0
DWIDTH 18 0
BBX 10 13 4 -4
BITMAP
FFC0
00C0
00C0
00C0
FFC0
00C0
00C0
00C0
FFC0
00C0
00C0
0000
6000
ENDCHAR
STARTCHAR C025551
ENCODING 11113
SWIDTH 1800 0
DWIDTH 18 0
BBX 15 14 4 -4
BITMAP
7FC0
0000
0000
FFC0
00C0
00C0
0180
0180
0300
0600
0C00
3800
0000
0016
ENDCHAR
STARTCHAR C025552
ENCODING 11114
SWIDTH 1800 0
DWIDTH 18 0
BBX 8 13 5 -2
BITMAP
C3
C3
C3
C3
C3
C3
C3
C3
06
06
06
0C
18
ENDCHAR
STARTCHAR C025553
ENCODING 11115
SWIDTH 1800 0
DWIDTH 18 0
BBX 14 11 3 -1
BITMAP
3300
3300
3300
3300
3300
330C
3318
6330
6360
63C0
C380
ENDCHAR
STARTCHAR C025554
ENCODING 11116
SWIDTH 1800 0
DWIDTH 18 0
BBX 11 11 4 0
BITMAP
C000
C000
C000
C000
C060
C0E0
C1C0
C380
C600
DC00
F000
ENDCHAR
STARTCHAR C025555
ENCODING 11117
SWIDTH 1800 0
DWIDTH 18 0
BBX 9 10 5 -1
BITMAP
FF80
C180
C180
C180
C180
C180
C180
C180
FF80
C180
ENDCHAR
STARTCHAR C025556
ENCODING 11118
SWIDTH 1800 0
DWIDTH 18 0
BBX 8 8 5 -2
BITMAP
FF
C3
C3
C3
06
06
0C
18
ENDCHAR
STARTCHAR C025557
ENCODING 11119
SWIDTH 1800 0
DWIDTH 18 0
BBX 10 12 4 -2
BITMAP
FFC0
C0C0
C0C0
C0C0
C0C0
C180
0180
0300
0300
0600
0E00
1800
ENDCHAR
STARTCHAR C025560
ENCODING 11120
SWIDTH 1800 0
DWIDTH 18 0
BBX 14 14 2 -3
BITMAP
00C0
00C0
00C0
7FF8
18C0
18C0
18C0
18C0
FFFC
00C0
00C0
00C0
00C0
00C0
ENDCHAR
STARTCHAR C025561
ENCODING 11121
SWIDTH 1800 0
DWIDTH 18 0
BBX 14 9 2 0
BITMAP
3FF8
0030
0330
0360
0300
0300
0300
0300
FFFC
ENDCHAR
STARTCHAR C025562
ENCODING 11122
SWIDTH 1800 0
DWIDTH 18 0
BBX 10 12 4 -2
BITMAP
FFC0
00C0
00C0
00C0
FF80
0180
0180
0300
0600
0C00
1800
7000
ENDCHAR
STARTCHAR C025563
ENCODING 11123
SWIDTH 1800 0
DWIDTH 18 0
BBX 13 11 3 -1
BITMAP
6000
3000
1800
0018
0030
0060
00C0
0380
0600
1C00
F000
ENDCHAR
STARTCHAR C025564
ENCODING 11124
SWIDTH 1800 0
DWIDTH 18 0
BBX 13 14 4 -2
BITMAP
0C00
0C18
0C30
FFE0
C060
C060
C060
C0C0
00C0
00C0
0180
0300
0600
1C00
ENDCHAR
STARTCHAR C025565
ENCODING 11125
SWIDTH 1800 0
DWIDTH 18 0
BBX 10 10 5 -4
BITMAP
1800
1800
FF00
1B00
1B00
3300
3300
6600
0E00
0940
ENDCHAR
STARTCHAR C025566
ENCODING 11126
SWIDTH 1800 0
DWIDTH 18 0
BBX 15 10 4 -4
BITMAP
3000
3000
3FC0
6600
C600
0600
0C00
1800
1800
0002
ENDCHAR
STARTCHAR C025573
ENCODING 11131
SWIDTH 1800 0
DWIDTH 18 0
BBX 0 0 0 0
BITMAP
ENDCHAR
STARTCHAR C025574
ENCODING 11132
SWIDTH 1800 0
DWIDTH 18 0
BBX 0 0 0 0
BITMAP
ENDCHAR
STARTCHAR C025575
ENCODING 11133
SWIDTH 1800 0
DWIDTH 18 0
BBX 0 0 0 0
BITMAP
ENDCHAR
STARTCHAR C025576
ENCODING 11134
SWIDTH 1800 0
DWIDTH 18 0
BBX 0 0 0 0
BITMAP
ENDCHAR
STARTCHAR C025577
ENCODING 11135
SWIDTH 1800 0
DWIDTH 18 0
BBX 0 0 0 0
BITMAP
ENDCHAR
STARTCHAR C026040
ENCODING 11296
SWIDTH 1800 0
DWIDTH 18 0
BBX 1 2 18 -1
BITMAP
80
80
ENDCHAR
STARTCHAR C026041
ENCODING 11297
SWIDTH 1800 0
DWIDTH 18 0
BBX 10 13 4 -1
BITMAP
0E00
1E00
1E00
1B00
3300
3300
3180
3F80
6180
60C0
60C0
C0C0
C000
ENDCHAR
STARTCHAR C026042
ENCODING 11298
SWIDTH 1800 0
DWIDTH 18 0
BBX 9 13 5 -1
BITMAP
FF00
C000
C000
C000
C000
FE00
C300
C180
C180
C180
C180
C300
FE00
ENDCHAR
STARTCHAR C026043
ENCODING 11299
SWIDTH 1800 0
DWIDTH 18 0
BBX 9 13 5 -1
BITMAP
FE00
C300
C180
C180
C180
C300
FF00
C380
C180
C180
C180
C380
FF00
ENDCHAR
STARTCHAR C026044
ENCODING 11300
SWIDTH 1800 0
DWIDTH 18 0
BBX 10 16 6 -4
BITMAP
FF00
C000
C000
C000
C000
C000
C000
C000
C000
C000
C000
C000
C000
0000
0000
0940
ENDCHAR
STARTCHAR C026045
ENCODING 11301
SWIDTH 1800 0
DWIDTH 18 0
BBX 15 16 3 -4
BITMAP
3FE0
3060
3060
3060
3060
3060
3060
3060
6060
FFF0
C030
C030
C030
0000
0000
0002
ENDCHAR
STARTCHAR C026046
ENCODING 11302
SWIDTH 1800 0
DWIDTH 18 0
BBX 9 16 5 -4
BITMAP
FF80
C000
C000
C000
C000
C000
FF00
C000
C000
C000
C000
C000
FF80
0000
0000
6000
ENDCHAR
STARTCHAR C026047
ENCODING 11303
SWIDTH 1800 0
DWIDTH 18 0
BBX 14 16 5 -4
BITMAP
6600
0000
FF80
C000
C000
C000
C000
FF80
C000
C000
C000
C000
FF80
0000
0000
0014
ENDCHAR
STARTCHAR C026050
ENCODING 11304
SWIDTH 1800 0
DWIDTH 18 0
BBX 13 14 3 -2
BITMAP
E638
7670
3660
3660
3660
36C0
3FC0
3660
6630
6630
6630
6630
E630
0018
ENDCHAR
STARTCHAR C026051
ENCODING 11305
SWIDTH 1800 0
DWIDTH 18 0
BBX 10 13 4 -1
BITMAP
1E00
7380
E0C0
C0C0
C0C0
0180
0F00
01C0
00C0
C0C0
C0C0
6180
3F00
ENDCHAR
STARTCHAR C026052
ENCODING 11306
SWIDTH 1800 0
DWIDTH 18 0
BBX 9 13 5 -1
BITMAP
C180
C380
C380
C780
CD80
CD80
D980
D980
F180
F180
E180
E180
C180
ENDCHAR
STARTCHAR C026053
ENCODING 11307
SWIDTH 1800 0
DWIDTH 18 0
BBX 9 13 5 -1
BITMAP
6600
6600
FD80
C380
C780
C780
CD80
D980
D980
F180
F180
E180
C180
ENDCHAR
STARTCHAR C026054
ENCODING 11308
SWIDTH 1800 0
DWIDTH 18 0
BBX 9 13 5 -1
BITMAP
C380
C600
C600
CC00
CC00
CC00
F800
CE00
C600
C600
C600
C300
C300
ENDCHAR
STARTCHAR C026055
ENCODING 11309
SWIDTH 1800 0
DWIDTH 18 0
BBX 10 13 4 -1
BITMAP
3FC0
30C0
30C0
30C0
30C0
30C0
30C0
30C0
30C0
30C0
30C0
30C0
E0C0
ENDCHAR
STARTCHAR C026056
ENCODING 11310
SWIDTH 1800 0
DWIDTH 18 0
BBX 12 13 3 -1
BITMAP
C030
E070
E0F0
F0F0
F0F0
F1B0
D9B0
D9B0
DB30
CF30
CF30
C630
C630
ENDCHAR
STARTCHAR C026057
ENCODING 11311
SWIDTH 1800 0
DWIDTH 18 0
BBX 9 13 5 -1
BITMAP
C180
C180
C180
C180
C180
C180
FF80
C180
C180
C180
C180
C180
C180
ENDCHAR
STARTCHAR C026060
ENCODING 11312
SWIDTH 1800 0
DWIDTH 18 0
BBX 11 13 4 -1
BITMAP
0E00
3B80
60C0
60C0
C060
C060
C060
C060
C060
C060
60C0
71C0
1F00
ENDCHAR
STARTCHAR C026061
ENCODING 11313
SWIDTH 1800 0
DWIDTH 18 0
BBX 9 13 5 -1
BITMAP
FF80
C180
C180
C180
C180
C180
C180
C180
C180
C180
C180
C180
C180
ENDCHAR
STARTCHAR C026062
ENCODING 11314
SWIDTH 1800 0
DWIDTH 18 0
BBX 9 13 5 -1
BITMAP
FC00
C700
C180
C180
C180
C180
C700
FC00
C000
C000
C000
C000
C000
ENDCHAR
STARTCHAR C026063
ENCODING 11315
SWIDTH 1800 0
DWIDTH 18 0
BBX 11 16 4 -4
BITMAP
0F00
39C0
60E0
6060
C060
C000
C000
C000
C060
C060
6060
70C0
1F80
0000
0000
0940
ENDCHAR
STARTCHAR C026064
ENCODING 11316
SWIDTH 1800 0
DWIDTH 18 0
BBX 15 16 4 -4
BITMAP
FFE0
0C00
0C00
0C00
0C00
0C00
0C00
0C00
0C00
0C00
0C00
0C00
0C00
0000
0000
0002
ENDCHAR
STARTCHAR C026065
ENCODING 11317
SWIDTH 1800 0
DWIDTH 18 0
BBX 9 16 5 -4
BITMAP
0180
C180
C300
6300
6600
6600
3600
3C00
1C00
1800
1800
3000
F000
0000
0000
C000
ENDCHAR
STARTCHAR C026066
ENCODING 11318
SWIDTH 1800 0
DWIDTH 18 0
BBX 15 16 3 -4
BITMAP
0600
0600
3FE0
6670
E638
C618
C618
C618
C618
6630
3660
1FC0
0600
0000
0000
0016
ENDCHAR
STARTCHAR C026067
ENCODING 11319
SWIDTH 1800 0
DWIDTH 18 0
BBX 9 14 5 -2
BITMAP
C000
6300
6700
3600
3E00
1C00
1C00
1C00
3C00
3600
6600
6300
C380
C000
ENDCHAR
STARTCHAR C026070
ENCODING 11320
SWIDTH 1800 0
DWIDTH 18 0
BBX 11 13 4 -2
BITMAP
C180
C180
C180
C180
C180
C180
C180
C180
C180
C180
FFE0
0060
0060
ENDCHAR
STARTCHAR C026071
ENCODING 11321
SWIDTH 1800 0
DWIDTH 18 0
BBX 8 12 5 -1
BITMAP
C3
C3
C3
C3
C3
C3
E7
7F
03
03
03
03
ENDCHAR
STARTCHAR C026072
ENCODING 11322
SWIDTH 1800 0
DWIDTH 18 0
BBX 12 12 3 -1
BITMAP
C630
C630
C630
C630
C630
C630
C630
C630
C630
C630
C630
FFF0
ENDCHAR
STARTCHAR C026073
ENCODING 11323
SWIDTH 1800 0
DWIDTH 18 0
BBX 13 13 3 -2
BITMAP
C630
C630
C630
C630
C630
C630
C630
C630
C630
C630
FFF8
0018
0018
ENDCHAR
STARTCHAR C026074
ENCODING 11324
SWIDTH 1800 0
DWIDTH 18 0
BBX 11 13 4 -1
BITMAP
F000
3000
3000
3000
3000
3FC0
30E0
3060
3060
3060
3060
30C0
1F80
ENDCHAR
STARTCHAR C026075
ENCODING 11325
SWIDTH 1800 0
DWIDTH 18 0
BBX 11 13 4 -1
BITMAP
C060
C060
C060
C060
C060
C060
FE60
C360
C360
C360
C360
C660
FC60
ENDCHAR
STARTCHAR C026076
ENCODING 11326
SWIDTH 1800 0
DWIDTH 18 0
BBX 9 12 5 -1
BITMAP
C000
C000
C000
C000
E000
FF00
C180
C180
C180
C180
C300
FE00
ENDCHAR
STARTCHAR C026077
ENCODING 11327
SWIDTH 1800 0
DWIDTH 18 0
BBX 11 13 4 -1
BITMAP
0E00
3B80
60C0
C0C0
0060
0060
1FE0
0060
0060
C060
C0C0
6180
3F00
ENDCHAR
STARTCHAR C026100
ENCODING 11328
SWIDTH 1800 0
DWIDTH 18 0
BBX 15 13 2 -1
BITMAP
C0E0
C3B8
C60C
C60C
CC06
CC06
FC06
CC06
CC06
CC06
C60C
C71C
C1F0
ENDCHAR
STARTCHAR C026101
ENCODING 11329
SWIDTH 1800 0
DWIDTH 18 0
BBX 10 13 4 -1
BITMAP
3FC0
60C0
C0C0
C0C0
C0C0
60C0
3FC0
60C0
C0C0
C0C0
C0C0
C0C0
C0C0
ENDCHAR
STARTCHAR C026112
ENCODING 11338
SWIDTH 1800 0
DWIDTH 18 0
BBX 0 0 0 0
BITMAP
ENDCHAR
STARTCHAR C026113
ENCODING 11339
SWIDTH 1800 0
DWIDTH 18 0
BBX 0 0 0 0
BITMAP
ENDCHAR
STARTCHAR C026114
ENCODING 11340
SWIDTH 1800 0
DWIDTH 18 0
BBX 0 0 0 0
BITMAP
ENDCHAR
STARTCHAR C026115
ENCODING 11341
SWIDTH 1800 0
DWIDTH 18 0
BBX 0 0 0 0
BITMAP
ENDCHAR
STARTCHAR C026116
ENCODING 11342
SWIDTH 1800 0
DWIDTH 18 0
BBX 0 0 0 0
BITMAP
ENDCHAR
STARTCHAR C026117
ENCODING 11343
SWIDTH 1800 0
DWIDTH 18 0
BBX 0 0 0 0
BITMAP
ENDCHAR
STARTCHAR C026121
ENCODING 11345
SWIDTH 1800 0
DWIDTH 18 0
BBX 10 13 5 -4
BITMAP
3E00
6700
C300
0300
0300
7F00
C300
C300
C700
7F80
0000
0000
0940
ENDCHAR
STARTCHAR C026122
ENCODING 11346
SWIDTH 1800 0
DWIDTH 18 0
BBX 9 13 5 -1
BITMAP
3F80
6000
6000
C000
FF00
E300
C180
C180
C180
C180
C180
6300
3E00
ENDCHAR
STARTCHAR C026123
ENCODING 11347
SWIDTH 1800 0
DWIDTH 18 0
BBX 7 13 6 -4
BITMAP
FC
C6
C6
C6
CC
FE
C6
C6
C6
FC
00
00
60
ENDCHAR
STARTCHAR C026124
ENCODING 11348
SWIDTH 1800 0
DWIDTH 18 0
BBX 12 13 7 -4
BITMAP
FC00
C000
C000
C000
C000
C000
C000
C000
C000
C000
0000
0000
0010
ENDCHAR
STARTCHAR C026125
ENCODING 11349
SWIDTH 1800 0
DWIDTH 18 0
BBX 10 11 4 -2
BITMAP
3F80
3180
3180
3180
3180
3180
3180
6180
FFC0
C0C0
C0C0
ENDCHAR
STARTCHAR C026126
ENCODING 11350
SWIDTH 1800 0
DWIDTH 18 0
BBX 8 10 5 -1
BITMAP
3C
66
C3
C3
C3
FF
C0
C3
67
3C
ENDCHAR
STARTCHAR C026127
ENCODING 11351
SWIDTH 1800 0
DWIDTH 18 0
BBX 8 12 5 -1
BITMAP
36
00
3C
66
C3
C3
C3
FF
C0
C3
66
3C
ENDCHAR
STARTCHAR C026130
ENCODING 11352
SWIDTH 1800 0
DWIDTH 18 0
BBX 11 10 4 -1
BITMAP
ECE0
6DC0
6D80
3D80
3F00
6D80
6CC0
6CC0
6CC0
60C0
ENDCHAR
STARTCHAR C026131
ENCODING 11353
SWIDTH 1800 0
DWIDTH 18 0
BBX 7 10 6 -1
BITMAP
7C
EE
C6
06
0C
3C
C6
C6
E6
7C
ENDCHAR
STARTCHAR C026132
ENCODING 11354
SWIDTH 1800 0
DWIDTH 18 0
BBX 7 10 6 -2
BITMAP
C6
CE
DE
DE
F6
F6
E6
E6
C6
C0
ENDCHAR
STARTCHAR C026133
ENCODING 11355
SWIDTH 1800 0
DWIDTH 18 0
BBX 7 12 6 -1
BITMAP
6C
78
00
C6
CE
DE
DE
F6
F6
E6
E6
C6
ENDCHAR
STARTCHAR C026134
ENCODING 11356
SWIDTH 1800 0
DWIDTH 18 0
BBX 7 10 6 -1
BITMAP
CE
CC
D8
D8
D8
FC
CC
CC
CC
CC
ENDCHAR
STARTCHAR C026135
ENCODING 11357
SWIDTH 1800 0
DWIDTH 18 0
BBX 8 9 5 -1
BITMAP
7F
63
63
63
63
63
63
63
C3
ENDCHAR
STARTCHAR C026136
ENCODING 11358
SWIDTH 1800 0
DWIDTH 18 0
BBX 9 10 5 -1
BITMAP
C380
C780
6780
6780
6D80
3D80
3D80
3980
1980
1980
ENDCHAR
STARTCHAR C026137
ENCODING 11359
SWIDTH 1800 0
DWIDTH 18 0
BBX 7 10 6 -1
BITMAP
C0
C6
C6
C6
C6
FE
C6
C6
C6
C6
ENDCHAR
STARTCHAR C026140
ENCODING 11360
SWIDTH 1800 0
DWIDTH 18 0
BBX 10 13 5 -4
BITMAP
3C00
6600
C300
C300
C300
C300
C300
C300
6600
3C00
0000
0000
0940
ENDCHAR
STARTCHAR C026141
ENCODING 11361
SWIDTH 1800 0
DWIDTH 18 0
BBX 7 10 6 -1
BITMAP
FE
C6
C6
C6
C6
C6
C6
C6
C6
C6
ENDCHAR
STARTCHAR C026142
ENCODING 11362
SWIDTH 1800 0
DWIDTH 18 0
BBX 9 13 5 -4
BITMAP
FE00
E300
C180
C180
C180
C180
C180
E300
FE00
C000
C000
0000
6000
ENDCHAR
STARTCHAR C026143
ENCODING 11363
SWIDTH 1800 0
DWIDTH 18 0
BBX 14 13 5 -4
BITMAP
3C00
6600
C300
C000
C000
C000
C300
C300
6600
3C00
0000
0000
0014
ENDCHAR
STARTCHAR C026144
ENCODING 11364
SWIDTH 1800 0
DWIDTH 18 0
BBX 8 10 5 -1
BITMAP
FF
18
18
18
18
18
18
18
18
18
ENDCHAR
STARTCHAR C026145
ENCODING 11365
SWIDTH 1800 0
DWIDTH 18 0
BBX 7 10 6 -2
BITMAP
C6
CC
6C
6C
78
38
30
30
30
E0
ENDCHAR
STARTCHAR C026146
ENCODING 11366
SWIDTH 1800 0
DWIDTH 18 0
BBX 13 13 3 -2
BITMAP
0600
0600
7FE0
6F30
C618
C618
C618
C618
C618
6F30
7FE0
0600
0600
ENDCHAR
STARTCHAR C026147
ENCODING 11367
SWIDTH 1800 0
DWIDTH 18 0
BBX 8 10 5 -1
BITMAP
63
66
3C
3C
18
1C
3C
66
66
C3
ENDCHAR
STARTCHAR C026150
ENCODING 11368
SWIDTH 1800 0
DWIDTH 18 0
BBX 9 11 5 -2
BITMAP
C600
C600
C600
C600
C600
C600
C600
FF80
0180
0180
0180
ENDCHAR
STARTCHAR C026151
ENCODING 11369
SWIDTH 1800 0
DWIDTH 18 0
BBX 6 10 6 -1
BITMAP
CC
CC
CC
CC
CC
CC
7C
0C
0C
0C
ENDCHAR
STARTCHAR C026152
ENCODING 11370
SWIDTH 1800 0
DWIDTH 18 0
BBX 9 10 5 -1
BITMAP
D980
D980
D980
D980
D980
D980
D980
D980
D980
FF80
ENDCHAR
STARTCHAR C026153
ENCODING 11371
SWIDTH 1800 0
DWIDTH 18 0
BBX 11 11 4 -2
BITMAP
CD80
CD80
CD80
CD80
CD80
CD80
CD80
FFE0
0060
0060
0060
ENDCHAR
STARTCHAR C026154
ENCODING 11372
SWIDTH 1800 0
DWIDTH 18 0
BBX 9 10 5 -1
BITMAP
E000
3000
3000
3000
3F00
3180
3180
3180
3180
3F00
ENDCHAR
STARTCHAR C026155
ENCODING 11373
SWIDTH 1800 0
DWIDTH 18 0
BBX 9 10 5 -1
BITMAP
C180
C180
C180
C180
F980
CD80
CD80
CD80
CD80
F980
ENDCHAR
STARTCHAR C026156
ENCODING 11374
SWIDTH 1800 0
DWIDTH 18 0
BBX 7 10 6 -1
BITMAP
C0
C0
C0
C0
FC
C6
C6
C6
C6
FC
ENDCHAR
STARTCHAR C026157
ENCODING 11375
SWIDTH 1800 0
DWIDTH 18 0
BBX 10 13 5 -4
BITMAP
3C00
6600
C700
0300
0300
1F00
0300
C300
E600
3C00
0000
0000
0940
ENDCHAR
STARTCHAR C026160
ENCODING 11376
SWIDTH 1800 0
DWIDTH 18 0
BBX 15 13 4 -4
BITMAP
0780
0CC0
1860
1860
1860
F860
1860
1860
0CC0
0780
0000
0000
0002
ENDCHAR
STARTCHAR C026161
ENCODING 11377
SWIDTH 1800 0
DWIDTH 18 0
BBX 7 13 6 -4
BITMAP
7E
C6
C6
C6
C6
7E
C6
C6
C6
C6
00
00
60
ENDCHAR
STARTCHAR C026172
ENCODING 11386
SWIDTH 1800 0
DWIDTH 18 0
BBX 0 0 0 0
BITMAP
ENDCHAR
STARTCHAR C026173
ENCODING 11387
SWIDTH 1800 0
DWIDTH 18 0
BBX 0 0 0 0
BITMAP
ENDCHAR
STARTCHAR C026174
ENCODING 11388
SWIDTH 1800 0
DWIDTH 18 0
BBX 0 0 0 0
BITMAP
ENDCHAR
STARTCHAR C026175
ENCODING 11389
SWIDTH 1800 0
DWIDTH 18 0
BBX 1 14 18 -3
BITMAP
80
00
00
80
00
80
80
00
00
00
00
00
80
80
ENDCHAR
STARTCHAR C026176
ENCODING 11390
SWIDTH 1800 0
DWIDTH 18 0
BBX 6 1 4 -4
BITMAP
94
ENDCHAR
STARTCHAR C026177
ENCODING 11391
SWIDTH 1800 0
DWIDTH 18 0
BBX 1 1 14 -4
BITMAP
80
ENDCHAR
STARTCHAR C026577
ENCODING 11647
SWIDTH 1800 0
DWIDTH 18 0
BBX 0 0 0 0
BITMAP
ENDCHAR
STARTCHAR C030041
ENCODING 12321
SWIDTH 1800 0
DWIDTH 18 0
BBX 17 16 1 -4
BITMAP
FF8C00
018C00
018C00
018C00
018C00
018C00
018F80
030C00
030C00
060C00
1C0C00
F80C00
000C00
000C00
000C00
000C00
ENDCHAR
STARTCHAR C030042
ENCODING 12322
SWIDTH 1800 0
DWIDTH 18 0
BBX 17 16 1 -4
BITMAP
7F8C00
01CC00
018C00
018F80
018C00
030C00
0E0C00
FC0C00
000C00
000000
7FFC00
000C00
000C00
000C00
000C00
000C00
ENDCHAR
STARTCHAR C030043
ENCODING 12323
SWIDTH 1800 0
DWIDTH 18 0
BBX 17 15 1 -3
BITMAP
7F8C00
01CC00
018C00
018C00
018F80
038C00
070C00
1C0C00
F00C00
000C00
300C00
300000
300000
300000
3FFE00
ENDCHAR
STARTCHAR C030044
ENCODING 12324
SWIDTH 1800 0
DWIDTH 18 0
BBX 17 15 1 -3
BITMAP
7F8C00
01CC00
018C00
018F80
018C00
070C00
1E0C00
F80C00
000C00
000000
3FFE00
300000
300000
300000
3FFE00
ENDCHAR
STARTCHAR C030045
ENCODING 12325
SWIDTH 1800 0
DWIDTH 18 0
BBX 17 15 1 -3
BITMAP
7F8C00
01CC00
018C00
018F80
038C00
070C00
3C0C00
E00C00
000000
3FFC00
000C00
3FFC00
300000
300000
3FFC00
ENDCHAR
STARTCHAR C030046
ENCODING 12326
SWIDTH 1800 0
DWIDTH 18 0
BBX 17 18 1 -3
BITMAP
000C00
000000
000000
7F8C00
01CC00
018C00
018F80
038C00
070C00
7C0C00
C00C00
000000
7EFC00
030C00
7F0C00
600C00
600C00
7F8C00
ENDCHAR
STARTCHAR C030047
ENCODING 12327
SWIDTH 1800 0
DWIDTH 18 0
BBX 17 18 1 -3
BITMAP
000C00
000000
000000
7F8C00
01CC00
018C00
018F80
038C00
070C00
7C0C00
C00C00
000000
7EFC00
06CC00
7ECC00
60CC00
60CC00
7FFC00
ENDCHAR
STARTCHAR C030050
ENCODING 12328
SWIDTH 1800 0
DWIDTH 18 0
BBX 17 15 1 -3
BITMAP
7F8C00
01CC00
018C00
018F80
018C00
070C00
1E0C00
F80C00
000000
3FFC00
300C00
300C00
300C00
300C00
3FFC00
ENDCHAR
STARTCHAR C030051
ENCODING 12329
SWIDTH 1800 0
DWIDTH 18 0
BBX 17 15 1 -3
BITMAP
7F8C00
01CC00
018C00
018F80
038C00
070C00
7C0C00
C00C00
000000
300C00
300C00
3FFC00
300C00
300C00
3FFC00
ENDCHAR
STARTCHAR C030052
ENCODING 12330
SWIDTH 1800 0
DWIDTH 18 0
BBX 17 16 1 -4
BITMAP
7F8C00
01CC00
018C00
018F80
030C00
060C00
FC0C00
000C00
630000
631800
7F3800
633800
633C00
636E00
7FC600
094000
ENDCHAR
STARTCHAR C030053
ENCODING 12331
SWIDTH 1800 0
DWIDTH 18 0
BBX 17 16 1 -4
BITMAP
7F8C00
01CC00
018C00
018F80
018C00
030C00
0E0C00
FC0C00
000C00
000C00
01C000
01C000
036000
0E3800
781E00
000200
ENDCHAR
STARTCHAR C030054
ENCODING 12332
SWIDTH 1800 0
DWIDTH 18 0
BBX 17 16 1 -4
BITMAP
7F8C00
01CC00
018C00
018F80
018C00
070C00
1E0C00
F80C00
000C00
000000
1C1800
1C3800
3C3C00
366E00
E3C700
600000
ENDCHAR
STARTCHAR C030055
ENCODING 12333
SWIDTH 1800 0
DWIDTH 18 0
BBX 17 16 1 -4
BITMAP
7F8C00
01CC00
018C00
018F80
018C00
070C00
1E0C00
F80C00
000C00
0FF000
383800
600C00
600C00
303800
1FE000
001680
ENDCHAR
STARTCHAR C030056
ENCODING 12334
SWIDTH 1800 0
DWIDTH 18 0
BBX 17 15 1 -3
BITMAP
7F8C00
01CC00
018C00
018F80
018C00
070C00
1E0C00
F00C00
000C00
7FFE00
018000
03C000
06E000
3C3800
700E00
ENDCHAR
STARTCHAR C030057
ENCODING 12335
SWIDTH 1800 0
DWIDTH 18 0
BBX 17 15 1 -3
BITMAP
7F8C00
01CC00
018C00
018F80
038C00
070C00
1C0C00
F00C00
000C00
0FF000
000000
3FFE00
03C000
07E000
7C3E00
ENDCHAR
STARTCHAR C030060
ENCODING 12336
SWIDTH 1800 0
DWIDTH 18 0
BBX 17 15 1 -3
BITMAP
7F8C00
01CC00
018C00
018F80
038C00
070C00
3C0C00
F00C00
000C00
3FFE00
300000
300000
3FFC00
300000
3FFE00
ENDCHAR
STARTCHAR C030061
ENCODING 12337
SWIDTH 1800 0
DWIDTH 18 0
BBX 17 15 1 -3
BITMAP
FF8C00
018C00
018C00
018F80
030C00
070C00
3C0C00
E00C00
000000
3FFC00
0C3000
0C3000
0C3000
0C3000
7FFE00
ENDCHAR
STARTCHAR C030062
ENCODING 12338
SWIDTH 1800 0
DWIDTH 18 0
BBX 17 15 1 -3
BITMAP
7F8C00
01CC00
018C00
018F80
038C00
070C00
1C0C00
F00C00
07FC00
000000
7FFE00
000000
1FFC00
300C00
1FF800
ENDCHAR
STARTCHAR C030063
ENCODING 12339
SWIDTH 1800 0
DWIDTH 18 0
BBX 15 16 2 -4
BITMAP
FE66
0666
0666
0666
0666
0666
067E
0C66
0C66
1C66
3866
E066
0066
0066
0066
0060
ENDCHAR
STARTCHAR C030064
ENCODING 12340
SWIDTH 1800 0
DWIDTH 18 0
BBX 15 16 2 -4
BITMAP
FE66
0666
0666
067E
0E66
0C66
1866
7066
C066
0000
3FFE
0006
0006
0006
0006
0006
ENDCHAR
STARTCHAR C030065
ENCODING 12341
SWIDTH 1800 0
DWIDTH 18 0
BBX 15 16 2 -3
BITMAP
0066
FE66
0666
0666
0666
067E
0C66
0C66
3866
E066
0066
3066
3000
3000
3000
3FFE
ENDCHAR
STARTCHAR C030066
ENCODING 12342
SWIDTH 1800 0
DWIDTH 18 0
BBX 15 15 2 -3
BITMAP
FE66
0666
0666
067E
0666
0C66
1866
F066
0000
3FFE
0006
1FFE
1800
1800
1FFE
ENDCHAR
STARTCHAR C030067
ENCODING 12343
SWIDTH 1800 0
DWIDTH 18 0
BBX 15 15 2 -3
BITMAP
FE66
0666
0666
067E
0666
0E66
1C66
7866
C066
3FFE
3006
3006
3006
3006
3FFE
ENDCHAR
STARTCHAR C030070
ENCODING 12344
SWIDTH 1800 0
DWIDTH 18 0
BBX 15 18 2 -3
BITMAP
0060
0000
0000
FE66
0666
0666
067E
0E66
0C66
3866
E066
0000
3006
3006
3FFE
3006
3006
3FFE
ENDCHAR
STARTCHAR C030071
ENCODING 12345
SWIDTH 1800 0
DWIDTH 18 0
BBX 16 19 2 -4
BITMAP
0006
0000
0000
FE66
0666
0666
067E
0666
0C66
1C66
7866
C066
0000
00C0
01E0
0370
0E38
780F
0940
ENDCHAR
STARTCHAR C030072
ENCODING 12346
SWIDTH 1800 0
DWIDTH 18 0
BBX 16 17 2 -4
BITMAP
006C
FE6C
066C
06CC
067C
06CC
0CCC
1C6C
F06C
C06C
1800
1830
1838
3C78
7E6C
E7C7
0004
ENDCHAR
STARTCHAR C030073
ENCODING 12347
SWIDTH 1800 0
DWIDTH 18 0
BBX 15 16 2 -4
BITMAP
FE66
0666
0666
0666
067E
0666
0C66
7866
E066
0000
0FF8
380E
3006
380E
0FF8
6000
ENDCHAR
STARTCHAR C030074
ENCODING 12348
SWIDTH 1800 0
DWIDTH 18 0
BBX 17 17 1 -4
BITMAP
000C00
FF8C00
018C00
018C00
018C00
018F80
018C00
038C00
030C00
060C00
0E0F80
1C0C00
F00C00
000C00
000C00
000C00
001680
ENDCHAR
STARTCHAR C030075
ENCODING 12349
SWIDTH 1800 0
DWIDTH 18 0
BBX 17 16 1 -3
BITMAP
000C00
7F8C00
01CC00
018F80
018C00
018C00
030C00
0E0F00
FC0C00
000C00
000000
7FFC00
000C00
000C00
000C00
000C00
ENDCHAR
STARTCHAR C030076
ENCODING 12350
SWIDTH 1800 0
DWIDTH 18 0
BBX 16 15 1 -3
BITMAP
7F8C
01CC
018C
018F
018C
038C
070C
3C0F
F00C
000C
300C
3000
3000
3000
3FFE
ENDCHAR
STARTCHAR C030077
ENCODING 12351
SWIDTH 1800 0
DWIDTH 18 0
BBX 17 15 1 -3
BITMAP
7F8C00
01CC00
018F80
018C00
018C00
070F80
0E0C00
F80C00
000000
3FFC00
000C00
000C00
3FFC00
300000
3FFC00
ENDCHAR
STARTCHAR C030100
ENCODING 12352
SWIDTH 1800 0
DWIDTH 18 0
BBX 17 15 1 -3
BITMAP
7F8C00
01CC00
01CC00
018F80
018C00
030C00
060F80
3C0C00
E00C00
000C00
01C000
01C000
036000
0E3800
780F00
ENDCHAR
STARTCHAR C030101
ENCODING 12353
SWIDTH 1800 0
DWIDTH 18 0
BBX 16 16 1 -3
BITMAP
000C
7F8C
01CC
018F
018C
018C
070C
0E0F
F80C
000C
0FF0
3838
600C
600C
3038
1FE0
ENDCHAR
STARTCHAR C030102
ENCODING 12354
SWIDTH 1800 0
DWIDTH 18 0
BBX 15 17 2 -4
BITMAP
0006
FE66
0666
0666
0666
067E
0666
0C66
0C66
1C66
1866
307E
E066
0066
0066
0066
0066
ENDCHAR
STARTCHAR C030103
ENCODING 12355
SWIDTH 1800 0
DWIDTH 18 0
BBX 15 16 2 -3
BITMAP
0006
FEC6
06C6
06C6
06FE
06C6
0CC6
1CC6
38FE
E0C6
00C6
30C6
3000
3000
3000
3FFE
ENDCHAR
STARTCHAR C030104
ENCODING 12356
SWIDTH 1800 0
DWIDTH 18 0
BBX 15 15 2 -3
BITMAP
FE66
0666
067E
0666
0666
0C7E
1866
F066
0000
3FFE
0006
1FFE
3800
3800
1FFE
ENDCHAR
STARTCHAR C030105
ENCODING 12357
SWIDTH 1800 0
DWIDTH 18 0
BBX 15 16 2 -3
BITMAP
0006
FF86
0186
0186
0186
0186
0186
03BE
0306
0606
0E06
1C06
F006
0006
0006
0006
ENDCHAR
STARTCHAR C030106
ENCODING 12358
SWIDTH 1800 0
DWIDTH 18 0
BBX 15 16 2 -4
BITMAP
7F86
01C6
01C6
0186
0186
033E
0E06
FC06
0006
0006
3FFE
0006
0006
0006
0006
0006
ENDCHAR
STARTCHAR C030107
ENCODING 12359
SWIDTH 1800 0
DWIDTH 18 0
BBX 15 18 2 -3
BITMAP
0066
0000
0000
FF86
0186
0186
0186
0186
03BE
0706
3C06
F006
0006
3006
3006
3000
3000
3FFE
ENDCHAR
STARTCHAR C030110
ENCODING 12360
SWIDTH 1800 0
DWIDTH 18 0
BBX 15 16 2 -4
BITMAP
FF86
0186
0186
0186
03BE
0706
0E06
F806
0006
0000
3FFE
3000
3000
3000
3FFE
0940
ENDCHAR
STARTCHAR C030111
ENCODING 12361
SWIDTH 1800 0
DWIDTH 18 0
BBX 15 17 2 -4
BITMAP
0006
FF86
0186
0186
01FE
0306
0606
1C06
F006
0000
3FFE
0006
3FFE
3000
3000
3FFE
0002
ENDCHAR
STARTCHAR C030112
ENCODING 12362
SWIDTH 1800 0
DWIDTH 18 0
BBX 15 17 2 -4
BITMAP
0006
7F86
01C6
0186
01BE
0386
0706
3C06
E006
0000
7E7E
0666
7E66
6066
6066
7F7E
6000
ENDCHAR
STARTCHAR C030113
ENCODING 12363
SWIDTH 1800 0
DWIDTH 18 0
BBX 17 19 2 -4
BITMAP
000600
000000
000000
7F8600
018600
018600
018600
01FE00
030600
1E0600
F80600
000000
3FFE00
300600
300600
300600
300600
3FFE00
001680
ENDCHAR
STARTCHAR C030114
ENCODING 12364
SWIDTH 1800 0
DWIDTH 18 0
BBX 15 16 2 -3
BITMAP
0006
7F86
01C6
01C6
0186
01BE
0306
0606
FC06
0000
3006
3006
3FFE
3006
3006
3FFE
ENDCHAR
STARTCHAR C030115
ENCODING 12365
SWIDTH 1800 0
DWIDTH 18 0
BBX 15 16 2 -3
BITMAP
000C
FF8C
018C
018C
018C
01FC
030C
0E0C
780C
E00C
000C
01C0
03C0
0760
0E38
781E
ENDCHAR
STARTCHAR C030116
ENCODING 12366
SWIDTH 1800 0
DWIDTH 18 0
BBX 15 16 2 -3
BITMAP
000C
FF8C
018C
018C
018C
03FC
070C
1C0C
F80C
0000
1800
1830
3838
3C78
7EEC
C7C6
ENDCHAR
STARTCHAR C030117
ENCODING 12367
SWIDTH 1800 0
DWIDTH 18 0
BBX 15 15 2 -3
BITMAP
7F86
01C6
0186
0186
01FE
0306
0E06
7C06
E006
0FF0
381C
6006
6006
381C
1FF0
ENDCHAR
STARTCHAR C030120
ENCODING 12368
SWIDTH 1800 0
DWIDTH 18 0
BBX 15 15 2 -3
BITMAP
7F86
01C6
0186
0186
01FE
0306
0E06
F806
0000
3FFE
01C0
01C0
0770
1E38
380E
ENDCHAR
STARTCHAR C030121
ENCODING 12369
SWIDTH 1800 0
DWIDTH 18 0
BBX 15 15 2 -3
BITMAP
7F86
01C6
0186
0186
03FE
0706
1C06
F806
0000
3FFE
3000
3000
3FFC
3000
3FFE
ENDCHAR
STARTCHAR C030122
ENCODING 12370
SWIDTH 1800 0
DWIDTH 18 0
BBX 16 15 2 -3
BITMAP
FF86
0186
0186
0186
033E
0706
1C06
F006
0000
3FFC
0C30
0C30
0C30
0C30
7FFF
ENDCHAR
STARTCHAR C030123
ENCODING 12371
SWIDTH 1800 0
DWIDTH 18 0
BBX 15 15 2 -3
BITMAP
FF86
0186
0186
0186
03FE
0706
1C06
F006
0FF0
0000
7FFE
0000
3FF8
300C
1FF8
ENDCHAR
STARTCHAR C030124
ENCODING 12372
SWIDTH 1800 0
DWIDTH 18 0
BBX 15 15 2 -3
BITMAP
FE66
0666
0666
0666
0666
0666
07E6
0C66
0C66
1866
3866
E066
0066
0066
0066
ENDCHAR
STARTCHAR C030125
ENCODING 12373
SWIDTH 1800 0
DWIDTH 18 0
BBX 15 16 2 -3
BITMAP
0060
FE66
0666
0666
0666
07E6
0C66
0C66
3866
E066
0066
3006
3006
3000
3000
3FFE
ENDCHAR
STARTCHAR C030126
ENCODING 12374
SWIDTH 1800 0
DWIDTH 18 0
BBX 15 16 2 -3
BITMAP
0060
FE66
0666
0666
07E6
0666
0C66
1C66
F066
0000
3FFE
0006
1FFE
1800
1800
1FFE
ENDCHAR
STARTCHAR C030127
ENCODING 12375
SWIDTH 1800 0
DWIDTH 18 0
BBX 15 16 2 -4
BITMAP
FE66
0666
0666
0666
07E6
0666
0C66
7866
E066
3FFE
3006
3006
3006
3006
3FFE
0940
ENDCHAR
STARTCHAR C030130
ENCODING 12376
SWIDTH 1800 0
DWIDTH 18 0
BBX 15 16 2 -4
BITMAP
FE66
0666
0666
0666
07E6
0C66
1C66
F066
0006
3006
3006
3FFE
3006
3006
3FFE
0002
ENDCHAR
STARTCHAR C030131
ENCODING 12377
SWIDTH 1800 0
DWIDTH 18 0
BBX 15 17 2 -4
BITMAP
0006
FE66
0666
0666
0666
07E6
0C66
1C66
3866
E066
0000
01C0
01C0
0760
0E38
781E
6000
ENDCHAR
STARTCHAR C030132
ENCODING 12378
SWIDTH 1800 0
DWIDTH 18 0
BBX 16 16 2 -4
BITMAP
FE6C
066C
066C
066C
07EC
0C6C
186C
706C
C06C
180C
1830
1838
3C78
7E6C
E7C7
002D
ENDCHAR
STARTCHAR C030133
ENCODING 12379
SWIDTH 1800 0
DWIDTH 18 0
BBX 15 16 2 -3
BITMAP
0006
FE66
0666
0666
0666
07E6
0E66
1C66
7066
E066
0FF0
1C1C
3006
3006
1C1C
07F0
ENDCHAR
STARTCHAR C030134
ENCODING 12380
SWIDTH 1800 0
DWIDTH 18 0
BBX 14 15 3 -3
BITMAP
FF0C
030C
030C
030C
037C
030C
070C
060C
0E0C
1C7C
380C
F00C
000C
000C
000C
ENDCHAR
STARTCHAR C030135
ENCODING 12381
SWIDTH 1800 0
DWIDTH 18 0
BBX 15 16 2 -4
BITMAP
7F86
01C6
01FE
0186
0186
0306
0E3E
FC06
0006
0000
3FFE
0006
0006
0006
0006
0006
ENDCHAR
STARTCHAR C030136
ENCODING 12382
SWIDTH 1800 0
DWIDTH 18 0
BBX 15 17 2 -4
BITMAP
0006
7F86
01C6
01FE
0186
0186
0706
0E3E
F806
0006
0000
7F7E
0306
0306
0306
0306
0306
ENDCHAR
STARTCHAR C030137
ENCODING 12383
SWIDTH 1800 0
DWIDTH 18 0
BBX 15 15 2 -3
BITMAP
FF86
0186
0186
01BE
0186
0386
0706
3C3E
F006
0006
3006
3006
3000
3000
3FFE
ENDCHAR
STARTCHAR C030140
ENCODING 12384
SWIDTH 1800 0
DWIDTH 18 0
BBX 15 15 2 -3
BITMAP
FF86
0186
01BE
0186
0386
0706
3C3E
F006
0000
0000
3FFE
3000
3000
3000
3FFE
ENDCHAR
STARTCHAR C030141
ENCODING 12385
SWIDTH 1800 0
DWIDTH 18 0
BBX 15 15 2 -3
BITMAP
FF86
0186
01FE
0186
0386
077E
0E06
F806
0000
3FFE
0006
1FFE
3800
3800
1FFE
ENDCHAR
STARTCHAR C030142
ENCODING 12386
SWIDTH 1800 0
DWIDTH 18 0
BBX 15 18 2 -3
BITMAP
0006
0000
0006
7F86
01C6
01BE
0186
0186
0706
0E3E
F806
0000
3FFE
3006
3006
3006
3006
3FFE
ENDCHAR
STARTCHAR C030143
ENCODING 12387
SWIDTH 1800 0
DWIDTH 18 0
BBX 15 15 2 -3
BITMAP
7F86
01C6
01BE
0186
0186
0706
0E3E
F806
0000
3006
3006
3FFE
3006
3006
3FFE
ENDCHAR
STARTCHAR C030144
ENCODING 12388
SWIDTH 1800 0
DWIDTH 18 0
BBX 16 15 2 -3
BITMAP
FF86
0186
01FE
0186
0386
0706
0E7E
7806
C006
0006
01C0
01E0
0360
0E38
780F
ENDCHAR
STARTCHAR C030145
ENCODING 12389
SWIDTH 1800 0
DWIDTH 18 0
BBX 15 15 2 -3
BITMAP
FF8C
018C
01FC
018C
030C
060C
1C7C
F00C
000C
1830
1830
3838
3C78
66EE
C386
ENDCHAR
STARTCHAR C030146
ENCODING 12390
SWIDTH 1800 0
DWIDTH 18 0
BBX 15 15 2 -3
BITMAP
FF86
0186
0186
01BE
0386
0706
0E3E
7806
C006
0FF8
1C1C
3006
3006
180C
0FF8
ENDCHAR
STARTCHAR C030147
ENCODING 12391
SWIDTH 1800 0
DWIDTH 18 0
BBX 15 16 2 -4
BITMAP
FF86
0186
01BE
0186
0386
073E
0E06
F806
0000
3FFC
3000
3FFC
3000
3000
3FFE
0002
ENDCHAR
STARTCHAR C030150
ENCODING 12392
SWIDTH 1800 0
DWIDTH 18 0
BBX 15 15 2 -3
BITMAP
FE66
0666
0666
07E6
0666
0666
0666
0C66
0FE6
1866
3866
E066
0066
0066
0066
ENDCHAR
STARTCHAR C030151
ENCODING 12393
SWIDTH 1800 0
DWIDTH 18 0
BBX 15 16 2 -3
BITMAP
0066
FE66
0666
07E6
0666
0666
0C66
0FE6
3866
E066
0066
3006
3000
3000
3000
3FFE
ENDCHAR
STARTCHAR C030152
ENCODING 12394
SWIDTH 1800 0
DWIDTH 18 0
BBX 15 15 2 -3
BITMAP
FE66
0666
07E6
0666
0666
0FE6
3866
E066
0000
1FFE
0006
1FFE
1800
1800
1FFE
ENDCHAR
STARTCHAR C030153
ENCODING 12395
SWIDTH 1800 0
DWIDTH 18 0
BBX 15 16 2 -3
BITMAP
0006
FE66
0666
07E6
0666
0666
0FE6
3866
E066
0000
3006
3006
3FFE
3006
3006
3FFE
ENDCHAR
STARTCHAR C030154
ENCODING 12396
SWIDTH 1800 0
DWIDTH 18 0
BBX 15 16 2 -3
BITMAP
0060
FE66
0666
07E6
0666
0666
0C66
1FE6
7066
E066
0006
01C6
01C0
0760
0E38
781E
ENDCHAR
STARTCHAR C030155
ENCODING 12397
SWIDTH 1800 0
DWIDTH 18 0
BBX 15 14 2 -2
BITMAP
7FFC
000C
000C
000C
000C
000C
000C
060C
060C
060C
060C
0600
0600
FFFE
ENDCHAR
STARTCHAR C030156
ENCODING 12398
SWIDTH 1800 0
DWIDTH 18 0
BBX 16 16 2 -4
BITMAP
7FFC
000C
000C
030C
030C
030C
030C
FFFF
0000
0000
7FFC
000C
000C
000C
000C
000C
ENDCHAR
STARTCHAR C030157
ENCODING 12399
SWIDTH 1800 0
DWIDTH 18 0
BBX 16 15 2 -3
BITMAP
7FFC
000C
000C
030C
030C
030C
030C
FFFF
0000
0000
3000
3000
3000
3000
3FFE
ENDCHAR
STARTCHAR C030160
ENCODING 12400
SWIDTH 1800 0
DWIDTH 18 0
BBX 16 15 2 -3
BITMAP
7FFC
000C
000C
030C
030C
030C
030C
FFFF
0000
7FFC
6000
6000
6000
6000
7FFC
ENDCHAR
STARTCHAR C030161
ENCODING 12401
SWIDTH 1800 0
DWIDTH 18 0
BBX 15 15 2 -3
BITMAP
7FFC
000C
000C
030C
030C
030C
FFFE
0000
0000
7FFC
000C
7FFC
6000
6000
7FFC
ENDCHAR
STARTCHAR C030162
ENCODING 12402
SWIDTH 1800 0
DWIDTH 18 0
BBX 16 15 2 -3
BITMAP
7FFC
000C
030C
030C
030C
030C
FFFF
0000
0000
7EFC
06CC
7ECC
60CC
60CC
7F7C
ENDCHAR
STARTCHAR C030163
ENCODING 12403
SWIDTH 1800 0
DWIDTH 18 0
BBX 16 15 2 -3
BITMAP
7FFC
000C
030C
030C
030C
030C
FFFF
0000
0000
7E30
0630
0670
7E78
60DC
7F8E
ENDCHAR
STARTCHAR C030164
ENCODING 12404
SWIDTH 1800 0
DWIDTH 18 0
BBX 16 15 2 -3
BITMAP
7FFC
000C
000C
030C
030C
030C
FFFF
0000
7EF8
0600
07FE
7E00
60FC
618C
7EFC
ENDCHAR
STARTCHAR C030165
ENCODING 12405
SWIDTH 1800 0
DWIDTH 18 0
BBX 16 16 2 -4
BITMAP
7FFC
000C
000C
030C
030C
030C
030C
FFFF
0000
7FFC
600C
600C
600C
600C
7FFC
0940
ENDCHAR
STARTCHAR C030166
ENCODING 12406
SWIDTH 1800 0
DWIDTH 18 0
BBX 16 16 2 -4
BITMAP
7FFC
000C
030C
030C
030C
030C
FFFF
0000
0000
600C
600C
7FFC
600C
600C
7FFC
0002
ENDCHAR
STARTCHAR C030167
ENCODING 12407
SWIDTH 1800 0
DWIDTH 18 0
BBX 16 16 2 -4
BITMAP
7FFC
000C
000C
030C
030C
030C
030C
FFFF
0000
0000
0380
0780
0EC0
3C70
F01C
6000
ENDCHAR
STARTCHAR C030170
ENCODING 12408
SWIDTH 1800 0
DWIDTH 18 0
BBX 17 16 2 -4
BITMAP
7FFC00
000C00
000C00
030C00
030C00
030C00
030C00
FFFF00
000000
1FE000
383800
600C00
600C00
383800
0FE000
001680
ENDCHAR
STARTCHAR C030171
ENCODING 12409
SWIDTH 1800 0
DWIDTH 18 0
BBX 16 15 2 -3
BITMAP
7FFC
000C
000C
030C
030C
030C
030C
FFFF
0000
0000
7FFC
0380
07C0
0EE0
787C
ENDCHAR
STARTCHAR C030172
ENCODING 12410
SWIDTH 1800 0
DWIDTH 18 0
BBX 17 15 1 -3
BITMAP
FFCC00
00CC00
00CC00
00CC00
00CC00
0CCC00
0CCF80
0CCC00
0CCC00
0D8C00
0C0C00
FFFC00
000C00
000C00
000C00
ENDCHAR
STARTCHAR C030173
ENCODING 12411
SWIDTH 1800 0
DWIDTH 18 0
BBX 16 17 1 -4
BITMAP
000C
FFCC
00CC
00CC
0CCC
0CCF
0CCC
0CFC
FFFC
000C
0000
7FFC
000C
000C
000C
000C
000C
ENDCHAR
STARTCHAR C030174
ENCODING 12412
SWIDTH 1800 0
DWIDTH 18 0
BBX 16 15 1 -3
BITMAP
FFCC
00CC
00CC
00CC
0CCC
0CCF
0CCC
0CFC
FFFC
000C
300C
300C
3000
3000
3FFE
ENDCHAR
STARTCHAR C030175
ENCODING 12413
SWIDTH 1800 0
DWIDTH 18 0
BBX 16 16 1 -3
BITMAP
000C
7FCC
00CC
00CC
1CCC
1CCF
1CCC
FFFC
000C
0000
7FFC
000C
3FFC
7000
7000
3FFC
ENDCHAR
STARTCHAR C030176
ENCODING 12414
SWIDTH 1800 0
DWIDTH 18 0
BBX 16 16 1 -3
BITMAP
000C
FFCC
00CC
0CCC
0CCF
0CCC
0CDC
FFFC
000C
0000
7FFC
03CC
7FCC
60CC
60CC
7FFC
ENDCHAR
STARTCHAR C030177
ENCODING 12415
SWIDTH 1800 0
DWIDTH 18 0
BBX 0 0 0 0
BITMAP
ENDCHAR
STARTCHAR C030440
ENCODING 12576
SWIDTH 1800 0
DWIDTH 18 0
BBX 7 11 12 4
BITMAP
C0
00
00
02
00
00
00
00
00
00
02
ENDCHAR
STARTCHAR C030441
ENCODING 12577
SWIDTH 1800 0
DWIDTH 18 0
BBX 16 16 1 -3
BITMAP
000C
FFCC
00CC
00CC
0CCF
0CCC
0CCC
0CFC
FFFC
000C
3FFC
300C
300C
300C
300C
3FFC
ENDCHAR
STARTCHAR C030442
ENCODING 12578
SWIDTH 1800 0
DWIDTH 18 0
BBX 16 16 1 -3
BITMAP
000C
FFCC
00CC
00CC
0CCF
0CCC
0CCC
FFFC
000C
0000
300C
300C
3FFC
300C
300C
3FFC
ENDCHAR
STARTCHAR C030443
ENCODING 12579
SWIDTH 1800 0
DWIDTH 18 0
BBX 16 16 1 -3
BITMAP
000C
FFCC
00CC
00CC
0CCF
0CCC
0CCC
0CCC
FFFC
000C
000C
01C0
01E0
0360
0E38
780F
ENDCHAR
STARTCHAR C030444
ENCODING 12580
SWIDTH 1800 0
DWIDTH 18 0
BBX 16 17 1 -4
BITMAP
000C
FFCC
00CC
00CC
0CCF
0CCC
0CCC
0CFC
FFFC
000C
0FF0
1C1C
3006
3006
1C1C
07F0
0940
ENDCHAR
STARTCHAR C030445
ENCODING 12581
SWIDTH 1800 0
DWIDTH 18 0
BBX 15 16 2 -4
BITMAP
7F66
0366
0366
0366
0366
1B66
1B7E
1B66
1B66
1866
1866
FFE6
0066
0066
0066
0002
ENDCHAR
STARTCHAR C030446
ENCODING 12582
SWIDTH 1800 0
DWIDTH 18 0
BBX 15 17 2 -4
BITMAP
006C
FE6C
066C
066C
066C
367C
366C
366C
306C
FFEC
006C
306C
3060
3000
3000
3FFE
6000
ENDCHAR
STARTCHAR C030447
ENCODING 12583
SWIDTH 1800 0
DWIDTH 18 0
BBX 17 16 2 -4
BITMAP
7F6E00
036E00
036E00
3B6E00
3B7E00
3E6E00
3BEE00
FE6E00
000000
3FFE00
000600
3FFE00
300000
300000
1FFE00
001680
ENDCHAR
STARTCHAR C030450
ENCODING 12584
SWIDTH 1800 0
DWIDTH 18 0
BBX 14 15 3 -3
BITMAP
FECC
06CC
06CC
36CC
36FC
36CC
37CC
FCCC
000C
600C
600C
7FFC
600C
600C
3FFC
ENDCHAR
STARTCHAR C030451
ENCODING 12585
SWIDTH 1800 0
DWIDTH 18 0
BBX 15 15 2 -3
BITMAP
FE6C
076C
066C
366C
367C
366C
37EC
FC6C
000C
3830
3830
3838
7C78
EECE
0386
ENDCHAR
STARTCHAR C030452
ENCODING 12586
SWIDTH 1800 0
DWIDTH 18 0
BBX 14 15 3 -3
BITMAP
FECC
06CC
06CC
36CC
36FC
36CC
30CC
FFCC
00CC
0000
1FE0
7038
600C
701C
1FF0
ENDCHAR
STARTCHAR C030453
ENCODING 12587
SWIDTH 1800 0
DWIDTH 18 0
BBX 14 15 3 -3
BITMAP
FF8C
018C
018C
018C
018C
198C
198C
198C
198C
180C
180C
FFFC
000C
000C
000C
ENDCHAR
STARTCHAR C030454
ENCODING 12588
SWIDTH 1800 0
DWIDTH 18 0
BBX 15 16 2 -4
BITMAP
7FC6
00C6
00C6
0CC6
0CC6
0CC6
0C0E
FFFE
0006
0006
3FFE
0006
0006
0006
0006
0006
ENDCHAR
STARTCHAR C030455
ENCODING 12589
SWIDTH 1800 0
DWIDTH 18 0
BBX 15 16 2 -3
BITMAP
0006
7FC6
00C6
00C6
00C6
0CC6
0CC6
0C0E
0DFE
FF06
0006
3006
3000
3000
3000
3FFE
ENDCHAR
STARTCHAR C030456
ENCODING 12590
SWIDTH 1800 0
DWIDTH 18 0
BBX 15 15 2 -3
BITMAP
7FCE
00CE
00CE
00CE
0CCE
0C0E
0DFE
FF0E
0000
3FFE
0006
3FFE
3000
3000
3FFE
ENDCHAR
STARTCHAR C030457
ENCODING 12591
SWIDTH 1800 0
DWIDTH 18 0
BBX 15 16 2 -3
BITMAP
0006
7FC6
00C6
00C6
00C6
0CC6
0C0E
0DFE
FF06
0006
3FFE
3006
3006
3006
3006
3FFE
ENDCHAR
STARTCHAR C030460
ENCODING 12592
SWIDTH 1800 0
DWIDTH 18 0
BBX 15 16 2 -3
BITMAP
0006
7FC6
00C6
00C6
0CC6
0CC6
0C0E
0DFE
FF06
0000
3006
3006
3FFE
3006
3006
3FFE
ENDCHAR
STARTCHAR C030461
ENCODING 12593
SWIDTH 1800 0
DWIDTH 18 0
BBX 15 18 2 -3
BITMAP
0006
0000
0000
7FCC
00CC
00CC
0CCC
0CCC
0CCC
0C1C
FFFC
000C
000C
0380
03C0
06E0
1C70
F01E
ENDCHAR
STARTCHAR C030462
ENCODING 12594
SWIDTH 1800 0
DWIDTH 18 0
BBX 15 15 2 -3
BITMAP
3FC6
00C6
00C6
0CC6
0CC6
0CC6
0C0E
FFFE
0006
0FF6
1C1C
3006
3006
1C1C
07F0
ENDCHAR
STARTCHAR C030463
ENCODING 12595
SWIDTH 1800 0
DWIDTH 18 0
BBX 15 16 2 -4
BITMAP
7FFC
000C
000C
000C
000C
000C
18CC
18CC
18D8
18D8
18D8
18D8
18C0
FFFE
0000
0940
ENDCHAR
STARTCHAR C030464
ENCODING 12596
SWIDTH 1800 0
DWIDTH 18 0
BBX 15 16 2 -4
BITMAP
7FFC
000C
000C
18CC
18CC
18CC
18C0
FFFE
0000
0000
3000
3000
3000
3000
3FFE
0002
ENDCHAR
STARTCHAR C030465
ENCODING 12597
SWIDTH 1800 0
DWIDTH 18 0
BBX 15 16 2 -4
BITMAP
7FFC
000C
000C
0CCC
0CCC
0CCC
FFFE
0000
0000
7FFC
000C
3FFC
7000
7000
3FFC
6000
ENDCHAR
STARTCHAR C030466
ENCODING 12598
SWIDTH 1800 0
DWIDTH 18 0
BBX 17 16 2 -4
BITMAP
7FFC00
000C00
000C00
18CC00
18CC00
18CC00
FFFE00
000000
000000
600C00
600C00
7FFC00
600C00
600C00
7FFC00
001680
ENDCHAR
STARTCHAR C030467
ENCODING 12599
SWIDTH 1800 0
DWIDTH 18 0
BBX 15 15 2 -3
BITMAP
7FFC
000C
000C
18CC
18CC
18CC
18C0
FFFE
0000
0000
0180
03C0
06E0
1C70
F01E
ENDCHAR
STARTCHAR C030470
ENCODING 12600
SWIDTH 1800 0
DWIDTH 18 0
BBX 15 15 2 -3
BITMAP
7FFC
000C
000C
000C
000C
000C
000C
000C
FFFE
0180
0180
0180
0180
0180
0180
ENDCHAR
STARTCHAR C030471
ENCODING 12601
SWIDTH 1800 0
DWIDTH 18 0
BBX 15 16 2 -4
BITMAP
7FFC
000C
000C
000C
000C
000C
FFFE
0180
0180
0180
3FFC
000C
000C
000C
000C
000C
ENDCHAR
STARTCHAR C030472
ENCODING 12602
SWIDTH 1800 0
DWIDTH 18 0
BBX 15 15 2 -3
BITMAP
7FFC
000C
000C
000C
000C
000C
000C
FFFE
0180
0180
3180
3180
3000
3000
3FFE
ENDCHAR
STARTCHAR C030473
ENCODING 12603
SWIDTH 1800 0
DWIDTH 18 0
BBX 16 15 2 -3
BITMAP
7FFC
000C
000C
000C
000C
000C
FFFF
0180
0180
7FFE
6000
6000
6000
6000
7FFC
ENDCHAR
STARTCHAR C030474
ENCODING 12604
SWIDTH 1800 0
DWIDTH 18 0
BBX 15 15 2 -3
BITMAP
7FF8
000C
000C
000C
000C
000C
FFFE
0380
0380
7FFC
000C
7FFC
6000
6000
7FFC
ENDCHAR
STARTCHAR C030475
ENCODING 12605
SWIDTH 1800 0
DWIDTH 18 0
BBX 15 15 2 -3
BITMAP
7FFC
000C
000C
000C
000C
FFFE
0180
0180
0000
7EFC
060C
7E0C
600C
600C
7F0C
ENDCHAR
STARTCHAR C030476
ENCODING 12606
SWIDTH 1800 0
DWIDTH 18 0
BBX 16 18 2 -3
BITMAP
000C
0000
0000
7FFC
000C
000C
000C
000C
FFFF
0300
0300
0000
FEFC
06CC
FECC
C0CC
C0CC
FFFC
ENDCHAR
STARTCHAR C030477
ENCODING 12607
SWIDTH 1800 0
DWIDTH 18 0
BBX 16 15 2 -3
BITMAP
7FFC
000C
000C
000C
000C
FFFF
0300
0300
0378
7E00
07FE
FEFC
C1CC
C1CC
FEFC
ENDCHAR
STARTCHAR C030500
ENCODING 12608
SWIDTH 1800 0
DWIDTH 18 0
BBX 15 15 2 -3
BITMAP
7FFC
000C
000C
000C
000C
000C
FFFE
0300
0300
3FFC
300C
300C
300C
300C
3FFC
ENDCHAR
STARTCHAR C030501
ENCODING 12609
SWIDTH 1800 0
DWIDTH 18 0
BBX 15 15 2 -3
BITMAP
7FFC
000C
000C
000C
000C
000C
FFFE
0300
0300
630C
600C
7FFC
600C
600C
7FFC
ENDCHAR
STARTCHAR C030502
ENCODING 12610
SWIDTH 1800 0
DWIDTH 18 0
BBX 16 16 2 -4
BITMAP
7FFC
000C
000C
000C
000C
000C
FFFF
0300
0300
0000
0000
0380
06C0
1C70
F01C
0940
ENDCHAR
STARTCHAR C030503
ENCODING 12611
SWIDTH 1800 0
DWIDTH 18 0
BBX 15 16 2 -4
BITMAP
7FFC
000C
000C
000C
000C
000C
FFFE
0300
0300
1FE0
3838
600C
600C
3838
0FE0
0002
ENDCHAR
STARTCHAR C030504
ENCODING 12612
SWIDTH 1800 0
DWIDTH 18 0
BBX 15 16 2 -4
BITMAP
7FFC
000C
000C
000C
000C
000C
FFFE
0300
0300
0000
7FFC
0380
07C0
0C60
783C
6000
ENDCHAR
STARTCHAR C030505
ENCODING 12613
SWIDTH 1800 0
DWIDTH 18 0
BBX 16 16 3 -4
BITMAP
FF98
0198
0198
0198
0198
0198
0198
FFF8
0C18
0C18
0DF8
0C18
0C18
0C18
0C18
002D
ENDCHAR
STARTCHAR C030506
ENCODING 12614
SWIDTH 1800 0
DWIDTH 18 0
BBX 14 15 3 -3
BITMAP
FF8C
018C
018C
018C
018C
FFFC
0C0C
0CFC
0C0C
0000
7FFC
000C
000C
000C
000C
ENDCHAR
STARTCHAR C030507
ENCODING 12615
SWIDTH 1800 0
DWIDTH 18 0
BBX 15 15 2 -3
BITMAP
7FCC
00CC
00CC
00CC
00CC
00CC
FFFC
0C0C
0CFC
0C0C
3C0C
3000
3000
3000
3FFE
ENDCHAR
STARTCHAR C030510
ENCODING 12616
SWIDTH 1800 0
DWIDTH 18 0
BBX 14 16 3 -3
BITMAP
000C
FF8C
018C
018C
018C
FFFC
0C0C
0CFC
0C0C
0000
3FFC
000C
3FFC
3000
3000
3FFC
ENDCHAR
STARTCHAR C030511
ENCODING 12617
SWIDTH 1800 0
DWIDTH 18 0
BBX 15 14 2 -2
BITMAP
FF8C
018C
018C
018C
018C
FFFC
0C0C
0CFC
0C0C
183C
3830
3C78
7C7C
E7CE
ENDCHAR
STARTCHAR C030512
ENCODING 12618
SWIDTH 1800 0
DWIDTH 18 0
BBX 14 15 3 -3
BITMAP
FF8C
018C
018C
018C
018C
FFFC
0C0C
0CFC
0C0C
1FFC
3838
600C
600C
3838
1FE0
ENDCHAR
STARTCHAR C030513
ENCODING 12619
SWIDTH 1800 0
DWIDTH 18 0
BBX 15 17 2 -4
BITMAP
0006
3F66
0366
0366
0366
0366
0366
0366
FFE6
1866
1866
1BE6
1866
1866
1866
1866
0060
ENDCHAR
STARTCHAR C030514
ENCODING 12620
SWIDTH 1800 0
DWIDTH 18 0
BBX 15 15 2 -3
BITMAP
7F36
0336
0336
0336
0336
FFF6
1836
19F6
1836
0036
01C0
03C0
0760
1E38
780E
ENDCHAR
STARTCHAR C030515
ENCODING 12621
SWIDTH 1800 0
DWIDTH 18 0
BBX 15 15 2 -3
BITMAP
7FC6
00C6
00C6
00C6
00C6
00C6
00C6
00FE
FFF6
0606
0606
0606
0606
0606
0606
ENDCHAR
STARTCHAR C030516
ENCODING 12622
SWIDTH 1800 0
DWIDTH 18 0
BBX 15 16 2 -4
BITMAP
7FC6
00C6
00C6
00C6
00C6
00C6
FFFE
0606
0606
0600
3FFE
0006
0006
0006
0006
0006
ENDCHAR
STARTCHAR C030517
ENCODING 12623
SWIDTH 1800 0
DWIDTH 18 0
BBX 15 15 2 -3
BITMAP
7FC6
00C6
00C6
00C6
00C6
00C6
00CE
FFFE
0606
0606
3606
3006
3000
3000
3FFE
ENDCHAR
STARTCHAR C030520
ENCODING 12624
SWIDTH 1800 0
DWIDTH 18 0
BBX 15 18 2 -3
BITMAP
0060
0000
0000
7FCE
00CE
00CE
00CE
00CE
00CE
FFFE
060E
0606
3FFE
0006
1FFE
3800
3800
1FFE
ENDCHAR
STARTCHAR C030521
ENCODING 12625
SWIDTH 1800 0
DWIDTH 18 0
BBX 15 16 2 -4
BITMAP
7FC6
00C6
00C6
00C6
00C6
00CE
FFFE
0606
0606
3FFE
3006
3006
3006
3006
3FFE
0940
ENDCHAR
STARTCHAR C030522
ENCODING 12626
SWIDTH 1800 0
DWIDTH 18 0
BBX 15 16 2 -4
BITMAP
7FC6
00C6
00C6
00C6
00C6
00CE
FFFE
0606
0606
3606
3006
3FFE
3006
3006
3FFE
0002
ENDCHAR
STARTCHAR C030523
ENCODING 12627
SWIDTH 1800 0
DWIDTH 18 0
BBX 15 19 2 -4
BITMAP
0006
0000
0000
7FCC
00CC
00CC
00CC
00CC
00CC
FFFC
060C
060C
060C
01C0
03C0
0760
1E38
780E
6000
ENDCHAR
STARTCHAR C030524
ENCODING 12628
SWIDTH 1800 0
DWIDTH 18 0
BBX 17 16 2 -4
BITMAP
7FFC00
000C00
000C00
000C00
000C00
000C00
000C00
000C00
FFFE00
183000
183000
183000
183000
183000
183000
001680
ENDCHAR
STARTCHAR C030525
ENCODING 12629
SWIDTH 1800 0
DWIDTH 18 0
BBX 15 15 2 -3
BITMAP
7FFC
000C
000C
000C
000C
000C
FFFE
0C60
0C60
0C60
6C60
6000
6000
6000
7FFE
ENDCHAR
STARTCHAR C030526
ENCODING 12630
SWIDTH 1800 0
DWIDTH 18 0
BBX 15 15 2 -3
BITMAP
7FF8
000C
000C
000C
000C
000C
FFFE
1830
1830
7FFC
000C
7FFC
6000
6000
7FFC
ENDCHAR
STARTCHAR C030527
ENCODING 12631
SWIDTH 1800 0
DWIDTH 18 0
BBX 15 14 2 -2
BITMAP
7FF8
0018
0018
0018
0018
0018
0018
0018
0018
0018
0018
0018
0018
FFFE
ENDCHAR
STARTCHAR C030530
ENCODING 12632
SWIDTH 1800 0
DWIDTH 18 0
BBX 15 16 2 -4
BITMAP
7FFC
000C
000C
000C
000C
000C
000C
FFFE
0000
0000
7FFC
000C
000C
000C
000C
000C
ENDCHAR
STARTCHAR C030531
ENCODING 12633
SWIDTH 1800 0
DWIDTH 18 0
BBX 15 15 2 -3
BITMAP
3FFC
000C
000C
000C
000C
000C
000C
FFFE
0000
0000
3000
3000
3000
3000
3FFE
ENDCHAR
STARTCHAR C030532
ENCODING 12634
SWIDTH 1800 0
DWIDTH 18 0
BBX 15 15 2 -3
BITMAP
7FFC
000C
000C
000C
000C
000C
FFFE
0000
0000
7FFC
6000
6000
6000
6000
7FFC
ENDCHAR
STARTCHAR C030533
ENCODING 12635
SWIDTH 1800 0
DWIDTH 18 0
BBX 15 15 2 -3
BITMAP
7FFC
000C
000C
000C
000C
000C
FFFE
0000
0000
7FFC
000C
7FFC
6000
6000
7FFC
ENDCHAR
STARTCHAR C030534
ENCODING 12636
SWIDTH 1800 0
DWIDTH 18 0
BBX 15 15 2 -3
BITMAP
7FFC
000C
000C
000C
000C
000C
FFFE
0000
0000
FEFC
060C
FE0C
C00C
C00C
FF0C
ENDCHAR
STARTCHAR C030535
ENCODING 12637
SWIDTH 1800 0
DWIDTH 18 0
BBX 15 18 2 -3
BITMAP
000C
0000
0000
7FFC
000C
000C
000C
000C
000C
FFFE
0000
0000
3FFC
300C
300C
300C
300C
3FFC
ENDCHAR
STARTCHAR C030536
ENCODING 12638
SWIDTH 1800 0
DWIDTH 18 0
BBX 15 15 2 -3
BITMAP
7FFC
000C
000C
000C
000C
000C
FFFE
0000
0000
600C
600C
7FFC
600C
600C
7FFC
ENDCHAR
STARTCHAR C030537
ENCODING 12639
SWIDTH 1800 0
DWIDTH 18 0
BBX 15 15 2 -3
BITMAP
7FFC
000C
000C
000C
000C
000C
000C
FFFE
0000
0000
0180
03C0
0660
1C78
701E
ENDCHAR
STARTCHAR C030540
ENCODING 12640
SWIDTH 1800 0
DWIDTH 18 0
BBX 15 16 2 -4
BITMAP
7FFC
000C
000C
000C
000C
000C
FFFE
0000
0000
1FE0
3838
600C
600C
3838
0FE0
0940
ENDCHAR
STARTCHAR C030541
ENCODING 12641
SWIDTH 1800 0
DWIDTH 18 0
BBX 15 16 2 -4
BITMAP
7FC6
00C6
00C6
00C6
00C6
00C6
00C6
00C6
00C6
00C6
00C6
FFFE
0006
0006
0006
0002
ENDCHAR
STARTCHAR C030542
ENCODING 12642
SWIDTH 1800 0
DWIDTH 18 0
BBX 15 17 2 -4
BITMAP
0006
FF86
0186
0186
0186
0186
0186
0186
0306
0706
0E06
1C06
F006
0006
0006
0006
6000
ENDCHAR
STARTCHAR C030543
ENCODING 12643
SWIDTH 1800 0
DWIDTH 18 0
BBX 17 16 2 -4
BITMAP
FF8600
018600
018600
018600
018600
038600
070600
3C0600
F00600
000000
3FFE00
000600
000600
000600
000600
001680
ENDCHAR
STARTCHAR C030544
ENCODING 12644
SWIDTH 1800 0
DWIDTH 18 0
BBX 15 15 2 -3
BITMAP
FF86
0186
0186
0186
0186
0186
0706
0E06
F806
0006
3006
3006
3000
3000
3FFE
ENDCHAR
STARTCHAR C030545
ENCODING 12645
SWIDTH 1800 0
DWIDTH 18 0
BBX 15 15 2 -3
BITMAP
FF86
0186
0186
0186
0186
0306
0E06
F806
0000
0000
3FFE
3000
3000
3000
3FFE
ENDCHAR
STARTCHAR C030546
ENCODING 12646
SWIDTH 1800 0
DWIDTH 18 0
BBX 15 15 2 -3
BITMAP
FF86
0186
0186
0186
0186
0706
0E06
F806
0000
1FFE
0006
1FFE
1800
1800
1FFE
ENDCHAR
STARTCHAR C030547
ENCODING 12647
SWIDTH 1800 0
DWIDTH 18 0
BBX 15 15 2 -3
BITMAP
7F86
01C6
0186
0186
0186
0306
0E06
F806
0000
7E7E
0666
7E66
6066
6066
7F7E
ENDCHAR
STARTCHAR C030550
ENCODING 12648
SWIDTH 1800 0
DWIDTH 18 0
BBX 15 15 2 -3
BITMAP
7F86
0186
0186
0186
0186
0306
0E06
F806
0000
3FFE
3006
3006
3006
3006
3FFE
ENDCHAR
STARTCHAR C030551
ENCODING 12649
SWIDTH 1800 0
DWIDTH 18 0
BBX 15 16 2 -3
BITMAP
0006
7F86
01C6
0186
0186
0186
0706
1E06
F000
0000
3006
3006
3FFE
3006
3006
3FFE
ENDCHAR
STARTCHAR C030552
ENCODING 12650
SWIDTH 1800 0
DWIDTH 18 0
BBX 15 15 2 -3
BITMAP
FF8C
018C
018C
018C
018C
030C
060C
3C0C
E00C
000C
01C0
03C0
0760
1E38
780E
ENDCHAR
STARTCHAR C030553
ENCODING 12651
SWIDTH 1800 0
DWIDTH 18 0
BBX 15 15 2 -3
BITMAP
7F86
01C6
0186
0186
0186
0306
0E06
F806
0006
0FF0
381C
6006
6006
381C
0FF0
ENDCHAR
STARTCHAR C030554
ENCODING 12652
SWIDTH 1800 0
DWIDTH 18 0
BBX 15 15 2 -3
BITMAP
7F86
01C6
0186
0186
0186
0306
0E06
F806
0000
7FFE
0180
03C0
07E0
3C3C
700E
ENDCHAR
STARTCHAR C030555
ENCODING 12653
SWIDTH 1800 0
DWIDTH 18 0
BBX 16 15 2 -3
BITMAP
FF8C
018C
018C
018C
030C
070C
1C0C
F00C
0000
3FFE
0C18
0C18
0C18
0C18
7FFF
ENDCHAR
STARTCHAR C030556
ENCODING 12654
SWIDTH 1800 0
DWIDTH 18 0
BBX 17 15 1 -3
BITMAP
7FEC00
0C6C00
0C6C00
0C6C00
0C6C00
186C00
186F80
186C00
386C00
30EC00
70CC00
E1CC00
018C00
000C00
000C00
ENDCHAR
STARTCHAR C030557
ENCODING 12655
SWIDTH 1800 0
DWIDTH 18 0
BBX 16 16 1 -4
BITMAP
FFEC
0C6C
0C6C
0C6C
0C6F
186C
38CC
E18C
030C
0000
7FFC
000C
000C
000C
000C
0940
ENDCHAR
STARTCHAR C030560
ENCODING 12656
SWIDTH 1800 0
DWIDTH 18 0
BBX 16 16 1 -4
BITMAP
FFEC
0C6C
0C6C
0C6F
0C6C
18CC
31CC
E38C
0000
3FFE
0306
0306
0306
0306
0306
0002
ENDCHAR
STARTCHAR C030561
ENCODING 12657
SWIDTH 1800 0
DWIDTH 18 0
BBX 16 16 1 -4
BITMAP
FFEC
0C6C
0C6C
0C6C
0C6C
1C6F
18CC
71CC
E38C
000C
300C
3000
3000
3000
3FFC
6000
ENDCHAR
STARTCHAR C030562
ENCODING 12658
SWIDTH 1800 0
DWIDTH 18 0
BBX 17 16 1 -4
BITMAP
7FEE00
0C6E00
0C6E00
0C6F80
0C6E00
18CE00
71CE00
E38E00
000000
3FFC00
000E00
3FFE00
300000
300000
3FFE00
001680
ENDCHAR
STARTCHAR C030563
ENCODING 12659
SWIDTH 1800 0
DWIDTH 18 0
BBX 17 15 1 -3
BITMAP
FFE600
0C6600
0C6600
0C6600
0C6780
18C600
71C600
E38600
000000
7EFE00
06C600
7EC600
60C600
60C600
7F7E00
ENDCHAR
STARTCHAR C030564
ENCODING 12660
SWIDTH 1800 0
DWIDTH 18 0
BBX 16 15 1 -3
BITMAP
FFEC
0C6C
0C6C
0C6C
1C6F
18CC
31CC
E38C
0000
3FFE
3006
3006
3006
3006
3FFE
ENDCHAR
STARTCHAR C030565
ENCODING 12661
SWIDTH 1800 0
DWIDTH 18 0
BBX 17 15 1 -3
BITMAP
FFE600
0C6600
0C6600
0C6600
1C6780
18C600
31C600
E38600
000000
300600
300600
3FFE00
300600
300600
3FFE00
ENDCHAR
STARTCHAR C030566
ENCODING 12662
SWIDTH 1800 0
DWIDTH 18 0
BBX 17 15 1 -3
BITMAP
FFE600
0C6600
0C6600
0C6600
0C6600
18C780
38C600
718600
C30600
000600
01C600
01E000
037000
0E3800
780F00
ENDCHAR
STARTCHAR C030567
ENCODING 12663
SWIDTH 1800 0
DWIDTH 18 0
BBX 16 15 1 -3
BITMAP
FFEC
0C6C
0C6C
0C6C
0C6F
186C
38CC
E18C
030C
0C18
0C18
1C1C
1E3C
377E
63E3
ENDCHAR
STARTCHAR C030570
ENCODING 12664
SWIDTH 1800 0
DWIDTH 18 0
BBX 17 15 1 -3
BITMAP
FFE600
0C6600
0C6600
0C6600
0C6780
18E600
38C600
E38600
000600
0FF000
1C1C00
300600
300600
1C1C00
07F000
ENDCHAR
STARTCHAR C030571
ENCODING 12665
SWIDTH 1800 0
DWIDTH 18 0
BBX 16 15 1 -3
BITMAP
FFEC
0C6C
0C6C
0C6C
1C6F
18CC
31CC
E38C
000C
3FFE
3000
3FFC
3000
3000
3FFE
ENDCHAR
STARTCHAR C030572
ENCODING 12666
SWIDTH 1800 0
DWIDTH 18 0
BBX 15 15 2 -3
BITMAP
FFB6
19B6
19B6
19B6
19B6
19B6
19B6
19BE
19B6
39B6
3336
7336
CE36
0036
0036
ENDCHAR
STARTCHAR C030573
ENCODING 12667
SWIDTH 1800 0
DWIDTH 18 0
BBX 15 16 2 -4
BITMAP
FFB6
19B6
19B6
19B6
19BE
31B6
3336
E736
0C36
0000
3FFE
0006
0006
0006
0006
0006
ENDCHAR
STARTCHAR C030574
ENCODING 12668
SWIDTH 1800 0
DWIDTH 18 0
BBX 15 16 2 -3
BITMAP
0060
FFEC
19EC
19EC
19EC
19FC
19EC
336C
676C
CE6C
006C
3000
3000
3000
3000
3FFE
ENDCHAR
STARTCHAR C030575
ENCODING 12669
SWIDTH 1800 0
DWIDTH 18 0
BBX 15 16 2 -3
BITMAP
0030
FFB6
19B6
19B6
19BE
19B6
3336
6736
CE00
0000
3FFE
0006
3FFE
3000
3000
3FFE
ENDCHAR
STARTCHAR C030576
ENCODING 12670
SWIDTH 1800 0
DWIDTH 18 0
BBX 15 16 2 -4
BITMAP
FFB6
19B6
19B6
19B6
19BE
3336
3336
E636
0036
3FFE
3006
3006
3006
3006
3FFE
0940
ENDCHAR
STARTCHAR C030577
ENCODING 12671
SWIDTH 1800 0
DWIDTH 18 0
BBX 1 1 14 -4
BITMAP
80
ENDCHAR
STARTCHAR C031041
ENCODING 12833
SWIDTH 1800 0
DWIDTH 18 0
BBX 17 16 2 -4
BITMAP
FFB600
19B600
19B600
19B600
19BE00
33B600
733600
E63600
003600
300600
300600
3FFE00
300600
300600
3FFE00
001680
ENDCHAR
STARTCHAR C031042
ENCODING 12834
SWIDTH 1800 0
DWIDTH 18 0
BBX 15 15 2 -3
BITMAP
FFEC
19EC
19EC
19EC
19FC
19EC
336C
676C
CE6C
000C
0180
03C0
07E0
0E70
781E
ENDCHAR
STARTCHAR C031043
ENCODING 12835
SWIDTH 1800 0
DWIDTH 18 0
BBX 15 15 2 -3
BITMAP
FFEC
19EC
19EC
19EC
19FC
33EC
736C
E66C
006C
0030
1830
3838
3C78
6EFC
C7CE
ENDCHAR
STARTCHAR C031044
ENCODING 12836
SWIDTH 1800 0
DWIDTH 18 0
BBX 15 15 2 -3
BITMAP
FFB6
19B6
19B6
19B6
19BE
31B6
3336
E636
0036
0000
0FF0
381C
300C
381C
0FF0
ENDCHAR
STARTCHAR C031045
ENCODING 12837
SWIDTH 1800 0
DWIDTH 18 0
BBX 17 15 1 -3
BITMAP
7FE600
0C6600
0C6600
0C6600
0C6780
186600
186600
186600
186600
306600
70C780
E0C600
C18600
000600
000600
ENDCHAR
STARTCHAR C031046
ENCODING 12838
SWIDTH 1800 0
DWIDTH 18 0
BBX 16 15 1 -3
BITMAP
FFEC
0C6C
0C6F
0C6C
0C6C
186F
38CC
E18C
030C
0000
7FFC
000C
000C
000C
000C
ENDCHAR
STARTCHAR C031047
ENCODING 12839
SWIDTH 1800 0
DWIDTH 18 0
BBX 16 16 1 -3
BITMAP
000C
7FEC
0C6F
0C6C
0C6C
0C6C
18CF
71CC
E38C
000C
3FFE
0006
3FFE
3000
3000
3FFE
ENDCHAR
STARTCHAR C031050
ENCODING 12840
SWIDTH 1800 0
DWIDTH 18 0
BBX 15 15 2 -3
BITMAP
7FC6
0CC6
0CC6
0CC6
0CC6
0CC6
18FE
18C6
18C6
38C6
3186
6186
C306
0006
0006
ENDCHAR
STARTCHAR C031051
ENCODING 12841
SWIDTH 1800 0
DWIDTH 18 0
BBX 15 16 2 -4
BITMAP
FFE6
0C66
0C66
0C66
0C7E
18E6
38C6
E186
0306
0000
3FFE
0006
0006
0006
0006
0006
ENDCHAR
STARTCHAR C031052
ENCODING 12842
SWIDTH 1800 0
DWIDTH 18 0
BBX 15 15 2 -3
BITMAP
FFE6
0C66
0C66
0C66
1C7E
18C6
31C6
E386
0000
3FFE
0306
0306
0306
0306
0306
ENDCHAR
STARTCHAR C031053
ENCODING 12843
SWIDTH 1800 0
DWIDTH 18 0
BBX 15 15 2 -3
BITMAP
FFE6
0C66
0C66
0C66
0C66
1C7E
18C6
71C6
E386
0006
3006
3006
3000
3000
3FFE
ENDCHAR
STARTCHAR C031054
ENCODING 12844
SWIDTH 1800 0
DWIDTH 18 0
BBX 15 15 2 -3
BITMAP
FFE6
0C66
0C66
0C66
1CFE
18C6
7186
E386
0006
3FFE
0006
3FFE
3000
3000
1FFE
ENDCHAR
STARTCHAR C031055
ENCODING 12845
SWIDTH 1800 0
DWIDTH 18 0
BBX 15 16 2 -4
BITMAP
FFE6
0C66
0C66
0C66
0C7E
18C6
31C6
E386
0006
3FFE
3006
3006
3006
3006
3FFE
0940
ENDCHAR
STARTCHAR C031056
ENCODING 12846
SWIDTH 1800 0
DWIDTH 18 0
BBX 15 19 2 -4
BITMAP
0006
0000
0000
FFE6
0C66
0C66
0C66
0C7E
18C6
31C6
E386
0000
1806
1806
1FFE
1806
1806
1FFE
0002
ENDCHAR
STARTCHAR C031057
ENCODING 12847
SWIDTH 1800 0
DWIDTH 18 0
BBX 16 17 2 -4
BITMAP
0006
FFE6
0C66
0C66
0C66
0C7E
18C6
38C6
7186
C306
0006
01C0
01E0
0360
0E38
780F
C000
ENDCHAR
STARTCHAR C031060
ENCODING 12848
SWIDTH 1800 0
DWIDTH 18 0
BBX 16 17 2 -4
BITMAP
000C
FFEC
0C6C
0C6C
0CEC
0CFC
18CC
318C
E38C
060C
1800
1830
1838
3C78
7E6C
E7C7
002D
ENDCHAR
STARTCHAR C031061
ENCODING 12849
SWIDTH 1800 0
DWIDTH 18 0
BBX 15 16 2 -3
BITMAP
0006
FFE6
0C66
0C66
0C66
0C7E
18C6
31C6
E386
0006
0006
0FF8
380E
3006
380E
0FF8
ENDCHAR
STARTCHAR C031062
ENCODING 12850
SWIDTH 1800 0
DWIDTH 18 0
BBX 15 17 2 -4
BITMAP
0006
FFB6
19B6
19B6
19B6
19B6
19B6
19F6
19B6
19B6
39B6
3336
E736
0636
0036
0036
0030
ENDCHAR
STARTCHAR C031063
ENCODING 12851
SWIDTH 1800 0
DWIDTH 18 0
BBX 15 17 2 -4
BITMAP
0030
FFB6
19B6
19B6
19B6
19F6
31B6
7336
E736
0C36
0000
3FFE
0006
0006
0006
0006
0006
ENDCHAR
STARTCHAR C031064
ENCODING 12852
SWIDTH 1800 0
DWIDTH 18 0
BBX 15 15 2 -3
BITMAP
FFB6
19B6
19B6
19B6
19F6
19B6
3336
6736
CE36
0036
3036
3006
3000
3000
3FFE
ENDCHAR
STARTCHAR C031065
ENCODING 12853
SWIDTH 1800 0
DWIDTH 18 0
BBX 15 16 2 -3
BITMAP
0030
FFB6
19B6
19B6
19B6
19F6
31B6
3336
E636
0006
3FFE
3006
3006
3006
3006
3FFE
ENDCHAR
STARTCHAR C031066
ENCODING 12854
SWIDTH 1800 0
DWIDTH 18 0
BBX 15 15 2 -3
BITMAP
FFB6
19B6
19B6
19B6
19F6
19B6
33B6
3336
E636
0006
01C0
03C0
0760
1E38
780E
ENDCHAR
STARTCHAR C031067
ENCODING 12855
SWIDTH 1800 0
DWIDTH 18 0
BBX 15 18 2 -3
BITMAP
0030
0000
0000
FFB6
19B6
19B6
19B6
19F6
31B6
3336
6336
CE36
0006
0FF8
380E
3006
380E
0FF8
ENDCHAR
STARTCHAR C031070
ENCODING 12856
SWIDTH 1800 0
DWIDTH 18 0
BBX 14 18 3 -3
BITMAP
000C
0000
000C
FFCC
18CC
18CC
18CC
18FC
18CC
18CC
18CC
18CC
30FC
718C
E38C
030C
000C
000C
ENDCHAR
STARTCHAR C031071
ENCODING 12857
SWIDTH 1800 0
DWIDTH 18 0
BBX 15 15 2 -3
BITMAP
FFE6
0C66
0C66
0C7E
0C66
1C66
18C6
71DE
E386
0006
3006
3000
3000
3000
3FFE
ENDCHAR
STARTCHAR C031072
ENCODING 12858
SWIDTH 1800 0
DWIDTH 18 0
BBX 15 15 2 -3
BITMAP
FFE6
0C66
0C7E
0C66
1CC6
18FE
7186
E386
0000
3FFE
0006
3FFE
3000
3000
1FFE
ENDCHAR
STARTCHAR C031073
ENCODING 12859
SWIDTH 1800 0
DWIDTH 18 0
BBX 15 15 2 -3
BITMAP
FBE6
0C66
0C7E
0C66
1866
18C6
30DE
E386
0306
0006
01C0
01C0
0360
0E38
781E
ENDCHAR
STARTCHAR C031074
ENCODING 12860
SWIDTH 1800 0
DWIDTH 18 0
BBX 15 16 2 -4
BITMAP
FFCC
18CC
18FC
18CC
18CC
318C
738C
E77C
000C
183C
1830
3C78
3C78
67CE
C386
1280
ENDCHAR
STARTCHAR C031075
ENCODING 12861
SWIDTH 1800 0
DWIDTH 18 0
BBX 15 16 2 -4
BITMAP
FFE6
0C66
0C7E
0CE6
18C6
38C6
71BE
C706
0006
3FFE
3000
3FFC
3000
3000
3FFE
0002
ENDCHAR
STARTCHAR C031076
ENCODING 12862
SWIDTH 1800 0
DWIDTH 18 0
BBX 15 17 2 -4
BITMAP
0006
FFB6
19B6
19B6
19B6
19F6
19B6
19B6
19B6
19B6
39F6
3336
E736
0E36
0036
0036
6000
ENDCHAR
STARTCHAR C031077
ENCODING 12863
SWIDTH 1800 0
DWIDTH 18 0
BBX 17 16 2 -4
BITMAP
7FFC00
060C00
060C00
060C00
060C00
060C00
060C00
078C00
0D9800
0D9800
0D9800
018000
018000
FFFE00
000000
001680
ENDCHAR
STARTCHAR C031100
ENCODING 12864
SWIDTH 1800 0
DWIDTH 18 0
BBX 15 15 2 -3
BITMAP
FFFC
060C
060C
060C
078C
0D8C
0D80
0180
FFFE
0000
7FFC
000C
000C
000C
000C
ENDCHAR
STARTCHAR C031101
ENCODING 12865
SWIDTH 1800 0
DWIDTH 18 0
BBX 15 15 2 -3
BITMAP
FFFC
060C
060C
060C
078C
0F8C
0D98
0180
FFFE
0000
3000
3000
3000
3000
3FFE
ENDCHAR
STARTCHAR C031102
ENCODING 12866
SWIDTH 1800 0
DWIDTH 18 0
BBX 15 15 2 -3
BITMAP
FFFC
060C
060C
060C
078C
0D98
0180
FFFE
0000
60F8
6000
63FE
60FC
7F8C
00FC
ENDCHAR
STARTCHAR C031103
ENCODING 12867
SWIDTH 1800 0
DWIDTH 18 0
BBX 15 15 2 -3
BITMAP
FFFC
060C
060C
060C
078C
0D98
0180
FFFE
0000
7FFC
000C
7FFC
6000
6000
7FFC
ENDCHAR
STARTCHAR C031104
ENCODING 12868
SWIDTH 1800 0
DWIDTH 18 0
BBX 15 15 2 -3
BITMAP
FEFC
060C
060C
060C
0D8C
0D8C
0180
FFFE
0000
7FFC
600C
600C
600C
600C
7FFC
ENDCHAR
STARTCHAR C031105
ENCODING 12869
SWIDTH 1800 0
DWIDTH 18 0
BBX 15 15 2 -3
BITMAP
FDFC
060C
060C
060C
0D8C
0D98
0180
FFFE
0000
600C
600C
7FFC
600C
600C
7FFC
ENDCHAR
STARTCHAR C031106
ENCODING 12870
SWIDTH 1800 0
DWIDTH 18 0
BBX 15 15 2 -3
BITMAP
7FFC
060C
060C
060C
078C
078C
0180
0180
FFFE
0000
0180
03C0
06E0
1C70
F01E
ENDCHAR
STARTCHAR C031107
ENCODING 12871
SWIDTH 1800 0
DWIDTH 18 0
BBX 15 15 2 -3
BITMAP
7FFC
060C
060C
060C
078C
078C
0180
FFFE
0000
0000
1FF0
701C
600C
701C
1FF0
ENDCHAR
STARTCHAR C031110
ENCODING 12872
SWIDTH 1800 0
DWIDTH 18 0
BBX 15 15 2 -3
BITMAP
FDFC
060C
060C
060C
0F8C
0D9C
0180
FFFE
0000
0000
3FFC
0380
07C0
0E70
781C
ENDCHAR
STARTCHAR C031111
ENCODING 12873
SWIDTH 1800 0
DWIDTH 18 0
BBX 15 15 2 -3
BITMAP
FDFC
060C
060C
078C
0D8C
0D98
FFFE
0000
0FE0
0000
7FFC
0380
07C0
0EE0
783C
ENDCHAR
STARTCHAR C031112
ENCODING 12874
SWIDTH 1800 0
DWIDTH 18 0
BBX 15 15 2 -3
BITMAP
FFD8
18D8
18D8
18D8
18D8
18D8
18D8
36DE
3618
0618
0638
FFF8
0018
0018
0018
ENDCHAR
STARTCHAR C031113
ENCODING 12875
SWIDTH 1800 0
DWIDTH 18 0
BBX 17 16 1 -4
BITMAP
FFE600
0C6600
0C6600
0C6600
0F6780
1B6600
030E00
FFFE00
000600
000000
3FFE00
000600
000600
000600
000600
094000
ENDCHAR
STARTCHAR C031114
ENCODING 12876
SWIDTH 1800 0
DWIDTH 18 0
BBX 17 16 1 -4
BITMAP
FFE600
0C6600
0C6600
0C6600
1F6780
1B0600
030E00
7FFE00
000600
3FFC00
000C00
3FFC00
300000
300000
3FFE00
000200
ENDCHAR
STARTCHAR C031115
ENCODING 12877
SWIDTH 1800 0
DWIDTH 18 0
BBX 17 16 1 -4
BITMAP
FFE600
0C6600
0C6600
0C6600
0F6780
1B6600
030E00
FFFE00
000600
1C1800
1C1800
1C3800
3E3C00
776600
01C300
600000
ENDCHAR
STARTCHAR C031116
ENCODING 12878
SWIDTH 1800 0
DWIDTH 18 0
BBX 17 16 1 -4
BITMAP
FFE600
0C6600
0C6600
0C6600
0C6780
1B6600
030600
030E00
FFFE00
000600
0FF800
380E00
300600
380E00
0FF800
001680
ENDCHAR
STARTCHAR C031117
ENCODING 12879
SWIDTH 1800 0
DWIDTH 18 0
BBX 15 15 2 -3
BITMAP
FFB6
19B6
19B6
19B6
19B6
19B6
19BE
3DB6
3DB6
0C36
0CF6
FFF6
0036
0036
0036
ENDCHAR
STARTCHAR C031120
ENCODING 12880
SWIDTH 1800 0
DWIDTH 18 0
BBX 15 16 2 -4
BITMAP
FFB6
19B6
19B6
19B6
19BE
1FB6
0636
7FF6
0036
0000
3FFE
0006
0006
0006
0006
0006
ENDCHAR
STARTCHAR C031121
ENCODING 12881
SWIDTH 1800 0
DWIDTH 18 0
BBX 15 15 2 -3
BITMAP
FFB6
19B6
19B6
19B6
19BE
1FB6
0636
7FF6
0036
0000
0FF8
381E
3006
380E
0FF8
ENDCHAR
STARTCHAR C031122
ENCODING 12882
SWIDTH 1800 0
DWIDTH 18 0
BBX 14 15 3 -3
BITMAP
FFCC
18CC
18CC
18CC
18CC
18CC
18CC
1ECC
36CC
060C
061C
FFFC
000C
000C
000C
ENDCHAR
STARTCHAR C031123
ENCODING 12883
SWIDTH 1800 0
DWIDTH 18 0
BBX 15 15 2 -3
BITMAP
FFE6
1C66
1C66
1866
1866
1B66
0306
030E
FFFE
0006
3006
3006
3000
3000
3FFE
ENDCHAR
STARTCHAR C031124
ENCODING 12884
SWIDTH 1800 0
DWIDTH 18 0
BBX 15 15 2 -3
BITMAP
FFE6
1C66
1866
1866
1866
1B66
030E
FFFE
0006
3FFE
0006
3FFE
3000
3000
1FFE
ENDCHAR
STARTCHAR C031125
ENCODING 12885
SWIDTH 1800 0
DWIDTH 18 0
BBX 15 18 2 -3
BITMAP
0006
0000
0000
FFE6
0C76
0C66
1866
1866
1B66
030E
FFFE
0006
3FFE
3006
3006
3006
3006
3FFE
ENDCHAR
STARTCHAR C031126
ENCODING 12886
SWIDTH 1800 0
DWIDTH 18 0
BBX 15 15 2 -3
BITMAP
FFE6
1876
1866
1866
1B66
1B66
030E
FFFE
0006
3006
3006
3FFE
3006
3006
3FFE
ENDCHAR
STARTCHAR C031127
ENCODING 12887
SWIDTH 1800 0
DWIDTH 18 0
BBX 15 15 2 -3
BITMAP
FFE6
0C76
0C66
1866
1B66
1B66
030E
FFFE
0006
0006
0FF8
381E
3006
380E
0FF8
ENDCHAR
STARTCHAR C031130
ENCODING 12888
SWIDTH 1800 0
DWIDTH 18 0
BBX 16 14 2 -2
BITMAP
FDFC
0C0C
0C0C
0C0C
0C0C
0C0C
0C0C
180C
1E3C
1E3C
0630
0630
0630
FFFF
ENDCHAR
STARTCHAR C031131
ENCODING 12889
SWIDTH 1800 0
DWIDTH 18 0
BBX 16 15 2 -3
BITMAP
FEFC
060C
060C
060C
060C
060C
060C
060C
FFFF
0180
0180
0180
0180
0180
0180
ENDCHAR
STARTCHAR C031132
ENCODING 12890
SWIDTH 1800 0
DWIDTH 18 0
BBX 16 16 2 -4
BITMAP
FEFC
060C
060C
060C
060C
060C
060C
FFFF
0180
0180
7FFC
000C
000C
000C
000C
0940
ENDCHAR
STARTCHAR C031133
ENCODING 12891
SWIDTH 1800 0
DWIDTH 18 0
BBX 15 16 2 -4
BITMAP
FEFC
060C
060C
060C
060C
060C
060C
FFFE
0180
0180
3180
3180
3000
3000
3FFE
0002
ENDCHAR
STARTCHAR C031134
ENCODING 12892
SWIDTH 1800 0
DWIDTH 18 0
BBX 15 16 2 -4
BITMAP
7FFC
060C
060C
060C
061C
0618
FFFE
0180
0180
7FFC
000C
7FFC
6000
6000
7FFC
6000
ENDCHAR
STARTCHAR C031135
ENCODING 12893
SWIDTH 1800 0
DWIDTH 18 0
BBX 17 16 2 -4
BITMAP
7FFC00
030C00
030C00
030C00
030C00
060C00
FFFF00
018000
01F800
FE0000
07FE00
FE0000
C0FC00
C18600
FEFC00
001680
ENDCHAR
STARTCHAR C031136
ENCODING 12894
SWIDTH 1800 0
DWIDTH 18 0
BBX 15 15 2 -3
BITMAP
FEFC
060C
060C
060C
060C
060C
FFFE
0180
0180
3FFC
300C
300C
300C
300C
3FFC
ENDCHAR
STARTCHAR C031137
ENCODING 12895
SWIDTH 1800 0
DWIDTH 18 0
BBX 15 15 2 -3
BITMAP
FEFC
060C
060C
060C
060C
060C
FFFE
0180
0180
618C
600C
7FFC
600C
600C
7FFC
ENDCHAR
STARTCHAR C031140
ENCODING 12896
SWIDTH 1800 0
DWIDTH 18 0
BBX 16 15 2 -3
BITMAP
FEFC
060C
060C
060C
060C
060C
FFFF
0180
0180
0000
0180
0380
07C0
0C70
F83E
ENDCHAR
STARTCHAR C031141
ENCODING 12897
SWIDTH 1800 0
DWIDTH 18 0
BBX 15 15 2 -3
BITMAP
FEFC
060C
060C
060C
060C
060C
FFFE
0180
0180
0FF0
3838
600C
600C
3838
0FE0
ENDCHAR
STARTCHAR C031142
ENCODING 12898
SWIDTH 1800 0
DWIDTH 18 0
BBX 16 15 2 -3
BITMAP
FEFC
060C
060C
060C
060C
060C
FFFF
0180
0180
0000
7FFC
0380
07C0
1C70
701C
ENDCHAR
STARTCHAR C031143
ENCODING 12899
SWIDTH 1800 0
DWIDTH 18 0
BBX 15 17 2 -4
BITMAP
0006
7FE6
0C66
0C66
0C66
0C66
0C66
0C66
18C6
FFF6
0606
067E
0606
0606
0606
0606
0606
ENDCHAR
STARTCHAR C031144
ENCODING 12900
SWIDTH 1800 0
DWIDTH 18 0
BBX 15 15 2 -3
BITMAP
7FE6
0C66
0C66
0C66
0C66
FFF6
0606
063E
0006
3FFE
0006
3FFE
3000
3000
3FFE
ENDCHAR
STARTCHAR C031145
ENCODING 12901
SWIDTH 1800 0
DWIDTH 18 0
BBX 16 14 2 -2
BITMAP
FBEC
186C
186C
186C
186C
FFFC
060C
067C
060C
1818
1838
3C3C
7C7C
E7E7
ENDCHAR
STARTCHAR C031146
ENCODING 12902
SWIDTH 1800 0
DWIDTH 18 0
BBX 15 15 2 -3
BITMAP
7FE6
0C66
0C66
0C66
0C66
FFF6
0606
063E
0606
0FF0
1C1C
3006
3006
1C1C
07F0
ENDCHAR
ENDFONT
